<svg xmlns="http://www.w3.org/2000/svg" xmlns:xlink="http://www.w3.org/1999/xlink" viewBox="0 0 640 700">
  <defs>
    <style>
      .cls-1 {
        fill: none;
      }

      .cls-2 {
        fill: #f5fcff;
      }

      .cls-3 {
        fill: #fff;
      }

      .cls-4 {
        fill: #10162f;
      }

      .cls-5 {
        fill: #66c4ff;
      }

      .cls-6 {
        clip-path: url(#clip-path);
      }

      .cls-7 {
        fill: #008a27;
      }

      .cls-8 {
        fill: #0f1531;
      }

      .cls-9 {
        fill: #af7556;
      }

      .cls-10 {
        fill: #ff7c00;
      }

      .cls-11 {
        fill: #ffd300;
      }

      .cls-12 {
        fill: #fff0e5;
      }

      .cls-13 {
        clip-path: url(#clip-path-2);
      }

      .cls-14 {
        fill: #3a10e5;
      }

      .cls-15 {
        clip-path: url(#clip-path-3);
      }

      .cls-16 {
        fill: #f966ff;
      }
    </style>
    <clipPath id="clip-path">
      <circle class="cls-1" cx="214.25" cy="150.61" r="50"/>
    </clipPath>
    <clipPath id="clip-path-2">
      <circle class="cls-1" cx="530.41" cy="154.24" r="50"/>
    </clipPath>
    <clipPath id="clip-path-3">
      <circle class="cls-1" cx="543.67" cy="606.37" r="50"/>
    </clipPath>
  </defs>
  <g id="Layer_1" data-name="Layer 1">
    <g>
      <rect class="cls-2" x="0.5" y="0.5" width="639" height="699"/>
      <path d="M639,1V699H1V1H639m1-1H0V700H640V0Z"/>
    </g>
  </g>
  <g id="Layer_2" data-name="Layer 2">
    <g>
      <path class="cls-3" d="M123.72,50.25A24.63,24.63,0,0,0,112,53.19a24.67,24.67,0,0,0-45.65,9.42h-.23a24.7,24.7,0,0,0,0,49.4,24.4,24.4,0,0,0,10.32-2.29,24.69,24.69,0,0,0,47.25-10.06,24.7,24.7,0,0,0,0-49.4Z"/>
      <path class="cls-4" d="M99,124.85a25.24,25.24,0,0,1-22.79-14.48A25.19,25.19,0,1,1,66,62.1a25.16,25.16,0,0,1,46.26-9.57,25.2,25.2,0,1,1,12,47.61A25.22,25.22,0,0,1,99,124.85Zm-22.3-15.8.21.46a24.19,24.19,0,0,0,46.29-9.86v-.5h.5a24.2,24.2,0,1,0-11.46-45.52l-.42.23-.24-.41a24.16,24.16,0,0,0-44.72,9.23l-.06.44-.59,0h0a24.2,24.2,0,1,0-.07,48.4,23.87,23.87,0,0,0,10.11-2.24Z"/>
    </g>
    <path class="cls-4" d="M308.59,151.16l-35.45.63V136.84a13.93,13.93,0,0,1,13.93-13.93l21.52-.62a13.93,13.93,0,0,1,13.93,13.92v1A13.93,13.93,0,0,1,308.59,151.16Z"/>
    <g>
      <path class="cls-3" d="M288,140.52a2.32,2.32,0,0,1-1.2-1.66l.72-.45c.25,1,.76,1.55,1.55,1.55a1.16,1.16,0,0,0,.83-.3,1.2,1.2,0,0,0,.32-.89,1.09,1.09,0,0,0-.2-.65,1.67,1.67,0,0,0-.5-.45,8.89,8.89,0,0,0-.85-.44,3.47,3.47,0,0,1-1.07-.77,1.64,1.64,0,0,1-.4-1.14,1.72,1.72,0,0,1,.23-.88,1.61,1.61,0,0,1,.63-.61,1.82,1.82,0,0,1,.9-.22,1.92,1.92,0,0,1,1.12.3,1.84,1.84,0,0,1,.67.84l-.71.45a1.1,1.1,0,0,0-1.08-.78.89.89,0,0,0-.66.25.82.82,0,0,0-.25.6,1,1,0,0,0,.19.6,1.62,1.62,0,0,0,.48.42c.19.11.44.24.77.39a3.56,3.56,0,0,1,1.19.82,1.77,1.77,0,0,1,.42,1.23,2.17,2.17,0,0,1-.26,1.07,1.83,1.83,0,0,1-.74.72,2.08,2.08,0,0,1-1,.25A2.21,2.21,0,0,1,288,140.52Z"/>
      <path class="cls-3" d="M292.68,140.35a1.61,1.61,0,0,1-.42-1.19v-3.51h.83V139a1.15,1.15,0,0,0,.24.79.87.87,0,0,0,.68.26,1.19,1.19,0,0,0,.75-.27,1.76,1.76,0,0,0,.54-.78,3.34,3.34,0,0,0,.19-1.19v-2.14h.82v5h-.82v-1a2.2,2.2,0,0,1-.71.77,1.77,1.77,0,0,1-1,.28A1.53,1.53,0,0,1,292.68,140.35Z"/>
      <path class="cls-3" d="M298.64,135.65v.87a1.78,1.78,0,0,1,.62-.7,1.5,1.5,0,0,1,.86-.25,1.93,1.93,0,0,1,.71.15l-.17.77a1.37,1.37,0,0,0-.65-.17,1.14,1.14,0,0,0-1,.63,3.63,3.63,0,0,0-.38,1.84v1.9h-.83v-5Z"/>
      <path class="cls-3" d="M305.72,138.3H302a2.06,2.06,0,0,0,.42,1.25,1.29,1.29,0,0,0,1.06.48,1.47,1.47,0,0,0,.85-.23,1.88,1.88,0,0,0,.59-.75l.7.3a2.69,2.69,0,0,1-.87,1.08,2.3,2.3,0,0,1-1.29.34,2.19,2.19,0,0,1-1.23-.35,2.39,2.39,0,0,1-.8-.95,3.12,3.12,0,0,1-.27-1.3,3.09,3.09,0,0,1,.27-1.3,2.26,2.26,0,0,1,.8-1,2.19,2.19,0,0,1,1.23-.35,2.24,2.24,0,0,1,1.2.32,2.09,2.09,0,0,1,.78.86,2.65,2.65,0,0,1,.27,1.2Zm-.84-.71a1.58,1.58,0,0,0-.45-.93,1.33,1.33,0,0,0-1-.35,1.32,1.32,0,0,0-.9.33,1.72,1.72,0,0,0-.51,1Z"/>
      <path class="cls-3" d="M307.24,140.54a.61.61,0,0,1-.18-.45.66.66,0,0,1,.18-.47.62.62,0,0,1,.46-.18.61.61,0,0,1,.45.18.63.63,0,0,1,.19.47.58.58,0,0,1-.19.45.61.61,0,0,1-.45.18A.62.62,0,0,1,307.24,140.54Zm-.09-6.85h1.1l-.24,5h-.62Z"/>
    </g>
    <path class="cls-4" d="M363.08,168.14h106.7V124.53a14.44,14.44,0,0,0-14.44-14.44H363.08a14.43,14.43,0,0,0-14.44,14.44v29.18A14.43,14.43,0,0,0,363.08,168.14Z"/>
    <g>
      <path class="cls-3" d="M367.43,124.76h.87v2.86h3.31v-2.86h.87v7h-.87v-3.33H368.3v3.33h-.87Z"/>
      <path class="cls-3" d="M378.35,129.37h-3.71a2,2,0,0,0,.42,1.25,1.29,1.29,0,0,0,1.06.48,1.4,1.4,0,0,0,.85-.23,1.88,1.88,0,0,0,.59-.75l.7.3a2.56,2.56,0,0,1-.87,1.08,2.3,2.3,0,0,1-1.29.34,2.19,2.19,0,0,1-1.23-.35,2.29,2.29,0,0,1-.79-1,3,3,0,0,1-.28-1.3,3,3,0,0,1,.28-1.3,2.23,2.23,0,0,1,.79-1,2.19,2.19,0,0,1,1.23-.35,2.24,2.24,0,0,1,1.2.32,2.15,2.15,0,0,1,.78.86,2.65,2.65,0,0,1,.27,1.2Zm-.84-.71a1.58,1.58,0,0,0-.45-.93,1.33,1.33,0,0,0-1-.35,1.32,1.32,0,0,0-.9.33,1.72,1.72,0,0,0-.51,1Z"/>
      <path class="cls-3" d="M382.36,126.72h.84l-2.53,7.08h-.81l.77-2.18-1.81-4.9h.85l1.37,3.73Z"/>
      <path class="cls-3" d="M387.32,131.48a2.14,2.14,0,0,1-.78-.95,3,3,0,0,1-.27-1.29,3.11,3.11,0,0,1,.27-1.29,2.13,2.13,0,0,1,2-1.31,2.05,2.05,0,0,1,2.11,1.41l-.74.29a1.39,1.39,0,0,0-1.37-1,1.27,1.27,0,0,0-1.08.52,2.61,2.61,0,0,0,0,2.68,1.24,1.24,0,0,0,1.08.52,1.38,1.38,0,0,0,.83-.24,1.71,1.71,0,0,0,.54-.72l.74.29a2.19,2.19,0,0,1-.8,1.06,2.39,2.39,0,0,1-1.31.35A2.17,2.17,0,0,1,387.32,131.48Z"/>
      <path class="cls-3" d="M392.68,131.49a2.32,2.32,0,0,1-.85-1,2.92,2.92,0,0,1,0-2.58,2.23,2.23,0,0,1,.85-1,2.37,2.37,0,0,1,3.41,1,3,3,0,0,1,0,2.58,2.39,2.39,0,0,1-.85,1,2.52,2.52,0,0,1-2.56,0Zm2.13-.65a1.63,1.63,0,0,0,.53-.68,2.36,2.36,0,0,0,.18-.92,2.31,2.31,0,0,0-.18-.91,1.66,1.66,0,0,0-.53-.69,1.43,1.43,0,0,0-.85-.26,1.38,1.38,0,0,0-.84.26,1.61,1.61,0,0,0-.54.69,2.15,2.15,0,0,0-.19.91,2.2,2.2,0,0,0,.19.92,1.58,1.58,0,0,0,.54.68,1.32,1.32,0,0,0,.84.26A1.36,1.36,0,0,0,394.81,130.84Z"/>
      <path class="cls-3" d="M398,131.42a1.6,1.6,0,0,1-.42-1.19v-3.51h.83v3.33a1.15,1.15,0,0,0,.24.79.87.87,0,0,0,.68.26,1.19,1.19,0,0,0,.75-.27,1.76,1.76,0,0,0,.54-.78,3.3,3.3,0,0,0,.19-1.19v-2.14h.82v5h-.82v-1a2.2,2.2,0,0,1-.71.77,1.77,1.77,0,0,1-1,.28A1.53,1.53,0,0,1,398,131.42Z"/>
      <path class="cls-3" d="M403.14,124.68H404v7.08h-.83Z"/>
      <path class="cls-3" d="M406.2,131.51a2.12,2.12,0,0,1-.76-.93,3.34,3.34,0,0,1-.26-1.34,3.37,3.37,0,0,1,.26-1.34,2.05,2.05,0,0,1,2-1.26,2.06,2.06,0,0,1,.87.19,1.81,1.81,0,0,1,.64.52v-2.67h.82v7.08h-.82v-.66a1.52,1.52,0,0,1-.61.52,1.87,1.87,0,0,1-.9.22A2.15,2.15,0,0,1,406.2,131.51Zm2.4-.92a2.51,2.51,0,0,0,0-2.69,1.38,1.38,0,0,0-2.16,0,2.1,2.1,0,0,0-.4,1.34,2.13,2.13,0,0,0,.4,1.35,1.4,1.4,0,0,0,2.16,0Z"/>
      <path class="cls-3" d="M416.64,126.72h.84L415,133.8h-.81l.77-2.18-1.81-4.9H414l1.37,3.73Z"/>
      <path class="cls-3" d="M419.06,131.49a2.32,2.32,0,0,1-.85-1,2.92,2.92,0,0,1,0-2.58,2.23,2.23,0,0,1,.85-1,2.37,2.37,0,0,1,3.41,1,3,3,0,0,1,0,2.58,2.39,2.39,0,0,1-.85,1,2.52,2.52,0,0,1-2.56,0Zm2.13-.65a1.63,1.63,0,0,0,.53-.68,2.36,2.36,0,0,0,.18-.92,2.31,2.31,0,0,0-.18-.91,1.66,1.66,0,0,0-.53-.69,1.43,1.43,0,0,0-.85-.26,1.38,1.38,0,0,0-.84.26,1.61,1.61,0,0,0-.54.69,2.15,2.15,0,0,0-.19.91,2.2,2.2,0,0,0,.19.92,1.58,1.58,0,0,0,.54.68,1.32,1.32,0,0,0,.84.26A1.36,1.36,0,0,0,421.19,130.84Z"/>
      <path class="cls-3" d="M424.39,131.42a1.6,1.6,0,0,1-.42-1.19v-3.51h.83v3.33a1.2,1.2,0,0,0,.23.79.9.9,0,0,0,.69.26,1.19,1.19,0,0,0,.75-.27,1.84,1.84,0,0,0,.54-.78,3.3,3.3,0,0,0,.19-1.19v-2.14H428v5h-.82v-1a2.13,2.13,0,0,1-.72.77,1.71,1.71,0,0,1-1,.28A1.53,1.53,0,0,1,424.39,131.42Z"/>
      <path class="cls-3" d="M431.39,127.46v-.74h.75v-.13a1.78,1.78,0,0,1,.59-1.41,2.2,2.2,0,0,1,1.49-.5,3,3,0,0,1,.68.08,1.93,1.93,0,0,1,.56.21l-.21.72a2.1,2.1,0,0,0-1-.27,1.33,1.33,0,0,0-.91.3,1,1,0,0,0-.34.81v.19h2.86v5H435v-4.3h-2v4.3h-.82v-4.3Z"/>
      <path class="cls-3" d="M438.35,129l-1.43-2.31h.89l1,1.6,1-1.6h.89L439.24,129l1.69,2.73h-.86l-1.28-2-1.27,2h-.86Z"/>
      <path class="cls-3" d="M367.91,141.44a1.7,1.7,0,0,1-.39-1.22v-2.76h-.85v-.74h.85v-1.51l.83-.53v2h1.35v.74h-1.35v2.82c0,.55.23.82.7.82a1.06,1.06,0,0,0,.58-.14l.21.7a1.91,1.91,0,0,1-.86.18A1.42,1.42,0,0,1,367.91,141.44Z"/>
      <path class="cls-3" d="M371.55,134.68v3a1.93,1.93,0,0,1,1.73-1.09,1.57,1.57,0,0,1,1.16.42,1.62,1.62,0,0,1,.41,1.19v3.51H374v-3.31a1.17,1.17,0,0,0-.24-.79.88.88,0,0,0-.71-.28,1.22,1.22,0,0,0-.76.27,1.77,1.77,0,0,0-.56.77,3.14,3.14,0,0,0-.21,1.2v2.14h-.83v-7.08Z"/>
      <path class="cls-3" d="M380.61,139.37H376.9a2,2,0,0,0,.42,1.25,1.29,1.29,0,0,0,1.06.48,1.4,1.4,0,0,0,.85-.23,1.88,1.88,0,0,0,.59-.75l.7.3a2.56,2.56,0,0,1-.87,1.08,2.3,2.3,0,0,1-1.29.34,2.19,2.19,0,0,1-1.23-.35,2.29,2.29,0,0,1-.79-1,3,3,0,0,1-.28-1.3,3,3,0,0,1,.28-1.3,2.23,2.23,0,0,1,.79-.95,2.19,2.19,0,0,1,1.23-.35,2.24,2.24,0,0,1,1.2.32,2.15,2.15,0,0,1,.78.86,2.65,2.65,0,0,1,.27,1.2Zm-.84-.71a1.58,1.58,0,0,0-.45-.93,1.33,1.33,0,0,0-1-.35,1.32,1.32,0,0,0-.9.33,1.72,1.72,0,0,0-.51.95Z"/>
      <path class="cls-3" d="M385.77,141.63a1.51,1.51,0,0,1-.6-.48v.61h-.83v-7.08h.83v2.67a1.9,1.9,0,0,1,.64-.51,1.85,1.85,0,0,1,.83-.2,2.14,2.14,0,0,1,1.23.34,2,2,0,0,1,.77.92,3.37,3.37,0,0,1,.26,1.34,3.34,3.34,0,0,1-.26,1.34,2.07,2.07,0,0,1-.77.93,2.22,2.22,0,0,1-1.23.33A1.86,1.86,0,0,1,385.77,141.63Zm1.88-1a2.18,2.18,0,0,0,.39-1.35,2.15,2.15,0,0,0-.39-1.34,1.3,1.3,0,0,0-1.09-.52,1.26,1.26,0,0,0-1.07.52,2.1,2.1,0,0,0-.4,1.34,2.18,2.18,0,0,0,.39,1.35,1.28,1.28,0,0,0,1.08.51A1.32,1.32,0,0,0,387.65,140.59Z"/>
      <path class="cls-3" d="M390.53,141.42a1.6,1.6,0,0,1-.42-1.19v-3.51h.83v3.33a1.15,1.15,0,0,0,.24.79.87.87,0,0,0,.68.26,1.19,1.19,0,0,0,.75-.27,1.76,1.76,0,0,0,.54-.78,3.3,3.3,0,0,0,.19-1.19v-2.14h.82v5h-.82v-1a2.2,2.2,0,0,1-.71.77,1.77,1.77,0,0,1-1,.28A1.53,1.53,0,0,1,390.53,141.42Z"/>
      <path class="cls-3" d="M395.87,143.44a1.44,1.44,0,0,1-.59-1.22,1.33,1.33,0,0,1,.14-.6,1.27,1.27,0,0,1,.35-.44.9.9,0,0,1-.36-.81,1,1,0,0,1,.17-.56,1.14,1.14,0,0,1,.45-.39,1.64,1.64,0,0,1-.37-1.09,1.7,1.7,0,0,1,.23-.88,1.61,1.61,0,0,1,.64-.6,1.91,1.91,0,0,1,1.78,0l.91-.51.36.62-.71.38a1.66,1.66,0,0,1,.3,1,1.77,1.77,0,0,1-.23.9,1.56,1.56,0,0,1-.63.59,2,2,0,0,1-.89.2,1.87,1.87,0,0,1-.88-.2.55.55,0,0,0-.35.5.37.37,0,0,0,.16.34.66.66,0,0,0,.41.11H398a1.83,1.83,0,0,1,1.17.35,1.22,1.22,0,0,1,.43,1,1.49,1.49,0,0,1-.6,1.31,2.55,2.55,0,0,1-1.54.43A2.49,2.49,0,0,1,395.87,143.44Zm2.54-.53a.82.82,0,0,0,.35-.69.65.65,0,0,0-.24-.57,1.13,1.13,0,0,0-.69-.18h-.91a4.17,4.17,0,0,1-.52,0,.87.87,0,0,0-.34.76.83.83,0,0,0,.36.71,1.69,1.69,0,0,0,1,.25A1.63,1.63,0,0,0,398.41,142.91Zm-.31-3.85a1,1,0,0,0,.28-.73,1,1,0,0,0-.28-.73,1,1,0,0,0-1.36,0,1,1,0,0,0-.28.73,1,1,0,0,0,.28.73,1,1,0,0,0,1.36,0Z"/>
      <path class="cls-3" d="M403.93,141.49a2.42,2.42,0,0,1-.86-1,3,3,0,0,1,0-2.58,2.32,2.32,0,0,1,.86-.95,2.37,2.37,0,0,1,3.41.95,3,3,0,0,1,0,2.58,2.39,2.39,0,0,1-.85,1,2.52,2.52,0,0,1-2.56,0Zm2.13-.65a1.63,1.63,0,0,0,.53-.68,2.36,2.36,0,0,0,.18-.92,2.31,2.31,0,0,0-.18-.91,1.66,1.66,0,0,0-.53-.69,1.52,1.52,0,0,0-1.7,0,1.77,1.77,0,0,0-.54.69,2.31,2.31,0,0,0-.18.91,2.36,2.36,0,0,0,.18.92,1.74,1.74,0,0,0,.54.68,1.52,1.52,0,0,0,1.7,0Z"/>
      <path class="cls-3" d="M409.67,136.72v1a2.1,2.1,0,0,1,.72-.76,1.71,1.71,0,0,1,.95-.29,1.53,1.53,0,0,1,1.13.42,1.61,1.61,0,0,1,.42,1.19v3.51h-.82v-3.33a1.17,1.17,0,0,0-.23-.78.88.88,0,0,0-.7-.27,1.19,1.19,0,0,0-.75.27,1.83,1.83,0,0,0-.53.78,3.25,3.25,0,0,0-.19,1.18v2.15h-.83v-5Z"/>
      <path class="cls-3" d="M416.26,137.46v-.74H417v-.13a1.78,1.78,0,0,1,.59-1.41,2.2,2.2,0,0,1,1.49-.5,3,3,0,0,1,.68.08,1.93,1.93,0,0,1,.56.21l-.21.72a2.1,2.1,0,0,0-1-.27,1.33,1.33,0,0,0-.91.3,1,1,0,0,0-.34.81v.19h2.86v5h-.82v-4.3h-2v4.3H417v-4.3Z"/>
      <path class="cls-3" d="M422.19,134.68H423v7.08h-.83Z"/>
      <path class="cls-3" d="M428.78,139.37h-3.71a2,2,0,0,0,.42,1.25,1.29,1.29,0,0,0,1.06.48,1.4,1.4,0,0,0,.85-.23,1.88,1.88,0,0,0,.59-.75l.7.3a2.5,2.5,0,0,1-.88,1.08,2.24,2.24,0,0,1-1.28.34,2.19,2.19,0,0,1-1.23-.35,2.39,2.39,0,0,1-.8-1,3.12,3.12,0,0,1-.27-1.3,3.09,3.09,0,0,1,.27-1.3,2.32,2.32,0,0,1,.8-.95,2.19,2.19,0,0,1,1.23-.35,2.24,2.24,0,0,1,1.2.32,2.15,2.15,0,0,1,.78.86,2.65,2.65,0,0,1,.27,1.2Zm-.84-.71a1.58,1.58,0,0,0-.45-.93,1.33,1.33,0,0,0-1-.35,1.32,1.32,0,0,0-.9.33,1.72,1.72,0,0,0-.51.95Z"/>
      <path class="cls-3" d="M435,134.76a2.05,2.05,0,0,1,1.44.48,1.7,1.7,0,0,1,.52,1.34,1.46,1.46,0,0,1-.23.84,1.36,1.36,0,0,1-.58.51,1.85,1.85,0,0,1,.85.65,1.91,1.91,0,0,1,.32,1.13,1.94,1.94,0,0,1-.59,1.5,2.25,2.25,0,0,1-1.61.55h-2.47v-7Zm1.1,1.85c0-.69-.38-1-1.13-1H433.5v2.07H435C435.71,137.64,436.08,137.3,436.08,136.61Zm0,4a1.16,1.16,0,0,0,.36-1,1.17,1.17,0,0,0-.36-.95,1.66,1.66,0,0,0-1.08-.3H433.5V141H435A1.66,1.66,0,0,0,436.06,140.65Z"/>
      <path class="cls-3" d="M367.48,151.46a1.46,1.46,0,0,1-.44-1.15,1.4,1.4,0,0,1,.6-1.22,2.7,2.7,0,0,1,1.63-.43h.88v-.22a1,1,0,0,0-.29-.8,1.17,1.17,0,0,0-.78-.26,1.08,1.08,0,0,0-1.1.82l-.74-.17a1.51,1.51,0,0,1,.62-1,2,2,0,0,1,1.22-.38,1.91,1.91,0,0,1,1.37.5,1.81,1.81,0,0,1,.52,1.39v3.23h-.65l-.15-.73a1.74,1.74,0,0,1-1.57.81A1.67,1.67,0,0,1,367.48,151.46Zm1.93-.52a1.39,1.39,0,0,0,.53-.52,1.72,1.72,0,0,0,.21-.89v-.16h-.85a1.85,1.85,0,0,0-1.05.24.79.79,0,0,0-.35.69.76.76,0,0,0,.23.59.86.86,0,0,0,.62.21A1.4,1.4,0,0,0,369.41,150.94Z"/>
      <path class="cls-3" d="M372.56,151.44a1.83,1.83,0,0,1-.63-1l.69-.37a1.62,1.62,0,0,0,.44.74,1,1,0,0,0,.75.26.81.81,0,0,0,.59-.2.73.73,0,0,0,.21-.56.63.63,0,0,0-.27-.52,4.18,4.18,0,0,0-.82-.4,2.32,2.32,0,0,1-.92-.55,1.18,1.18,0,0,1-.33-.88,1.24,1.24,0,0,1,.42-1,1.49,1.49,0,0,1,1.05-.38,1.62,1.62,0,0,1,1.46.79l-.54.48a1.07,1.07,0,0,0-.93-.53.7.7,0,0,0-.47.17.55.55,0,0,0-.19.44.56.56,0,0,0,.25.47,3.56,3.56,0,0,0,.87.41q1.23.45,1.23,1.44a1.45,1.45,0,0,1-.44,1.12,1.61,1.61,0,0,1-1.17.41A1.88,1.88,0,0,1,372.56,151.44Z"/>
      <path class="cls-3" d="M379.41,151.44a1.83,1.83,0,0,1-.63-1l.69-.37a1.62,1.62,0,0,0,.44.74,1,1,0,0,0,.75.26.81.81,0,0,0,.59-.2.73.73,0,0,0,.21-.56.63.63,0,0,0-.27-.52,4.18,4.18,0,0,0-.82-.4,2.32,2.32,0,0,1-.92-.55,1.18,1.18,0,0,1-.33-.88,1.24,1.24,0,0,1,.42-1,1.49,1.49,0,0,1,1-.38,1.62,1.62,0,0,1,1.46.79l-.54.48a1.07,1.07,0,0,0-.93-.53.7.7,0,0,0-.47.17.55.55,0,0,0-.19.44.56.56,0,0,0,.25.47,3.56,3.56,0,0,0,.87.41q1.23.45,1.23,1.44a1.45,1.45,0,0,1-.44,1.12,1.61,1.61,0,0,1-1.17.41A1.88,1.88,0,0,1,379.41,151.44Z"/>
      <path class="cls-3" d="M384.19,151.49a2.25,2.25,0,0,1-.85-1,2.92,2.92,0,0,1,0-2.58,2.17,2.17,0,0,1,.85-.95,2.37,2.37,0,0,1,3.41.95,3,3,0,0,1,0,2.58,2.39,2.39,0,0,1-.85,1,2.52,2.52,0,0,1-2.56,0Zm2.12-.65a1.58,1.58,0,0,0,.54-.68,2.36,2.36,0,0,0,.18-.92,2.31,2.31,0,0,0-.18-.91,1.61,1.61,0,0,0-.54-.69,1.49,1.49,0,0,0-1.68,0,1.61,1.61,0,0,0-.54.69,2.15,2.15,0,0,0-.19.91,2.2,2.2,0,0,0,.19.92,1.58,1.58,0,0,0,.54.68,1.49,1.49,0,0,0,1.68,0Z"/>
      <path class="cls-3" d="M390,151.49a2.42,2.42,0,0,1-.86-1,3,3,0,0,1,0-2.58A2.32,2.32,0,0,1,390,147a2.37,2.37,0,0,1,3.41.95,3,3,0,0,1,0,2.58,2.39,2.39,0,0,1-.85,1,2.52,2.52,0,0,1-2.56,0Zm2.13-.65a1.63,1.63,0,0,0,.53-.68,2.36,2.36,0,0,0,.18-.92,2.31,2.31,0,0,0-.18-.91,1.66,1.66,0,0,0-.53-.69,1.52,1.52,0,0,0-1.7,0,1.77,1.77,0,0,0-.54.69,2.31,2.31,0,0,0-.18.91,2.36,2.36,0,0,0,.18.92,1.74,1.74,0,0,0,.54.68,1.52,1.52,0,0,0,1.7,0Z"/>
      <path class="cls-3" d="M395.7,146.72v1a2.1,2.1,0,0,1,.72-.76,1.71,1.71,0,0,1,.95-.29,1.53,1.53,0,0,1,1.13.42,1.61,1.61,0,0,1,.42,1.19v3.51h-.82v-3.33a1.17,1.17,0,0,0-.23-.78.88.88,0,0,0-.7-.27,1.15,1.15,0,0,0-.74.27,1.76,1.76,0,0,0-.54.78,3.47,3.47,0,0,0-.19,1.18v2.15h-.83v-5Z"/>
      <path class="cls-3" d="M403.1,151.46a1.46,1.46,0,0,1-.44-1.15,1.4,1.4,0,0,1,.6-1.22,2.7,2.7,0,0,1,1.63-.43h.88v-.22a1,1,0,0,0-.29-.8,1.17,1.17,0,0,0-.78-.26,1.08,1.08,0,0,0-1.1.82l-.74-.17a1.51,1.51,0,0,1,.62-1,2,2,0,0,1,1.22-.38,1.91,1.91,0,0,1,1.37.5,1.81,1.81,0,0,1,.52,1.39v3.23h-.65l-.15-.73a1.74,1.74,0,0,1-1.57.81A1.67,1.67,0,0,1,403.1,151.46Zm1.93-.52a1.39,1.39,0,0,0,.53-.52,1.72,1.72,0,0,0,.21-.89v-.16h-.85a1.85,1.85,0,0,0-1.05.24.79.79,0,0,0-.35.69.76.76,0,0,0,.23.59.85.85,0,0,0,.62.21A1.4,1.4,0,0,0,405,150.94Z"/>
      <path class="cls-3" d="M408.18,151.44a1.83,1.83,0,0,1-.63-1l.69-.37a1.54,1.54,0,0,0,.44.74,1,1,0,0,0,.75.26.81.81,0,0,0,.59-.2.73.73,0,0,0,.21-.56.63.63,0,0,0-.27-.52,4.18,4.18,0,0,0-.82-.4,2.32,2.32,0,0,1-.92-.55,1.18,1.18,0,0,1-.33-.88,1.24,1.24,0,0,1,.42-1,1.49,1.49,0,0,1,1.05-.38,1.62,1.62,0,0,1,1.46.79l-.54.48a1.07,1.07,0,0,0-.93-.53.7.7,0,0,0-.47.17.55.55,0,0,0-.19.44.56.56,0,0,0,.25.47,3.56,3.56,0,0,0,.87.41q1.23.45,1.23,1.44a1.45,1.45,0,0,1-.44,1.12,1.61,1.61,0,0,1-1.17.41A1.88,1.88,0,0,1,408.18,151.44Z"/>
      <path class="cls-3" d="M415.56,146.72v.65a1.64,1.64,0,0,1,.58-.51,2,2,0,0,1,.89-.22,2.14,2.14,0,0,1,1.23.34,2,2,0,0,1,.77.92,3.37,3.37,0,0,1,.26,1.34,3.34,3.34,0,0,1-.26,1.34,2.07,2.07,0,0,1-.77.93,2.22,2.22,0,0,1-1.23.33,1.91,1.91,0,0,1-.84-.19,1.55,1.55,0,0,1-.63-.52v2.67h-.83v-7.08Zm2.48,3.87a2.18,2.18,0,0,0,.39-1.35,2.15,2.15,0,0,0-.39-1.34,1.3,1.3,0,0,0-1.09-.52,1.27,1.27,0,0,0-1.08.52,2.15,2.15,0,0,0-.39,1.34,2.13,2.13,0,0,0,.4,1.35,1.28,1.28,0,0,0,1.07.51A1.32,1.32,0,0,0,418,150.59Z"/>
      <path class="cls-3" d="M421.35,151.49a2.3,2.3,0,0,1-.84-1,2.92,2.92,0,0,1,0-2.58,2.21,2.21,0,0,1,.84-.95,2.34,2.34,0,0,1,1.29-.36,2.33,2.33,0,0,1,2.13,1.31,3,3,0,0,1,0,2.58,2.39,2.39,0,0,1-.85,1,2.36,2.36,0,0,1-1.28.35A2.42,2.42,0,0,1,421.35,151.49Zm2.13-.65a1.58,1.58,0,0,0,.54-.68,2.36,2.36,0,0,0,.18-.92,2.31,2.31,0,0,0-.18-.91,1.61,1.61,0,0,0-.54-.69,1.49,1.49,0,0,0-1.68,0,1.61,1.61,0,0,0-.54.69,2.15,2.15,0,0,0-.19.91,2.2,2.2,0,0,0,.19.92,1.58,1.58,0,0,0,.54.68,1.49,1.49,0,0,0,1.68,0Z"/>
      <path class="cls-3" d="M426.45,151.44a1.83,1.83,0,0,1-.63-1l.69-.37a1.71,1.71,0,0,0,.43.74,1.08,1.08,0,0,0,.76.26.77.77,0,0,0,.58-.2.7.7,0,0,0,.22-.56.63.63,0,0,0-.27-.52,4.18,4.18,0,0,0-.82-.4,2.44,2.44,0,0,1-.93-.55,1.22,1.22,0,0,1-.32-.88,1.26,1.26,0,0,1,.41-1,1.53,1.53,0,0,1,1.06-.38,1.62,1.62,0,0,1,1.46.79l-.54.48a1.07,1.07,0,0,0-.93-.53.7.7,0,0,0-.47.17.55.55,0,0,0-.19.44.56.56,0,0,0,.25.47,3.56,3.56,0,0,0,.87.41q1.23.45,1.23,1.44a1.45,1.45,0,0,1-.44,1.12,1.61,1.61,0,0,1-1.17.41A1.88,1.88,0,0,1,426.45,151.44Z"/>
      <path class="cls-3" d="M430.69,151.44a1.83,1.83,0,0,1-.63-1l.69-.37a1.54,1.54,0,0,0,.44.74,1,1,0,0,0,.75.26.77.77,0,0,0,.58-.2.7.7,0,0,0,.22-.56.63.63,0,0,0-.27-.52,4.18,4.18,0,0,0-.82-.4,2.32,2.32,0,0,1-.92-.55,1.18,1.18,0,0,1-.33-.88,1.26,1.26,0,0,1,.41-1,1.53,1.53,0,0,1,1.06-.38,1.62,1.62,0,0,1,1.46.79l-.54.48a1.07,1.07,0,0,0-.93-.53.7.7,0,0,0-.47.17.55.55,0,0,0-.19.44.58.58,0,0,0,.24.47,3.89,3.89,0,0,0,.88.41q1.23.45,1.23,1.44a1.45,1.45,0,0,1-.44,1.12,1.61,1.61,0,0,1-1.17.41A1.88,1.88,0,0,1,430.69,151.44Z"/>
      <path class="cls-3" d="M434.71,145.7a.6.6,0,0,1,.43-1,.6.6,0,0,1,.43.17.58.58,0,0,1,.18.43.55.55,0,0,1-.18.43.56.56,0,0,1-.43.17A.61.61,0,0,1,434.71,145.7Zm0,1h.83v5h-.83Z"/>
      <path class="cls-3" d="M438.48,151.63a1.55,1.55,0,0,1-.59-.48v.61h-.83v-7.08h.83v2.67a1.9,1.9,0,0,1,.64-.51,1.85,1.85,0,0,1,.83-.2,2.14,2.14,0,0,1,1.23.34,2,2,0,0,1,.77.92,3.37,3.37,0,0,1,.26,1.34,3.34,3.34,0,0,1-.26,1.34,2.07,2.07,0,0,1-.77.93,2.22,2.22,0,0,1-1.23.33A1.93,1.93,0,0,1,438.48,151.63Zm1.88-1a2.13,2.13,0,0,0,.4-1.35,2.1,2.1,0,0,0-.4-1.34,1.27,1.27,0,0,0-1.08-.52,1.29,1.29,0,0,0-1.08.52,2.15,2.15,0,0,0-.39,1.34,2.18,2.18,0,0,0,.39,1.35,1.4,1.4,0,0,0,2.16,0Z"/>
      <path class="cls-3" d="M442.83,144.68h.83v7.08h-.83Z"/>
      <path class="cls-3" d="M449.42,149.37h-3.71a2,2,0,0,0,.42,1.25,1.29,1.29,0,0,0,1.06.48,1.4,1.4,0,0,0,.85-.23,1.88,1.88,0,0,0,.59-.75l.7.3a2.5,2.5,0,0,1-.88,1.08,2.24,2.24,0,0,1-1.28.34,2.19,2.19,0,0,1-1.23-.35,2.39,2.39,0,0,1-.8-1,3.12,3.12,0,0,1-.27-1.3,3.09,3.09,0,0,1,.27-1.3,2.32,2.32,0,0,1,.8-.95,2.19,2.19,0,0,1,1.23-.35,2.24,2.24,0,0,1,1.2.32,2.15,2.15,0,0,1,.78.86,2.65,2.65,0,0,1,.27,1.2Zm-.84-.71a1.58,1.58,0,0,0-.45-.93,1.33,1.33,0,0,0-1-.35,1.32,1.32,0,0,0-.9.33,1.72,1.72,0,0,0-.51.95Z"/>
      <path class="cls-3" d="M451.09,149.42a1.14,1.14,0,0,1-.37-.91,1.17,1.17,0,0,1,.27-.79,2.86,2.86,0,0,1,.85-.6,4.88,4.88,0,0,0,.68-.36.85.85,0,0,0,.29-.27.59.59,0,0,0,.09-.34.66.66,0,0,0-.24-.55,1,1,0,0,0-.64-.19,1,1,0,0,0-1,.91l-.78-.14a1.82,1.82,0,0,1,.6-1.09,1.89,1.89,0,0,1,1.26-.41,1.72,1.72,0,0,1,1.19.41,1.32,1.32,0,0,1,.46,1,1.14,1.14,0,0,1-.29.8,3.37,3.37,0,0,1-1,.64,3.77,3.77,0,0,0-.77.48.64.64,0,0,0-.19.47.52.52,0,0,0,.14.38.51.51,0,0,0,.38.14.67.67,0,0,0,.45-.14,1,1,0,0,0,.27-.45l.62.23a1.52,1.52,0,0,1-.48.79,1.48,1.48,0,0,1-1.76-.06Zm.47,2.19a.61.61,0,0,1-.18-.45.63.63,0,0,1,.18-.46.65.65,0,0,1,.92,0,.63.63,0,0,1,.18.46.61.61,0,0,1-.18.45.68.68,0,0,1-.92,0Z"/>
    </g>
    <path class="cls-4" d="M390.42,624.21h93.15V593.76a14.45,14.45,0,0,0-14.44-14.44H390.42A14.44,14.44,0,0,0,376,593.76v16A14.43,14.43,0,0,0,390.42,624.21Z"/>
    <g>
      <path class="cls-3" d="M395.93,594.66h-2.05v-.81h5v.81h-2v6.19h-.86Z"/>
      <path class="cls-3" d="M400.7,593.77v3.05a1.83,1.83,0,0,1,.72-.81,1.9,1.9,0,0,1,1-.28,1.58,1.58,0,0,1,1.15.41,1.62,1.62,0,0,1,.42,1.2v3.51h-.82v-3.31a1.19,1.19,0,0,0-.24-.8.91.91,0,0,0-.71-.27,1.25,1.25,0,0,0-.76.26,1.79,1.79,0,0,0-.56.78,3.14,3.14,0,0,0-.21,1.2v2.14h-.83v-7.08Z"/>
      <path class="cls-3" d="M405.52,600.54a1.39,1.39,0,0,1-.44-1.14,1.42,1.42,0,0,1,.59-1.23,2.8,2.8,0,0,1,1.64-.42h.88v-.22a1,1,0,0,0-.3-.81,1.13,1.13,0,0,0-.77-.25,1.06,1.06,0,0,0-1.1.82l-.74-.17a1.48,1.48,0,0,1,.61-1,2,2,0,0,1,1.23-.38,1.92,1.92,0,0,1,1.37.49,1.87,1.87,0,0,1,.52,1.4v3.23h-.65l-.15-.73a1.74,1.74,0,0,1-1.57.81A1.61,1.61,0,0,1,405.52,600.54Zm1.93-.52a1.26,1.26,0,0,0,.53-.52,1.69,1.69,0,0,0,.21-.88v-.16h-.85a1.85,1.85,0,0,0-1,.24.87.87,0,0,0-.13,1.28.89.89,0,0,0,.63.21A1.47,1.47,0,0,0,407.45,600Z"/>
      <path class="cls-3" d="M411.22,595.81v1a2.1,2.1,0,0,1,.71-.77,1.76,1.76,0,0,1,1-.28,1.53,1.53,0,0,1,1.13.42,1.61,1.61,0,0,1,.42,1.19v3.51h-.82v-3.33a1.15,1.15,0,0,0-.24-.79.9.9,0,0,0-.69-.26,1.15,1.15,0,0,0-.75.27,1.85,1.85,0,0,0-.53.77,3.34,3.34,0,0,0-.19,1.19v2.15h-.83v-5Z"/>
      <path class="cls-3" d="M415.94,593.77h.83V598l2-2.15h1l-2.13,2.31,2.29,2.73h-1l-2.11-2.56v2.56h-.83Z"/>
      <path class="cls-3" d="M420.86,600.53a1.87,1.87,0,0,1-.63-1l.69-.37a1.61,1.61,0,0,0,.43.74,1.09,1.09,0,0,0,.76.26.83.83,0,0,0,.58-.2.74.74,0,0,0,.22-.56.63.63,0,0,0-.28-.52,3.37,3.37,0,0,0-.81-.4,2.57,2.57,0,0,1-.93-.55,1.18,1.18,0,0,1-.32-.88,1.25,1.25,0,0,1,.41-1,1.52,1.52,0,0,1,1.06-.37,1.61,1.61,0,0,1,1.46.79L423,597a1.07,1.07,0,0,0-.93-.53.67.67,0,0,0-.47.16.55.55,0,0,0-.19.45.55.55,0,0,0,.24.46,3.27,3.27,0,0,0,.88.42q1.23.45,1.23,1.44a1.47,1.47,0,0,1-.44,1.12,1.69,1.69,0,0,1-1.17.41A1.86,1.86,0,0,1,420.86,600.53Z"/>
      <path class="cls-3" d="M425.2,600.7a.61.61,0,0,1-.18-.45.66.66,0,0,1,.18-.47.62.62,0,0,1,.46-.18.61.61,0,0,1,.45.18.67.67,0,0,1,.19.47.62.62,0,0,1-.19.45.61.61,0,0,1-.45.18A.62.62,0,0,1,425.2,600.7Zm-.09-6.85h1.1l-.24,5h-.62Z"/>
      <path class="cls-3" d="M431.78,600.52a3,3,0,0,1-1.16-1.21,4.59,4.59,0,0,1,0-3.92,3,3,0,0,1,1.16-1.22,3.12,3.12,0,0,1,1.56-.4,2.83,2.83,0,0,1,1.75.54,2.77,2.77,0,0,1,1,1.5l-.82.22a2.08,2.08,0,0,0-.69-1.07,1.91,1.91,0,0,0-1.22-.38,2.18,2.18,0,0,0-1.17.32,2.13,2.13,0,0,0-.8.94,4.08,4.08,0,0,0,0,3,2.13,2.13,0,0,0,.8.94,2.18,2.18,0,0,0,1.17.32,1.91,1.91,0,0,0,1.22-.38,2.08,2.08,0,0,0,.69-1.07l.82.22a2.77,2.77,0,0,1-1,1.5,2.83,2.83,0,0,1-1.75.54A3.13,3.13,0,0,1,431.78,600.52Z"/>
      <path class="cls-3" d="M438.14,600.57a2.3,2.3,0,0,1-.85-1,3,3,0,0,1,0-2.58,2.44,2.44,0,0,1,3.42-1,2.44,2.44,0,0,1,.84,1,2.92,2.92,0,0,1,0,2.58,2.35,2.35,0,0,1-.84,1,2.47,2.47,0,0,1-2.57,0Zm2.13-.64a1.55,1.55,0,0,0,.54-.69,2.39,2.39,0,0,0,0-1.82,1.55,1.55,0,0,0-.54-.69,1.5,1.5,0,0,0-1.69,0,1.55,1.55,0,0,0-.54.69,2.27,2.27,0,0,0,0,1.82,1.55,1.55,0,0,0,.54.69,1.5,1.5,0,0,0,1.69,0Z"/>
      <path class="cls-3" d="M443.89,595.81v1a2.1,2.1,0,0,1,.71-.77,1.76,1.76,0,0,1,1-.28,1.53,1.53,0,0,1,1.13.42,1.61,1.61,0,0,1,.41,1.19v3.51h-.81v-3.33a1.15,1.15,0,0,0-.24-.79.91.91,0,0,0-.7-.26,1.15,1.15,0,0,0-.74.27,1.85,1.85,0,0,0-.53.77,3.34,3.34,0,0,0-.19,1.19v2.15h-.83v-5Z"/>
      <path class="cls-3" d="M449.13,600.52a1.64,1.64,0,0,1-.4-1.21v-2.76h-.84v-.74h.84V594.3l.83-.53v2h1.36v.74h-1.36v2.82c0,.55.24.82.71.82a1.18,1.18,0,0,0,.58-.14l.21.7a2,2,0,0,1-.87.18A1.4,1.4,0,0,1,449.13,600.52Z"/>
      <path class="cls-3" d="M452,594.78a.54.54,0,0,1-.18-.42.57.57,0,0,1,.18-.43.63.63,0,0,1,.86,0,.63.63,0,0,1,0,.86.61.61,0,0,1-.43.17A.58.58,0,0,1,452,594.78Zm0,1h.83v5h-.83Z"/>
      <path class="cls-3" d="M455.19,595.81v1a2.22,2.22,0,0,1,.72-.77,1.73,1.73,0,0,1,.95-.28,1.5,1.5,0,0,1,1.13.42,1.61,1.61,0,0,1,.42,1.19v3.51h-.81v-3.33a1.15,1.15,0,0,0-.24-.79.91.91,0,0,0-.7-.26,1.15,1.15,0,0,0-.74.27,1.85,1.85,0,0,0-.53.77,3.33,3.33,0,0,0-.2,1.19v2.15h-.83v-5Z"/>
      <path class="cls-3" d="M460.33,600.51a1.66,1.66,0,0,1-.42-1.19v-3.51h.83v3.33a1.1,1.1,0,0,0,.24.78.85.85,0,0,0,.68.27,1.15,1.15,0,0,0,.75-.27,1.76,1.76,0,0,0,.54-.78,3.34,3.34,0,0,0,.19-1.19v-2.14H464v5h-.82v-1a2,2,0,0,1-.71.76,1.78,1.78,0,0,1-1,.29A1.53,1.53,0,0,1,460.33,600.51Z"/>
      <path class="cls-3" d="M469.73,598.46H466a2,2,0,0,0,.42,1.25,1.27,1.27,0,0,0,1.05.48,1.51,1.51,0,0,0,.86-.23,2.07,2.07,0,0,0,.59-.75l.7.3a2.79,2.79,0,0,1-.88,1.08,2.24,2.24,0,0,1-1.28.34,2.13,2.13,0,0,1-1.24-.36,2.24,2.24,0,0,1-.79-1,3,3,0,0,1-.27-1.29,3.17,3.17,0,0,1,.27-1.31,2.27,2.27,0,0,1,.79-.94,2.2,2.2,0,0,1,1.24-.35,2.24,2.24,0,0,1,1.2.32,2.16,2.16,0,0,1,.78.86,2.65,2.65,0,0,1,.27,1.2Zm-.84-.71a1.67,1.67,0,0,0-.45-.94,1.34,1.34,0,0,0-1-.34,1.36,1.36,0,0,0-.91.33,1.72,1.72,0,0,0-.51,1Z"/>
      <path class="cls-3" d="M393.73,605.81h.85l1.08,3.93,1-3.93h.79l1,3.93,1.09-3.93h.85l-1.55,5h-.78l-1-3.84-1,3.84h-.79Z"/>
      <path class="cls-3" d="M401.24,604.78a.54.54,0,0,1-.17-.42.56.56,0,0,1,.17-.43.63.63,0,0,1,.86,0,.6.6,0,0,1,0,.86.61.61,0,0,1-.43.17A.58.58,0,0,1,401.24,604.78Zm0,1h.83v5h-.83Z"/>
      <path class="cls-3" d="M404.19,610.52a1.68,1.68,0,0,1-.39-1.21v-2.76H403v-.74h.85V604.3l.83-.53v2H406v.74h-1.35v2.82c0,.55.23.82.7.82a1.18,1.18,0,0,0,.58-.14l.21.7a1.91,1.91,0,0,1-.86.18A1.41,1.41,0,0,1,404.19,610.52Z"/>
      <path class="cls-3" d="M407.83,603.77v3.05a1.83,1.83,0,0,1,.72-.81,1.9,1.9,0,0,1,1-.28,1.58,1.58,0,0,1,1.15.41,1.62,1.62,0,0,1,.42,1.2v3.51h-.82v-3.31a1.19,1.19,0,0,0-.24-.8.91.91,0,0,0-.71-.27,1.25,1.25,0,0,0-.76.26,1.79,1.79,0,0,0-.56.78,3.14,3.14,0,0,0-.21,1.2v2.14H407v-7.08Z"/>
      <path class="cls-3" d="M418,605.81h.84l-2.53,7.08h-.81l.77-2.18-1.81-4.9h.85l1.37,3.73Z"/>
      <path class="cls-3" d="M420.44,610.57a2.3,2.3,0,0,1-.85-1,3,3,0,0,1,0-2.58,2.44,2.44,0,0,1,3.42-1,2.44,2.44,0,0,1,.84,1,2.92,2.92,0,0,1,0,2.58,2.35,2.35,0,0,1-.84,1,2.47,2.47,0,0,1-2.57,0Zm2.13-.64a1.55,1.55,0,0,0,.54-.69,2.39,2.39,0,0,0,0-1.82,1.55,1.55,0,0,0-.54-.69,1.5,1.5,0,0,0-1.69,0,1.55,1.55,0,0,0-.54.69,2.39,2.39,0,0,0,0,1.82,1.55,1.55,0,0,0,.54.69,1.5,1.5,0,0,0,1.69,0Z"/>
      <path class="cls-3" d="M425.78,610.51a1.61,1.61,0,0,1-.42-1.19v-3.51h.83v3.33a1.1,1.1,0,0,0,.23.78.87.87,0,0,0,.69.27,1.19,1.19,0,0,0,.75-.27,1.83,1.83,0,0,0,.53-.78,3.33,3.33,0,0,0,.2-1.19v-2.14h.82v5h-.82v-1a2,2,0,0,1-.72.76,1.77,1.77,0,0,1-1,.29A1.52,1.52,0,0,1,425.78,610.51Z"/>
      <path class="cls-3" d="M431.74,605.81v.87a1.8,1.8,0,0,1,.62-.71,1.57,1.57,0,0,1,.86-.24,2,2,0,0,1,.71.15l-.17.77a1.4,1.4,0,0,0-.65-.17,1.14,1.14,0,0,0-1,.63,3.53,3.53,0,0,0-.38,1.84v1.9h-.83v-5Z"/>
      <path class="cls-3" d="M436.72,605.81h.84l1.08,3.93,1-3.93h.8l1,3.93,1.09-3.93h.84l-1.55,5H441L440,607l-1,3.84h-.79Z"/>
      <path class="cls-3" d="M445,610.57a2.3,2.3,0,0,1-.85-1,3,3,0,0,1,0-2.58,2.44,2.44,0,0,1,3.42-1,2.44,2.44,0,0,1,.84,1,2.92,2.92,0,0,1,0,2.58,2.35,2.35,0,0,1-.84,1,2.47,2.47,0,0,1-2.57,0Zm2.13-.64a1.55,1.55,0,0,0,.54-.69,2.39,2.39,0,0,0,0-1.82,1.55,1.55,0,0,0-.54-.69,1.5,1.5,0,0,0-1.69,0,1.55,1.55,0,0,0-.54.69,2.39,2.39,0,0,0,0,1.82,1.55,1.55,0,0,0,.54.69,1.5,1.5,0,0,0,1.69,0Z"/>
      <path class="cls-3" d="M450.78,605.81v.87a1.8,1.8,0,0,1,.62-.71,1.57,1.57,0,0,1,.86-.24,2,2,0,0,1,.71.15l-.17.77a1.4,1.4,0,0,0-.65-.17,1.14,1.14,0,0,0-1,.63,3.53,3.53,0,0,0-.38,1.84v1.9H450v-5Z"/>
      <path class="cls-3" d="M453.81,603.77h.83V608l1.95-2.15h1l-2.13,2.31,2.29,2.73h-1l-2.11-2.56v2.56h-.83Z"/>
      <path class="cls-3" d="M458.65,610.71a.6.6,0,0,1-.17-.44.6.6,0,0,1,.17-.45.65.65,0,0,1,.88,0,.61.61,0,0,1,.18.45.6.6,0,0,1-.18.44.65.65,0,0,1-.88,0Z"/>
    </g>
    <g>
      <circle class="cls-5" cx="214.25" cy="150.6" r="49.5"/>
      <path d="M214.25,101.61a49,49,0,1,1-49,49,49.05,49.05,0,0,1,49-49m0-1a50,50,0,1,0,50,50,50,50,0,0,0-50-50Z"/>
    </g>
    <g class="cls-6">
      <g>
        <g>
          <path class="cls-7" d="M247.11,181.93,252,196.19a4.33,4.33,0,0,1-4.1,5.73H176.22a4.32,4.32,0,0,1-4.09-5.73L176,184.85a21.33,21.33,0,0,1,20.18-14.42h29.66a29.35,29.35,0,0,1,13.62,4.06C244.92,178,246,178.89,247.11,181.93Z"/>
          <path class="cls-8" d="M247.9,202.42H176.22a4.83,4.83,0,0,1-4.57-6.39l3.89-11.34a21.82,21.82,0,0,1,20.65-14.76h29.66a29.88,29.88,0,0,1,13.89,4.14c5.35,3.49,6.66,4.44,7.84,7.68h0L252.47,196a4.83,4.83,0,0,1-4.57,6.39Zm-51.71-31.49A20.84,20.84,0,0,0,176.48,185l-3.88,11.34a3.83,3.83,0,0,0,3.62,5.07H247.9a3.82,3.82,0,0,0,3.62-5.07l-4.88-14.26c-1-2.84-2-3.62-7.44-7.18a28.78,28.78,0,0,0-13.35-4Z"/>
        </g>
        <g>
          <path class="cls-9" d="M203.73,158.38l-.3,10.09c-.12,4.94.52,8.61,5.45,8.61h5.76c1.33,0,7.56.66,8.06-2.3.67-3.95,0-8.75.29-10.45"/>
          <path class="cls-8" d="M217,177.64c-.64,0-1.22,0-1.67,0-.27,0-.5,0-.65,0h-5.76a5.6,5.6,0,0,1-4.2-1.48c-1.66-1.71-1.82-4.68-1.75-7.64l.3-10.1,1,0-.3,10.1c-.07,2.74.07,5.47,1.47,6.91a4.62,4.62,0,0,0,3.48,1.18h5.76l.69,0c1.78.07,6.51.27,6.88-1.9a36.89,36.89,0,0,0,.24-7.07,20.62,20.62,0,0,1,.05-3.39l1,.18a20.86,20.86,0,0,0,0,3.18,37.43,37.43,0,0,1-.26,7.26C222.79,177.28,219.43,177.64,217,177.64Z"/>
        </g>
        <g>
          <path class="cls-8" d="M187,131.37c0-3.4,3.06-6.06,4.73-9s2.24-6.77,5-8.81c2.59-1.87,6.61-1.35,9.94-2.36,3.06-.93,6.06-3.66,9.53-3.66s6.46,2.73,9.53,3.66c3.32,1,7.34.49,9.93,2.36,2.81,2,3.44,6,5.05,8.81s4.74,5.56,4.74,9c0,1.78-1.29,6.38-2.19,11.53-.62,3.52-.22,8.24-3.51,11.24-2.4,2.19-6.8,2.06-11.48,3.19-3.23.77-6.81,3.47-11.41,3.47s-8.35-2.69-11.66-3.44c-4.77-1.09-9.24-.88-11.77-3-3.51-3-3.32-7.74-4.06-11.27C188.31,137.89,187,133.24,187,131.37Z"/>
          <path class="cls-8" d="M216.89,161.3a20.44,20.44,0,0,1-8.07-2.12,24.32,24.32,0,0,0-3.7-1.34c-1.53-.35-3-.56-4.46-.76-3.06-.44-5.71-.82-7.52-2.35-2.89-2.44-3.4-6-3.84-9.13-.12-.86-.23-1.67-.39-2.42-.39-1.84-.8-3.62-1.18-5.22a39,39,0,0,1-1.25-6.59c0-2.54,1.55-4.63,3.05-6.66a27.56,27.56,0,0,0,1.74-2.55,22.7,22.7,0,0,0,1.36-3c.9-2.23,1.84-4.54,3.84-6,1.69-1.23,4-1.5,6.14-1.75a22.07,22.07,0,0,0,3.94-.69A19.81,19.81,0,0,0,210,109.2c2-1,4-2.12,6.25-2.12s4.29,1.07,6.24,2.12a19.81,19.81,0,0,0,3.43,1.56,22.07,22.07,0,0,0,3.94.69c2.19.25,4.45.52,6.15,1.75,2,1.45,2.93,3.76,3.83,6a24.09,24.09,0,0,0,1.36,3,28.1,28.1,0,0,0,1.74,2.54c1.5,2,3.06,4.13,3.06,6.67a34.74,34.74,0,0,1-1,5.51c-.39,1.83-.84,3.91-1.23,6.1-.14.79-.22,1.63-.31,2.52-.31,3.08-.67,6.56-3.35,9-1.76,1.6-4.41,2-7.47,2.51-1.37.22-2.78.45-4.23.79a22.75,22.75,0,0,0-3.57,1.34A19.54,19.54,0,0,1,216.89,161.3Zm-.66-53.22c-2,0-3.93,1-5.78,2a20.74,20.74,0,0,1-3.61,1.64,23.73,23.73,0,0,1-4.11.72c-2.16.25-4.19.49-5.68,1.57-1.76,1.28-2.64,3.45-3.49,5.55a25,25,0,0,1-1.42,3.1,28.61,28.61,0,0,1-1.8,2.64c-1.41,1.9-2.86,3.86-2.86,6.07a39.82,39.82,0,0,0,1.22,6.36c.38,1.61.8,3.39,1.19,5.25.16.78.28,1.6.4,2.48.42,3,.89,6.31,3.49,8.51,1.6,1.34,4.11,1.7,7,2.12,1.46.2,3,.42,4.54.78a23.59,23.59,0,0,1,3.87,1.39,19.55,19.55,0,0,0,7.68,2,18.93,18.93,0,0,0,7.56-2.06,23.32,23.32,0,0,1,3.73-1.4c1.49-.36,2.93-.58,4.31-.8,2.91-.47,5.42-.87,7-2.27,2.4-2.19,2.71-5.33,3-8.37.1-.91.18-1.77.33-2.59.38-2.21.84-4.3,1.24-6.14a35.7,35.7,0,0,0,.94-5.3c0-2.21-1.46-4.17-2.86-6.07a28.11,28.11,0,0,1-1.81-2.64,25,25,0,0,1-1.42-3.1c-.85-2.1-1.73-4.27-3.49-5.55-1.49-1.08-3.52-1.32-5.67-1.57a23.68,23.68,0,0,1-4.12-.72,21.51,21.51,0,0,1-3.61-1.64C220.15,109.09,218.24,108.08,216.23,108.08Z"/>
        </g>
        <g>
          <path class="cls-9" d="M197,147c5,21.93,13.68,21.15,18.18,21.29.8,0,12,3.52,17.94-20.6,4.25-17.35-3.5-29.26-15.11-29.26S192.81,128.59,197,147Z"/>
          <path class="cls-8" d="M217.09,169a10.69,10.69,0,0,1-1.76-.15l-.2,0h-.59c-4.62-.1-13.22-.29-18-21.67-2.3-10.17.87-16.89,3.95-20.73A23,23,0,0,1,218,117.92a15.39,15.39,0,0,1,12.36,6c4.4,5.61,5.58,14.31,3.23,23.88C229.21,165.59,222,169,217.09,169Zm.89-50A22,22,0,0,0,201.22,127c-2.94,3.68-6,10.11-3.76,19.89h0c4.67,20.61,12.45,20.79,17.1,20.89h.6l.33.05c4.36.72,12.38-1,17.11-20.27,2.27-9.27,1.16-17.66-3-23A14.45,14.45,0,0,0,218,118.92Z"/>
        </g>
        <g>
          <ellipse class="cls-8" cx="212.48" cy="121.79" rx="18.24" ry="8.03" transform="translate(-28.66 78.97) rotate(-19.75)"/>
          <path class="cls-8" d="M203.75,132.06c-4.36,0-7.65-1.21-8.76-3.59h0a4.74,4.74,0,0,1,.06-3.9c1.54-3.8,7-7.94,13.84-10.55,9.8-3.72,19.05-3.24,21.08,1.09a4.74,4.74,0,0,1-.06,3.9c-1.54,3.8-7,7.95-13.83,10.55A35.77,35.77,0,0,1,203.75,132.06Zm17.48-19.5a34.9,34.9,0,0,0-12,2.4c-6.62,2.51-11.82,6.43-13.26,10a3.74,3.74,0,0,0-.08,3.1h0c1.74,3.73,10.82,4,19.82.58,6.62-2.52,11.83-6.44,13.27-10a3.78,3.78,0,0,0,.07-3.1C228.14,113.56,225.16,112.56,221.23,112.56Z"/>
        </g>
        <g>
          <path class="cls-8" d="M204.9,141.14l-.7-.71a6.49,6.49,0,0,1,5.41-1.55c1.69.22,3.18.9,3.63,1.65l-.86.51a4.75,4.75,0,0,0-2.89-1.17A5.53,5.53,0,0,0,204.9,141.14Z"/>
          <circle class="cls-8" cx="208.6" cy="141.35" r="2.04"/>
        </g>
        <g>
          <path class="cls-8" d="M222,141.14l-.7-.71a6.45,6.45,0,0,1,5.41-1.55c1.68.22,3.17.9,3.62,1.65l-.86.51a4.72,4.72,0,0,0-2.89-1.17A5.51,5.51,0,0,0,222,141.14Z"/>
          <circle class="cls-8" cx="225.69" cy="141.35" r="2.04"/>
        </g>
        <g>
          <path class="cls-8" d="M195,130.57c3.64,8.86,40.57,2.52,39.82-13.29"/>
          <path class="cls-8" d="M205.86,135.09c-5.46,0-10-1.28-11.29-4.33l.92-.38C197,134,205.38,135.17,215,133c9.18-2,19.75-7.38,19.35-15.74l1,0c.43,9-10.58,14.64-20.13,16.76A43.53,43.53,0,0,1,205.86,135.09Z"/>
        </g>
        <g>
          <path class="cls-8" d="M234,120.53c-7.59,1.1-4.36,20.89,8.86,21.91"/>
          <path class="cls-8" d="M242.81,142.94c-8.87-.68-13.14-9.39-13.34-15.35-.14-4.24,1.56-7.14,4.45-7.56l.14,1c-2.79.41-3.69,3.64-3.59,6.53.19,5.59,4.17,13.76,12.42,14.39Z"/>
        </g>
        <path class="cls-8" d="M215.57,150.66l-.29-1c.32-.09.73-.19,1.21-.29s.95-.29,1.07-.5-.12-1.13-.5-2.12l-.07-.19a9,9,0,0,1-.74-5.4c.06-.48.13-1,.16-1.62l1,0c0,.67-.11,1.22-.17,1.7a8.08,8.08,0,0,0,.69,4.91l.07.19c.49,1.28.85,2.2.43,3a2.36,2.36,0,0,1-1.74,1C216.25,150.48,215.86,150.57,215.57,150.66Z"/>
        <path class="cls-8" d="M213.6,160.76a6.33,6.33,0,0,1-3.86-1l.61-.79c1.58,1.22,4.81.74,6.55.49l.79-.11.11,1-.76.1A23.91,23.91,0,0,1,213.6,160.76Z"/>
        <g>
          <path class="cls-9" d="M193,137.53c-3.67-.83-3.49-7.24-1.39-8.93a3.18,3.18,0,0,1,2.94-.54l-.59,1.11a10.84,10.84,0,0,0-1.2,6.47Z"/>
          <path class="cls-8" d="M193.59,138.18l-.7-.16a4.22,4.22,0,0,1-3.08-3.49c-.55-2.38.12-5.21,1.49-6.32a3.63,3.63,0,0,1,3.39-.64l.6.17-.89,1.66a10.37,10.37,0,0,0-1.14,6.18Zm-.05-9.77a2.53,2.53,0,0,0-1.61.58c-1.09.87-1.61,3.31-1.15,5.32a3.74,3.74,0,0,0,1.62,2.46l-.13-1.06a11.32,11.32,0,0,1,1.25-6.78l.27-.51Z"/>
        </g>
      </g>
    </g>
    <path d="M208.62,135.82a5.43,5.43,0,1,1-5.43,5.43,5.44,5.44,0,0,1,5.43-5.43m0-1a6.43,6.43,0,1,0,6.43,6.43,6.43,6.43,0,0,0-6.43-6.43Z"/>
    <path d="M225.19,135.82a5.43,5.43,0,1,1-5.43,5.43,5.44,5.44,0,0,1,5.43-5.43m0-1a6.43,6.43,0,1,0,6.43,6.43,6.43,6.43,0,0,0-6.43-6.43Z"/>
    <path d="M219.15,142.35a.51.51,0,0,1-.5-.5,1.74,1.74,0,1,0-3.48,0,.51.51,0,0,1-.5.5.5.5,0,0,1-.5-.5,2.74,2.74,0,1,1,5.48,0A.5.5,0,0,1,219.15,142.35Z"/>
    <path d="M231.13,139.38a.57.57,0,0,1-.28-.08.5.5,0,0,1-.13-.7l1.31-1.94a.5.5,0,0,1,.83.56l-1.32,1.94A.49.49,0,0,1,231.13,139.38Z"/>
    <path d="M202.81,138.92a.52.52,0,0,1-.17,0l-6.1-2.15a.51.51,0,0,1-.31-.64.49.49,0,0,1,.64-.3L203,138a.5.5,0,0,1,.3.64A.48.48,0,0,1,202.81,138.92Z"/>
    <path d="M214.25,101.61a49,49,0,1,1-49,49,49.05,49.05,0,0,1,49-49m0-1a50,50,0,1,0,50,50,50,50,0,0,0-50-50Z"/>
    <g>
      <path class="cls-8" d="M195,130.57c3.64,8.86,40.57,2.52,39.82-13.29"/>
      <path class="cls-8" d="M205.86,135.09c-5.46,0-10-1.28-11.29-4.33l.92-.38C197,134,205.38,135.17,215,133c9.18-2,19.75-7.38,19.35-15.74l1,0c.43,9-10.58,14.64-20.13,16.76A43.53,43.53,0,0,1,205.86,135.09Z"/>
    </g>
    <g>
      <path class="cls-3" d="M156.77,118.68a9.35,9.35,0,0,0-18.26-2.8l-.43,0a9.34,9.34,0,1,0,3,18.18,9.32,9.32,0,0,0,14.64-11.1A9.25,9.25,0,0,0,156.77,118.68Z"/>
      <path class="cls-4" d="M147.43,137A9.8,9.8,0,0,1,141,134.6a9.52,9.52,0,0,1-2.89.44,9.84,9.84,0,0,1,0-19.68h.08a9.84,9.84,0,0,1,19.11,3.32,9.67,9.67,0,0,1-1,4.26,9.66,9.66,0,0,1,1,4.25A9.85,9.85,0,0,1,147.43,137Zm-6.22-3.56.22.2a8.83,8.83,0,0,0,14.84-6.48,8.68,8.68,0,0,0-1-4l-.12-.23.12-.23a8.75,8.75,0,0,0,1-4A8.84,8.84,0,0,0,139,116l-.12.37-.54,0h-.25a8.84,8.84,0,0,0,0,17.68,9,9,0,0,0,2.85-.47Z"/>
    </g>
    <g>
      <path class="cls-4" d="M63.7,68.28h.87v7H63.7Z"/>
      <path class="cls-4" d="M69.42,75a2.05,2.05,0,0,1-.76-.93,3.58,3.58,0,0,1,0-2.68,2,2,0,0,1,.76-.92,2.22,2.22,0,0,1,2.08-.15,1.81,1.81,0,0,1,.64.52V68.2H73v7.08h-.82v-.66a1.52,1.52,0,0,1-.61.52,1.87,1.87,0,0,1-.9.22A2.12,2.12,0,0,1,69.42,75Zm2.4-.92a2.51,2.51,0,0,0,0-2.69,1.27,1.27,0,0,0-1.08-.52,1.28,1.28,0,0,0-1.09.52,2.15,2.15,0,0,0-.39,1.34,2.18,2.18,0,0,0,.39,1.35,1.3,1.3,0,0,0,1.09.51A1.28,1.28,0,0,0,71.82,74.11Z"/>
      <path class="cls-4" d="M75.31,75a2.39,2.39,0,0,1-.85-1,3,3,0,0,1,0-2.58,2.42,2.42,0,0,1,3.42-1,2.35,2.35,0,0,1,.84,1,2.92,2.92,0,0,1,0,2.58,2.44,2.44,0,0,1-.84,1,2.53,2.53,0,0,1-2.57,0Zm2.13-.65a1.58,1.58,0,0,0,.54-.68,2.36,2.36,0,0,0,.18-.92,2.31,2.31,0,0,0-.18-.91,1.61,1.61,0,0,0-.54-.69,1.5,1.5,0,0,0-1.69,0,1.61,1.61,0,0,0-.54.69,2.31,2.31,0,0,0-.18.91,2.36,2.36,0,0,0,.18.92,1.58,1.58,0,0,0,.54.68,1.5,1.5,0,0,0,1.69,0Z"/>
      <path class="cls-4" d="M81.06,70.24v1a2.08,2.08,0,0,1,.71-.76,1.77,1.77,0,0,1,1-.29,1.53,1.53,0,0,1,1.13.42,1.61,1.61,0,0,1,.42,1.19v3.51h-.82V72a1.12,1.12,0,0,0-.24-.78.87.87,0,0,0-.69-.27,1.15,1.15,0,0,0-.75.27,1.83,1.83,0,0,0-.53.78,3.25,3.25,0,0,0-.19,1.18v2.15h-.83v-5Z"/>
      <path class="cls-4" d="M85.77,68.2h1.17l-1.23,2h-.6Z"/>
      <path class="cls-4" d="M88.62,75a1.7,1.7,0,0,1-.39-1.22V71h-.85v-.74h.85V68.73l.83-.53v2h1.35V71H89.06V73.8c0,.55.23.82.7.82a1.09,1.09,0,0,0,.58-.14l.21.7a1.91,1.91,0,0,1-.86.18A1.4,1.4,0,0,1,88.62,75Z"/>
      <path class="cls-4" d="M93.43,70.24h.85l1.08,3.93,1-3.93h.79l1,3.93,1.09-3.93h.85l-1.55,5h-.78l-1-3.84-1,3.84H95Z"/>
      <path class="cls-4" d="M101,75a1.43,1.43,0,0,1-.44-1.15,1.39,1.39,0,0,1,.59-1.22,2.73,2.73,0,0,1,1.64-.43h.88V72a1,1,0,0,0-.3-.8,1.14,1.14,0,0,0-.77-.26,1.07,1.07,0,0,0-1.1.82l-.74-.17a1.5,1.5,0,0,1,.61-1,2,2,0,0,1,1.23-.38,1.92,1.92,0,0,1,1.37.5,1.85,1.85,0,0,1,.52,1.39v3.23h-.66l-.14-.73a1.74,1.74,0,0,1-1.57.81A1.65,1.65,0,0,1,101,75Zm1.93-.52a1.39,1.39,0,0,0,.53-.52,1.72,1.72,0,0,0,.21-.89v-.16h-.85a1.85,1.85,0,0,0-1,.24.77.77,0,0,0-.35.69.76.76,0,0,0,.22.59.89.89,0,0,0,.63.21A1.46,1.46,0,0,0,103,74.46Z"/>
      <path class="cls-4" d="M106.72,70.24v1a2,2,0,0,1,.71-.76,1.77,1.77,0,0,1,1-.29,1.53,1.53,0,0,1,1.13.42,1.61,1.61,0,0,1,.42,1.19v3.51h-.82V72a1.12,1.12,0,0,0-.24-.78.87.87,0,0,0-.69-.27,1.15,1.15,0,0,0-.75.27,1.83,1.83,0,0,0-.53.78,3.25,3.25,0,0,0-.19,1.18v2.15h-.83v-5Z"/>
      <path class="cls-4" d="M112,75a1.7,1.7,0,0,1-.39-1.22V71h-.85v-.74h.85V68.73l.83-.53v2h1.35V71H112.4V73.8c0,.55.23.82.7.82a1.09,1.09,0,0,0,.58-.14l.21.7a1.91,1.91,0,0,1-.86.18A1.4,1.4,0,0,1,112,75Z"/>
      <path class="cls-4" d="M118,75a1.7,1.7,0,0,1-.39-1.22V71h-.85v-.74h.85V68.73l.83-.53v2h1.35V71h-1.35V73.8c0,.55.23.82.7.82a1.09,1.09,0,0,0,.58-.14l.21.7a1.91,1.91,0,0,1-.86.18A1.4,1.4,0,0,1,118,75Z"/>
      <path class="cls-4" d="M121.52,75a2.39,2.39,0,0,1-.85-1,3,3,0,0,1,0-2.58,2.42,2.42,0,0,1,3.42-1,2.35,2.35,0,0,1,.84,1,2.92,2.92,0,0,1,0,2.58,2.44,2.44,0,0,1-.84,1,2.53,2.53,0,0,1-2.57,0Zm2.13-.65a1.65,1.65,0,0,0,.54-.68,2.36,2.36,0,0,0,.18-.92,2.31,2.31,0,0,0-.18-.91,1.69,1.69,0,0,0-.54-.69,1.5,1.5,0,0,0-1.69,0,1.61,1.61,0,0,0-.54.69,2.32,2.32,0,0,0-.19.91,2.37,2.37,0,0,0,.19.92,1.58,1.58,0,0,0,.54.68,1.5,1.5,0,0,0,1.69,0Z"/>
      <path class="cls-4" d="M60.9,80.36h.83v7.08H60.9Z"/>
      <path class="cls-4" d="M64.08,87.17a2.39,2.39,0,0,1-.85-1,3,3,0,0,1,0-2.58,2.36,2.36,0,0,1,.85-.95,2.47,2.47,0,0,1,2.57,0,2.42,2.42,0,0,1,.84.95,2.92,2.92,0,0,1,0,2.58,2.44,2.44,0,0,1-.84,1,2.53,2.53,0,0,1-2.57,0Zm2.13-.65a1.58,1.58,0,0,0,.54-.68,2.42,2.42,0,0,0,0-1.83,1.67,1.67,0,0,0-.54-.69,1.5,1.5,0,0,0-1.69,0A1.67,1.67,0,0,0,64,84a2.42,2.42,0,0,0,0,1.83,1.58,1.58,0,0,0,.54.68,1.5,1.5,0,0,0,1.69,0Z"/>
      <path class="cls-4" d="M69.18,87.12a1.83,1.83,0,0,1-.63-1l.69-.37a1.61,1.61,0,0,0,.43.74,1,1,0,0,0,.76.26.79.79,0,0,0,.58-.2.74.74,0,0,0,.22-.56A.64.64,0,0,0,71,85.5a3.79,3.79,0,0,0-.81-.4,2.44,2.44,0,0,1-.93-.55,1.18,1.18,0,0,1-.32-.88,1.23,1.23,0,0,1,.41-1,1.53,1.53,0,0,1,1.06-.38,1.63,1.63,0,0,1,1.46.79l-.54.48a1.07,1.07,0,0,0-.93-.53.68.68,0,0,0-.47.17.55.55,0,0,0-.19.44.57.57,0,0,0,.24.47,3.68,3.68,0,0,0,.88.41Q72,85,72,86a1.45,1.45,0,0,1-.44,1.12,1.64,1.64,0,0,1-1.17.41A1.86,1.86,0,0,1,69.18,87.12Z"/>
      <path class="cls-4" d="M77.36,85.05H73.65a2,2,0,0,0,.42,1.25,1.29,1.29,0,0,0,1.06.48,1.42,1.42,0,0,0,.85-.23,2,2,0,0,0,.59-.75l.7.3a2.57,2.57,0,0,1-.88,1.08,2.24,2.24,0,0,1-1.28.34,2.07,2.07,0,0,1-1.23-.35,2.25,2.25,0,0,1-.8-1,3.26,3.26,0,0,1,0-2.6,2.25,2.25,0,0,1,.8-1,2.15,2.15,0,0,1,1.23-.35,2.24,2.24,0,0,1,1.2.32,2.15,2.15,0,0,1,.78.86,2.65,2.65,0,0,1,.27,1.2Zm-.84-.71a1.58,1.58,0,0,0-.45-.93,1.33,1.33,0,0,0-1-.35,1.32,1.32,0,0,0-.9.33,1.6,1.6,0,0,0-.51,1Z"/>
      <path class="cls-4" d="M81.26,87.14A1.43,1.43,0,0,1,80.82,86a1.39,1.39,0,0,1,.59-1.22,2.8,2.8,0,0,1,1.64-.43h.88v-.22a1,1,0,0,0-.3-.8,1.14,1.14,0,0,0-.77-.26,1.07,1.07,0,0,0-1.1.82L81,83.71a1.5,1.5,0,0,1,.61-1,2,2,0,0,1,1.23-.38,1.92,1.92,0,0,1,1.37.5,1.85,1.85,0,0,1,.52,1.39v3.23H84.1L84,86.71a1.74,1.74,0,0,1-1.57.81A1.6,1.6,0,0,1,81.26,87.14Zm1.93-.52a1.32,1.32,0,0,0,.53-.52,1.72,1.72,0,0,0,.21-.89v-.16h-.85a1.85,1.85,0,0,0-1,.24.77.77,0,0,0-.35.69.76.76,0,0,0,.22.59.89.89,0,0,0,.63.21A1.46,1.46,0,0,0,83.19,86.62Z"/>
      <path class="cls-4" d="M86.14,80.36H87v7.08h-.83Z"/>
      <path class="cls-4" d="M88.47,80.36h.83v7.08h-.83Z"/>
      <path class="cls-4" d="M93.9,87.12a1.7,1.7,0,0,1-.38-1.22V83.14h-.86V82.4h.86V80.89l.83-.53v2h1.34v.74H94.35V86c0,.55.23.82.7.82a1,1,0,0,0,.57-.14l.21.7a1.84,1.84,0,0,1-.85.18A1.43,1.43,0,0,1,93.9,87.12Z"/>
      <path class="cls-4" d="M97.55,80.36v3a1.8,1.8,0,0,1,.72-.8,1.9,1.9,0,0,1,1-.29,1.56,1.56,0,0,1,1.16.42,1.6,1.6,0,0,1,.42,1.19v3.51H100V84.13a1.17,1.17,0,0,0-.24-.79.88.88,0,0,0-.71-.28,1.24,1.24,0,0,0-.76.27,1.74,1.74,0,0,0-.55.77,3,3,0,0,0-.21,1.2v2.14h-.83V80.36Z"/>
      <path class="cls-4" d="M106.6,85.05h-3.71a2.1,2.1,0,0,0,.42,1.25,1.3,1.3,0,0,0,1.06.48,1.43,1.43,0,0,0,.86-.23,2,2,0,0,0,.58-.75l.71.3a2.65,2.65,0,0,1-.88,1.08,2.25,2.25,0,0,1-1.29.34,2.12,2.12,0,0,1-1.23-.35,2.3,2.3,0,0,1-.79-1,3.26,3.26,0,0,1,0-2.6,2.3,2.3,0,0,1,.79-1,2.19,2.19,0,0,1,1.23-.35,2.28,2.28,0,0,1,1.21.32,2.31,2.31,0,0,1,.78.86,2.64,2.64,0,0,1,.26,1.2Zm-.83-.71a1.59,1.59,0,0,0-.46-.93,1.32,1.32,0,0,0-1-.35,1.35,1.35,0,0,0-.9.33,1.72,1.72,0,0,0-.51,1Z"/>
      <path class="cls-4" d="M109.71,82.4h.85l1.08,3.93,1-3.93h.8l1,3.93,1.1-3.93h.84l-1.55,5H114l-1-3.84-1,3.84h-.79Z"/>
      <path class="cls-4" d="M118,87.17a2.39,2.39,0,0,1-.85-1,3,3,0,0,1,0-2.58,2.36,2.36,0,0,1,.85-.95,2.47,2.47,0,0,1,2.57,0,2.42,2.42,0,0,1,.84.95,3,3,0,0,1,0,2.58,2.44,2.44,0,0,1-.84,1,2.53,2.53,0,0,1-2.57,0Zm2.13-.65a1.56,1.56,0,0,0,.53-.68,2.3,2.3,0,0,0,0-1.83,1.65,1.65,0,0,0-.53-.69,1.5,1.5,0,0,0-1.69,0,1.67,1.67,0,0,0-.54.69,2.3,2.3,0,0,0,0,1.83,1.58,1.58,0,0,0,.54.68,1.5,1.5,0,0,0,1.69,0Z"/>
      <path class="cls-4" d="M123.77,82.4v.87a1.93,1.93,0,0,1,.62-.7,1.64,1.64,0,0,1,.87-.25,2,2,0,0,1,.71.15l-.17.77a1.41,1.41,0,0,0-.66-.17,1.13,1.13,0,0,0-1,.63,3.55,3.55,0,0,0-.39,1.84v1.9h-.83v-5Z"/>
      <path class="cls-4" d="M126.81,80.36h.83v4.19l1.94-2.15h1l-2.13,2.31,2.29,2.73h-1l-2.1-2.56v2.56h-.83Z"/>
      <path class="cls-4" d="M74.88,92.6h.87v7h-.87Z"/>
      <path class="cls-4" d="M77.63,92.52H78.8l-1.23,2H77Z"/>
      <path class="cls-4" d="M79.18,94.56H80l1.27,4,1.26-4h.85l-1.7,5h-.83Z"/>
      <path class="cls-4" d="M88.45,97.21H84.74a2,2,0,0,0,.42,1.25,1.26,1.26,0,0,0,1.06.48,1.42,1.42,0,0,0,.85-.23,2,2,0,0,0,.59-.75l.7.31a2.71,2.71,0,0,1-.88,1.08,2.32,2.32,0,0,1-1.28.34A2.08,2.08,0,0,1,85,99.33a2.25,2.25,0,0,1-.8-1,3.26,3.26,0,0,1,0-2.6,2.25,2.25,0,0,1,.8-1,2.34,2.34,0,0,1,2.43,0,2.09,2.09,0,0,1,.78.86,2.57,2.57,0,0,1,.27,1.19Zm-.84-.71a1.58,1.58,0,0,0-.45-.93,1.33,1.33,0,0,0-1-.34,1.27,1.27,0,0,0-.9.33,1.55,1.55,0,0,0-.51.94Z"/>
      <path class="cls-4" d="M92.91,99.35a2,2,0,0,1-.76-.93,3.17,3.17,0,0,1-.26-1.34,3.13,3.13,0,0,1,.26-1.33,2,2,0,0,1,.76-.93,2.13,2.13,0,0,1,1.21-.34,2.06,2.06,0,0,1,.87.19,1.93,1.93,0,0,1,.64.52V92.52h.82V99.6h-.82v-.66a1.44,1.44,0,0,1-.61.52,1.88,1.88,0,0,1-.9.23A2.13,2.13,0,0,1,92.91,99.35Zm2.4-.91a2.18,2.18,0,0,0,.39-1.36,2.15,2.15,0,0,0-.39-1.34,1.28,1.28,0,0,0-1.08-.51,1.3,1.3,0,0,0-1.09.51,2.51,2.51,0,0,0,0,2.69,1.42,1.42,0,0,0,2.17,0Z"/>
      <path class="cls-4" d="M98.8,99.33a2.43,2.43,0,0,1-.85-1,2.88,2.88,0,0,1-.29-1.3A2.84,2.84,0,0,1,98,95.79a2.43,2.43,0,0,1,.85-1,2.47,2.47,0,0,1,2.57,0,2.49,2.49,0,0,1,.84,1,2.84,2.84,0,0,1,.3,1.29,2.89,2.89,0,0,1-.3,1.3,2.49,2.49,0,0,1-.84,1,2.47,2.47,0,0,1-2.57,0Zm2.13-.64a1.67,1.67,0,0,0,.54-.69,2.42,2.42,0,0,0,0-1.83,1.67,1.67,0,0,0-.54-.69,1.55,1.55,0,0,0-1.69,0,1.67,1.67,0,0,0-.54.69,2.42,2.42,0,0,0,0,1.83,1.67,1.67,0,0,0,.54.69,1.55,1.55,0,0,0,1.69,0Z"/>
      <path class="cls-4" d="M104.55,94.56v1a2,2,0,0,1,.71-.77,1.77,1.77,0,0,1,1-.29,1.53,1.53,0,0,1,1.13.42,1.64,1.64,0,0,1,.42,1.2v3.5H107V96.27a1.14,1.14,0,0,0-.24-.78.87.87,0,0,0-.69-.26,1.1,1.1,0,0,0-.75.27,1.73,1.73,0,0,0-.53.77,3.3,3.3,0,0,0-.19,1.19V99.6h-.83v-5Z"/>
      <path class="cls-4" d="M113.52,97.21h-3.71a2.08,2.08,0,0,0,.43,1.25,1.26,1.26,0,0,0,1.06.48,1.37,1.37,0,0,0,.84-.23,1.89,1.89,0,0,0,.6-.75l.7.31a2.71,2.71,0,0,1-.88,1.08,2.33,2.33,0,0,1-1.29.34,2.07,2.07,0,0,1-1.22-.36,2.25,2.25,0,0,1-.8-1,3.26,3.26,0,0,1,0-2.6,2.25,2.25,0,0,1,.8-1,2.14,2.14,0,0,1,1.22-.35,2.16,2.16,0,0,1,2,1.19,2.57,2.57,0,0,1,.26,1.19Zm-.83-.71a1.58,1.58,0,0,0-.45-.93,1.34,1.34,0,0,0-1-.34,1.26,1.26,0,0,0-.89.33,1.55,1.55,0,0,0-.51.94Z"/>
      <path class="cls-4" d="M115.05,99.46a.68.68,0,0,1,0-.92.63.63,0,0,1,.46-.19.62.62,0,0,1,.45.19.68.68,0,0,1,0,.92.6.6,0,0,1-.45.17A.61.61,0,0,1,115.05,99.46ZM115,92.6h1.1l-.25,5h-.61Z"/>
    </g>
    <g>
      <path class="cls-4" d="M283.64,444.29a2.09,2.09,0,0,1-.89-.83,2.71,2.71,0,0,1-.32-1.36v-4.62h.87v4.67a1.64,1.64,0,0,0,.41,1.16,1.83,1.83,0,0,0,2.38,0,1.64,1.64,0,0,0,.41-1.16v-4.67h.87v4.62a2.61,2.61,0,0,1-.33,1.36,2.09,2.09,0,0,1-.89.83,3.05,3.05,0,0,1-2.51,0Z"/>
      <path class="cls-4" d="M289.71,439.44v.65a1.55,1.55,0,0,1,.58-.51,1.92,1.92,0,0,1,.89-.22,2.22,2.22,0,0,1,1.23.34,2.11,2.11,0,0,1,.77.92,3.37,3.37,0,0,1,.26,1.34,3.34,3.34,0,0,1-.26,1.34,2.09,2.09,0,0,1-.77.93,2.22,2.22,0,0,1-1.23.33,1.91,1.91,0,0,1-.84-.19,1.43,1.43,0,0,1-.63-.52v2.67h-.83v-7.08Zm2.47,3.87a2.46,2.46,0,0,0,0-2.69,1.38,1.38,0,0,0-2.16,0,2.51,2.51,0,0,0,0,2.69,1.4,1.4,0,0,0,2.16,0Z"/>
      <path class="cls-4" d="M295.38,444.23a2,2,0,0,1-.76-.93,3.58,3.58,0,0,1,0-2.68,2,2,0,0,1,.76-.92,2.13,2.13,0,0,1,1.21-.34,2.06,2.06,0,0,1,.87.19,1.81,1.81,0,0,1,.64.52V437.4h.82v7.08h-.82v-.66a1.52,1.52,0,0,1-.61.52,1.87,1.87,0,0,1-.9.22A2.12,2.12,0,0,1,295.38,444.23Zm2.4-.92a2.51,2.51,0,0,0,0-2.69,1.29,1.29,0,0,0-1.08-.52,1.32,1.32,0,0,0-1.09.52,2.51,2.51,0,0,0,0,2.69,1.32,1.32,0,0,0,1.09.51A1.28,1.28,0,0,0,297.78,443.31Z"/>
      <path class="cls-4" d="M300.47,444.18a1.63,1.63,0,0,1,.15-2.37,2.8,2.8,0,0,1,1.64-.43h.88v-.21a1,1,0,0,0-.3-.81,1.12,1.12,0,0,0-.77-.26,1.08,1.08,0,0,0-1.1.82l-.74-.17a1.5,1.5,0,0,1,.61-1,2,2,0,0,1,1.23-.38,1.92,1.92,0,0,1,1.37.5,1.85,1.85,0,0,1,.52,1.39v3.23h-.65l-.15-.73a1.74,1.74,0,0,1-1.57.81A1.6,1.6,0,0,1,300.47,444.18Zm1.93-.52a1.32,1.32,0,0,0,.53-.52,1.72,1.72,0,0,0,.21-.89v-.16h-.85a1.85,1.85,0,0,0-1.05.24.77.77,0,0,0-.35.69.76.76,0,0,0,.22.59.89.89,0,0,0,.63.21A1.43,1.43,0,0,0,302.4,443.66Z"/>
      <path class="cls-4" d="M306,444.16a1.7,1.7,0,0,1-.39-1.22v-2.76h-.85v-.74h.85v-1.51l.83-.53v2h1.35v.74h-1.35V443c0,.55.23.82.7.82a1.09,1.09,0,0,0,.58-.14l.21.7a1.91,1.91,0,0,1-.86.18A1.4,1.4,0,0,1,306,444.16Z"/>
      <path class="cls-4" d="M312.89,442.09h-3.71a2,2,0,0,0,.42,1.25,1.26,1.26,0,0,0,1.06.48,1.42,1.42,0,0,0,.85-.23,2,2,0,0,0,.59-.75l.7.3a2.5,2.5,0,0,1-.88,1.08,2.24,2.24,0,0,1-1.28.34,2.07,2.07,0,0,1-1.23-.35,2.32,2.32,0,0,1-.8-.95,3.26,3.26,0,0,1,0-2.6,2.32,2.32,0,0,1,.8-1,2.15,2.15,0,0,1,1.23-.35,2.24,2.24,0,0,1,1.2.32,2.15,2.15,0,0,1,.78.86,2.65,2.65,0,0,1,.27,1.2Zm-.84-.71a1.58,1.58,0,0,0-.45-.93,1.33,1.33,0,0,0-1-.35,1.32,1.32,0,0,0-.9.33,1.6,1.6,0,0,0-.51.95Z"/>
      <path class="cls-4" d="M317.47,444.21a2.39,2.39,0,0,1-.85-1,3,3,0,0,1,0-2.58,2.36,2.36,0,0,1,.85-.95,2.47,2.47,0,0,1,2.57,0,2.34,2.34,0,0,1,.84.95,2.92,2.92,0,0,1,0,2.58,2.37,2.37,0,0,1-.84,1,2.53,2.53,0,0,1-2.57,0Zm2.13-.65a1.58,1.58,0,0,0,.54-.68,2.42,2.42,0,0,0,0-1.83,1.67,1.67,0,0,0-.54-.69,1.4,1.4,0,0,0-.84-.26,1.43,1.43,0,0,0-.85.26,1.85,1.85,0,0,0-.54.69,2.42,2.42,0,0,0,0,1.83,1.74,1.74,0,0,0,.54.68,1.36,1.36,0,0,0,.85.26A1.33,1.33,0,0,0,319.6,443.56Z"/>
      <path class="cls-4" d="M323,444.16a1.7,1.7,0,0,1-.39-1.22v-2.76h-.85v-.74h.85v-1.51l.83-.53v2h1.35v.74h-1.35V443c0,.55.23.82.7.82a1.09,1.09,0,0,0,.58-.14l.21.7a1.91,1.91,0,0,1-.86.18A1.4,1.4,0,0,1,323,444.16Z"/>
      <path class="cls-4" d="M326.59,437.4v3.06a1.78,1.78,0,0,1,.72-.81,1.91,1.91,0,0,1,1-.29,1.53,1.53,0,0,1,1.15.42,1.61,1.61,0,0,1,.42,1.19v3.51h-.82v-3.31a1.17,1.17,0,0,0-.24-.79.91.91,0,0,0-.71-.28,1.2,1.2,0,0,0-.76.27,1.75,1.75,0,0,0-.56.77,3.14,3.14,0,0,0-.21,1.2v2.14h-.83V437.4Z"/>
      <path class="cls-4" d="M335.65,442.09h-3.71a2,2,0,0,0,.42,1.25,1.26,1.26,0,0,0,1.06.48,1.42,1.42,0,0,0,.85-.23,2,2,0,0,0,.59-.75l.7.3a2.5,2.5,0,0,1-.88,1.08,2.24,2.24,0,0,1-1.28.34,2.07,2.07,0,0,1-1.23-.35,2.32,2.32,0,0,1-.8-.95,3.26,3.26,0,0,1,0-2.6,2.32,2.32,0,0,1,.8-1,2.15,2.15,0,0,1,1.23-.35,2.24,2.24,0,0,1,1.2.32,2.15,2.15,0,0,1,.78.86,2.65,2.65,0,0,1,.27,1.2Zm-.84-.71a1.58,1.58,0,0,0-.45-.93,1.33,1.33,0,0,0-1-.35,1.32,1.32,0,0,0-.9.33,1.6,1.6,0,0,0-.51.95Z"/>
      <path class="cls-4" d="M337.7,439.44v.87a1.77,1.77,0,0,1,.62-.7,1.58,1.58,0,0,1,.86-.25,2.21,2.21,0,0,1,.71.15l-.17.77a1.4,1.4,0,0,0-.65-.17,1.14,1.14,0,0,0-1,.63,3.69,3.69,0,0,0-.38,1.84v1.9h-.83v-5Z"/>
      <path class="cls-4" d="M344.06,444.21a2.32,2.32,0,0,1-.79-1A3.2,3.2,0,0,1,343,442a3.27,3.27,0,0,1,.26-1.29,2.29,2.29,0,0,1,.79-.95,2.13,2.13,0,0,1,1.26-.36,2.06,2.06,0,0,1,2.11,1.41l-.74.29a1.39,1.39,0,0,0-1.37-1,1.24,1.24,0,0,0-1.08.52,2.61,2.61,0,0,0,0,2.68,1.22,1.22,0,0,0,1.08.52,1.38,1.38,0,0,0,.83-.24,1.71,1.71,0,0,0,.54-.72l.74.29a2.15,2.15,0,0,1-.81,1.06,2.26,2.26,0,0,1-1.3.35A2.2,2.2,0,0,1,344.06,444.21Z"/>
      <path class="cls-4" d="M349.41,444.21a2.39,2.39,0,0,1-.85-1,3,3,0,0,1,0-2.58,2.36,2.36,0,0,1,.85-.95,2.47,2.47,0,0,1,2.57,0,2.34,2.34,0,0,1,.84.95,2.92,2.92,0,0,1,0,2.58,2.37,2.37,0,0,1-.84,1,2.53,2.53,0,0,1-2.57,0Zm2.13-.65a1.58,1.58,0,0,0,.54-.68,2.42,2.42,0,0,0,0-1.83,1.67,1.67,0,0,0-.54-.69,1.4,1.4,0,0,0-.84-.26,1.43,1.43,0,0,0-.85.26,1.75,1.75,0,0,0-.54.69,2.42,2.42,0,0,0,0,1.83,1.65,1.65,0,0,0,.54.68,1.36,1.36,0,0,0,.85.26A1.33,1.33,0,0,0,351.54,443.56Z"/>
      <path class="cls-4" d="M355.06,444.23a2,2,0,0,1-.76-.93,3.58,3.58,0,0,1,0-2.68,2,2,0,0,1,.76-.92,2.13,2.13,0,0,1,1.21-.34,2.06,2.06,0,0,1,.87.19,1.81,1.81,0,0,1,.64.52V437.4h.82v7.08h-.82v-.66a1.52,1.52,0,0,1-.61.52,1.87,1.87,0,0,1-.9.22A2.12,2.12,0,0,1,355.06,444.23Zm2.4-.92a2.51,2.51,0,0,0,0-2.69,1.29,1.29,0,0,0-1.08-.52,1.32,1.32,0,0,0-1.09.52,2.51,2.51,0,0,0,0,2.69,1.32,1.32,0,0,0,1.09.51A1.28,1.28,0,0,0,357.46,443.31Z"/>
      <path class="cls-4" d="M364.36,442.09h-3.71a2,2,0,0,0,.42,1.25,1.26,1.26,0,0,0,1.06.48,1.42,1.42,0,0,0,.85-.23,2,2,0,0,0,.59-.75l.7.3a2.5,2.5,0,0,1-.88,1.08,2.24,2.24,0,0,1-1.28.34,2.07,2.07,0,0,1-1.23-.35,2.32,2.32,0,0,1-.8-.95,3.26,3.26,0,0,1,0-2.6,2.32,2.32,0,0,1,.8-1,2.15,2.15,0,0,1,1.23-.35,2.24,2.24,0,0,1,1.2.32,2.15,2.15,0,0,1,.78.86,2.65,2.65,0,0,1,.27,1.2Zm-.84-.71a1.58,1.58,0,0,0-.45-.93,1.33,1.33,0,0,0-1-.35,1.32,1.32,0,0,0-.9.33,1.6,1.6,0,0,0-.51.95Z"/>
      <path class="cls-4" d="M369.25,437h.83l-4.36,8h-.83Z"/>
      <path class="cls-4" d="M291.55,456.33a1.87,1.87,0,0,1-.63-1l.69-.37a1.67,1.67,0,0,0,.43.74,1.09,1.09,0,0,0,.76.26.83.83,0,0,0,.58-.2.72.72,0,0,0,.22-.56.59.59,0,0,0-.28-.52,3,3,0,0,0-.81-.4,2.57,2.57,0,0,1-.93-.55,1.24,1.24,0,0,1-.32-.88,1.28,1.28,0,0,1,.41-1,1.52,1.52,0,0,1,1.06-.37,1.61,1.61,0,0,1,1.46.79l-.54.48a1,1,0,0,0-.93-.53.67.67,0,0,0-.47.16.55.55,0,0,0-.19.45.56.56,0,0,0,.24.46,4.29,4.29,0,0,0,.88.42q1.23.45,1.23,1.44a1.48,1.48,0,0,1-.44,1.12,1.69,1.69,0,0,1-1.17.41A1.91,1.91,0,0,1,291.55,456.33Z"/>
      <path class="cls-4" d="M294.92,451.61h.85l1.08,3.93,1-3.93h.79l1,3.93,1.09-3.93h.85l-1.55,5h-.78l-1-3.84-1,3.84h-.79Z"/>
      <path class="cls-4" d="M302.43,450.58a.61.61,0,0,1-.17-.42.58.58,0,0,1,.17-.43.57.57,0,0,1,.43-.17.56.56,0,0,1,.43.17.55.55,0,0,1,.18.43.58.58,0,0,1-.18.43.6.6,0,0,1-.43.17A.58.58,0,0,1,302.43,450.58Zm0,1h.83v5h-.83Z"/>
      <path class="cls-4" d="M305.38,456.32a1.68,1.68,0,0,1-.39-1.21v-2.76h-.85v-.74H305V450.1l.83-.53v2h1.35v.74h-1.35v2.82c0,.54.23.82.7.82a1.18,1.18,0,0,0,.58-.14l.21.7a1.91,1.91,0,0,1-.86.18A1.41,1.41,0,0,1,305.38,456.32Z"/>
      <path class="cls-4" d="M308.82,456.37a2.29,2.29,0,0,1-.79-.95,3.27,3.27,0,0,1-.26-1.29,3.2,3.2,0,0,1,.26-1.29,2.23,2.23,0,0,1,.79-.95,2.13,2.13,0,0,1,1.26-.36,2.06,2.06,0,0,1,2.11,1.41l-.74.29a1.39,1.39,0,0,0-1.37-1,1.22,1.22,0,0,0-1.08.52,2.59,2.59,0,0,0,0,2.67,1.23,1.23,0,0,0,1.08.53,1.38,1.38,0,0,0,.83-.24,1.71,1.71,0,0,0,.54-.72l.74.29a2.17,2.17,0,0,1-.81,1.05,2.26,2.26,0,0,1-1.3.36A2.13,2.13,0,0,1,308.82,456.37Z"/>
      <path class="cls-4" d="M314.15,449.57v3.05a1.78,1.78,0,0,1,.72-.81,1.9,1.9,0,0,1,1-.28,1.57,1.57,0,0,1,1.15.41,1.62,1.62,0,0,1,.42,1.2v3.51h-.82v-3.31a1.18,1.18,0,0,0-.24-.8.91.91,0,0,0-.71-.27,1.19,1.19,0,0,0-.76.26,1.79,1.79,0,0,0-.56.78,3.14,3.14,0,0,0-.21,1.2v2.14h-.83v-7.08Z"/>
      <path class="cls-4" d="M322.88,456.52a1.47,1.47,0,0,1-.59-.48v.61h-.83v-7.08h.83v2.67a1.73,1.73,0,0,1,.64-.52,1.81,1.81,0,0,1,.83-.19,2.22,2.22,0,0,1,1.23.33,2.09,2.09,0,0,1,.77.93,3.34,3.34,0,0,1,.26,1.34,3.37,3.37,0,0,1-.26,1.34,2.11,2.11,0,0,1-.77.92,2.22,2.22,0,0,1-1.23.34A1.93,1.93,0,0,1,322.88,456.52Zm1.88-1a2.46,2.46,0,0,0,0-2.69,1.4,1.4,0,0,0-2.16,0,2.51,2.51,0,0,0,0,2.69,1.38,1.38,0,0,0,2.16,0Z"/>
      <path class="cls-4" d="M328.06,451.61v.87a1.73,1.73,0,0,1,.62-.71,1.57,1.57,0,0,1,.86-.24,2,2,0,0,1,.71.15l-.17.77a1.29,1.29,0,0,0-.65-.17,1.14,1.14,0,0,0-1,.63,3.63,3.63,0,0,0-.38,1.84v1.9h-.83v-5Z"/>
      <path class="cls-4" d="M331.05,456.34a1.63,1.63,0,0,1,.15-2.37,2.8,2.8,0,0,1,1.64-.42h.88v-.22a1,1,0,0,0-.3-.81,1.12,1.12,0,0,0-.77-.25,1.06,1.06,0,0,0-1.1.82l-.74-.17a1.48,1.48,0,0,1,.61-1,2,2,0,0,1,1.23-.38A1.92,1.92,0,0,1,334,452a1.87,1.87,0,0,1,.52,1.4v3.23h-.65l-.15-.73a1.74,1.74,0,0,1-1.57.81A1.61,1.61,0,0,1,331.05,456.34Zm1.93-.52a1.32,1.32,0,0,0,.53-.52,1.71,1.71,0,0,0,.21-.88v-.16h-.85a1.85,1.85,0,0,0-1.05.24.87.87,0,0,0-.13,1.28.89.89,0,0,0,.63.21A1.47,1.47,0,0,0,333,455.82Z"/>
      <path class="cls-4" d="M336.75,451.61v1a2.2,2.2,0,0,1,.71-.77,1.76,1.76,0,0,1,1-.28,1.53,1.53,0,0,1,1.13.42,1.6,1.6,0,0,1,.42,1.19v3.51h-.82v-3.33a1.15,1.15,0,0,0-.24-.79.86.86,0,0,0-.69-.26,1.15,1.15,0,0,0-.75.27,1.79,1.79,0,0,0-.53.77,3.3,3.3,0,0,0-.19,1.19v2.15h-.83v-5Z"/>
      <path class="cls-4" d="M342.23,456.37a2.29,2.29,0,0,1-.79-.95,3.27,3.27,0,0,1-.26-1.29,3.2,3.2,0,0,1,.26-1.29,2.23,2.23,0,0,1,.79-.95,2.13,2.13,0,0,1,1.26-.36,2.06,2.06,0,0,1,2.11,1.41l-.74.29a1.39,1.39,0,0,0-1.37-1,1.22,1.22,0,0,0-1.08.52,2.59,2.59,0,0,0,0,2.67,1.23,1.23,0,0,0,1.08.53,1.38,1.38,0,0,0,.83-.24,1.71,1.71,0,0,0,.54-.72l.74.29a2.17,2.17,0,0,1-.81,1.05,2.26,2.26,0,0,1-1.3.36A2.13,2.13,0,0,1,342.23,456.37Z"/>
      <path class="cls-4" d="M347.56,449.57v3.05a1.78,1.78,0,0,1,.72-.81,1.9,1.9,0,0,1,1-.28,1.57,1.57,0,0,1,1.15.41,1.62,1.62,0,0,1,.42,1.2v3.51H350v-3.31a1.18,1.18,0,0,0-.24-.8.91.91,0,0,0-.71-.27,1.19,1.19,0,0,0-.76.26,1.79,1.79,0,0,0-.56.78,3.14,3.14,0,0,0-.21,1.2v2.14h-.83v-7.08Z"/>
      <path class="cls-4" d="M356.62,454.26h-3.71a2.06,2.06,0,0,0,.42,1.25,1.29,1.29,0,0,0,1.06.48,1.49,1.49,0,0,0,.85-.23,2.14,2.14,0,0,0,.59-.75l.7.3a2.63,2.63,0,0,1-.88,1.08,2.32,2.32,0,0,1-1.28.34,2.08,2.08,0,0,1-1.23-.36,2.25,2.25,0,0,1-.8-.95,3.26,3.26,0,0,1,0-2.6,2.16,2.16,0,0,1,.8-.94,2.07,2.07,0,0,1,1.23-.35,2.15,2.15,0,0,1,1.2.32,2.09,2.09,0,0,1,.78.86,2.65,2.65,0,0,1,.27,1.2Zm-.84-.71a1.58,1.58,0,0,0-.45-.94,1.46,1.46,0,0,0-1.86,0,1.57,1.57,0,0,0-.51.95Z"/>
      <path class="cls-4" d="M358,456.33a1.87,1.87,0,0,1-.63-1l.69-.37a1.67,1.67,0,0,0,.43.74,1.09,1.09,0,0,0,.76.26.83.83,0,0,0,.58-.2.72.72,0,0,0,.22-.56.59.59,0,0,0-.28-.52,3,3,0,0,0-.81-.4,2.57,2.57,0,0,1-.93-.55,1.24,1.24,0,0,1-.32-.88,1.25,1.25,0,0,1,.41-1,1.52,1.52,0,0,1,1.06-.37,1.61,1.61,0,0,1,1.46.79l-.54.48a1,1,0,0,0-.93-.53.67.67,0,0,0-.47.16.55.55,0,0,0-.19.45.56.56,0,0,0,.24.46,4.29,4.29,0,0,0,.88.42q1.23.45,1.23,1.44a1.48,1.48,0,0,1-.44,1.12,1.69,1.69,0,0,1-1.17.41A1.91,1.91,0,0,1,358,456.33Z"/>
    </g>
    <g>
      <rect class="cls-2" x="283.2" y="470.08" width="79" height="99"/>
      <path class="cls-4" d="M361.7,470.58v98h-78v-98h78m1-1h-80v100h80v-100Z"/>
    </g>
    <g>
      <rect class="cls-2" x="275.4" y="477.87" width="79" height="99"/>
      <path class="cls-4" d="M353.9,478.37v98h-78v-98h78m1-1h-80v100h80v-100Z"/>
    </g>
    <g>
      <g>
        <circle class="cls-10" cx="530.41" cy="154.24" r="49.5"/>
        <path class="cls-4" d="M530.41,105.24a49,49,0,1,1-49,49,49.05,49.05,0,0,1,49-49m0-1a50,50,0,1,0,50,50,50,50,0,0,0-50-50Z"/>
      </g>
      <g>
        <path class="cls-11" d="M531.08,115.33c-6.65.28-11.6.31-15.2,2.71-2.75,1.83-7.53,3.53-8.66,9s2.44,9.06,2.44,13.37-4.37,7.37-4.51,13.52S511,162.24,511,165.8s.79,6.71,3.26,9.25l4.11,4.21a19.3,19.3,0,0,0,13.83,5.83h.48a19.34,19.34,0,0,0,13.84-5.83l4.1-4.21a19.4,19.4,0,0,0,5-9.16s3.66-7.94,3-13.19-4.93-9.24-6.8-15.56c-1.32-4.41,1-10.68-5.09-16.44C544,118.05,537.73,115.05,531.08,115.33Z"/>
        <path class="cls-4" d="M532.69,185.59h-.48a19.94,19.94,0,0,1-14.19-6l-4.11-4.21c-2.36-2.43-3.45-5.48-3.4-9.6,0-1.35-1-2.54-2.23-3.92-1.66-1.9-3.72-4.27-3.63-8a17.16,17.16,0,0,1,2.63-8.16c1-1.87,1.88-3.49,1.88-5.35a14.69,14.69,0,0,0-1.22-5c-.94-2.51-1.9-5.12-1.21-8.45,1-4.67,4.44-6.69,7.23-8.3.59-.35,1.15-.67,1.64-1,3.45-2.3,8.12-2.49,14-2.73l1.42-.06c6.47-.28,13,2.56,16.07,5.5,4.35,4.15,4.54,8.48,4.71,12.3a18.31,18.31,0,0,0,.52,4.37,34.61,34.61,0,0,0,3.49,7.48c1.53,2.68,3,5.22,3.32,8.16.6,5.17-2.74,12.68-3.07,13.42A19.78,19.78,0,0,1,551,175.4l-4.1,4.21A20,20,0,0,1,532.69,185.59Zm-1.59-69.76-1.42.06c-6,.24-10.3.42-13.53,2.56-.51.34-1.08.68-1.69,1-2.62,1.52-5.88,3.41-6.76,7.65-.63,3,.29,5.51,1.17,7.9a15.19,15.19,0,0,1,1.29,5.37c0,2.11-1,3.91-2,5.82-1.2,2.22-2.44,4.52-2.51,7.71s1.76,5.43,3.38,7.29c1.28,1.47,2.49,2.86,2.48,4.59,0,3.84,1,6.66,3.12,8.89l4.1,4.21a19,19,0,0,0,13.48,5.68h.48a18.94,18.94,0,0,0,13.48-5.68l4.1-4.21a18.89,18.89,0,0,0,4.87-8.92l0-.09c0-.08,3.6-7.89,3-12.94-.32-2.73-1.72-5.18-3.2-7.77a35.9,35.9,0,0,1-3.58-7.69,19.23,19.23,0,0,1-.56-4.62c-.16-3.63-.34-7.74-4.4-11.61-2.93-2.8-9.15-5.5-15.34-5.23Z"/>
      </g>
      <g>
        <polyline class="cls-12" points="543.62 155.7 544.12 177.35 518.96 176.22 520.62 161.54"/>
        <polygon class="cls-4" points="544.63 177.87 518.4 176.7 520.12 161.48 521.12 161.59 519.52 175.75 543.6 176.82 543.12 155.71 544.12 155.69 544.63 177.87"/>
      </g>
      <g>
        <path class="cls-12" d="M543.94,147.55c-.37-2.8-1.67-4.75-1.55-7A11.93,11.93,0,0,0,541,135c-1-2-2.26-2.16-3.47-1.82a44.08,44.08,0,0,1-5.06,1,15.75,15.75,0,0,1-8.94-1.82c-2-1.12-5.85-.53-7.74.1-1.64.54-2.35,2.86-2.81,4.51-.92,3.34-.47,5.29-.35,8.75,0,.17,0,.34,0,.52a25,25,0,0,0,4.13,13.18c1.32,2.12,7.86,7.94,11.54,7.94,3.1,0,14-7.54,15.23-11.46A25.53,25.53,0,0,0,543.94,147.55Z"/>
        <path class="cls-4" d="M528.3,167.89c-3.83,0-10.53-5.87-12-8.18a25.48,25.48,0,0,1-4.21-13.42l0-.52c0-.78-.07-1.48-.11-2.14a17.9,17.9,0,0,1,.48-6.76c.41-1.47,1.17-4.21,3.13-4.86s5.94-1.26,8.14-.06a15.24,15.24,0,0,0,8.64,1.76,43,43,0,0,0,5-1c1.78-.51,3.15.19,4.06,2.08a12.68,12.68,0,0,1,1.46,5.82,9.83,9.83,0,0,0,.69,3.49,18.86,18.86,0,0,1,.85,3.41,25.48,25.48,0,0,1-.43,8.58C542.82,160,531.73,167.89,528.3,167.89Zm-7.95-35.62a15.25,15.25,0,0,0-4.43.69c-1.45.48-2.12,2.89-2.48,4.18a17.18,17.18,0,0,0-.45,6.43c0,.66.09,1.37.12,2.16l0,.51a24.37,24.37,0,0,0,4.06,12.94c1.34,2.16,7.79,7.71,11.11,7.71,2.77,0,13.57-7.21,14.75-11.11a24.41,24.41,0,0,0,.39-8.16h0a18.49,18.49,0,0,0-.81-3.24,10.32,10.32,0,0,1-.73-3.85,11.75,11.75,0,0,0-1.37-5.32c-.89-1.86-2-1.81-2.89-1.56a41.2,41.2,0,0,1-5.13,1,16.23,16.23,0,0,1-9.24-1.87A6.3,6.3,0,0,0,520.35,132.27Z"/>
      </g>
      <path class="cls-4" d="M528.54,150.14a3.19,3.19,0,0,1-2.81-1.13,3.4,3.4,0,0,1-.05-3.18l.94.36a2.49,2.49,0,0,0-.06,2.25,2.28,2.28,0,0,0,2,.7h1.14l0,1h-1.09Z"/>
      <path class="cls-8" d="M527.26,157a5.59,5.59,0,0,1-3.72-1.4l.65-.76c2.92,2.49,6.35.35,7.82-.56l.51-.31.46.89c-.1,0-.25.15-.44.27A10.44,10.44,0,0,1,527.26,157Z"/>
      <g>
        <circle class="cls-4" cx="535.87" cy="141.94" r="1.18"/>
        <path class="cls-4" d="M535.87,143.62a1.68,1.68,0,1,1,1.68-1.68A1.68,1.68,0,0,1,535.87,143.62Zm0-2.36a.68.68,0,0,0,0,1.36.68.68,0,1,0,0-1.36Z"/>
      </g>
      <g>
        <circle class="cls-4" cx="520.77" cy="142.43" r="1.38"/>
        <path class="cls-4" d="M520.77,144.3a1.88,1.88,0,1,1,1.88-1.87A1.88,1.88,0,0,1,520.77,144.3Zm0-2.75a.88.88,0,1,0,.88.88A.88.88,0,0,0,520.77,141.55Z"/>
      </g>
      <path class="cls-4" d="M532.11,141.52l-.33-1a18.64,18.64,0,0,1,4.31-1,8.4,8.4,0,0,1,3.34,1l-.49.87a7.45,7.45,0,0,0-2.85-.9A17.34,17.34,0,0,0,532.11,141.52Z"/>
      <path class="cls-4" d="M516.93,142l-.33-.94a18.51,18.51,0,0,1,4.31-1,8.19,8.19,0,0,1,3.34,1l-.49.87a7.4,7.4,0,0,0-2.85-.91A17.34,17.34,0,0,0,516.93,142Z"/>
      <g class="cls-13">
        <g>
          <path class="cls-14" d="M518.55,169.19s7.05,5.18,13.39,5.35c7.72.21,13-5.2,13-5.2L562.72,176a15,15,0,0,1,5.38,4.79c3.07,4.44,5.33,16.12,6.78,22.14.12.5-.77.18-.66.6h-.63l-41.65,5-38.89-4.46c1.43-5.45,3.73-18.43,7.05-23.24a15.19,15.19,0,0,1,5.38-4.79l13.43-6.47"/>
          <path class="cls-8" d="M531.94,209h-.05l-39.47-4.53.15-.56c.32-1.22.68-2.8,1.09-4.63,1.44-6.31,3.4-15,6-18.77a15.8,15.8,0,0,1,5.56-4.94l13.32-6.42.28-.38c.06.05,7,5.09,13.11,5.25,7.39.23,12.59-5,12.64-5l.22-.24,18.08,6.81a15.73,15.73,0,0,1,5.61,5c2.63,3.81,4.64,12.63,6.1,19.06.27,1.19.52,2.29.75,3.25a.7.7,0,0,1-.09.59.78.78,0,0,1-.48.32l.08.31h-1.28Zm-38.26-5.4L531.94,208l41.59-5h.34a.83.83,0,0,1,.46-.24c-.21-.9-.45-1.91-.69-3-1.45-6.35-3.43-15.06-5.95-18.71a14.64,14.64,0,0,0-5.2-4.63l-17.42-6.55A19.24,19.24,0,0,1,531.93,175c-5.32-.14-11-3.63-13-4.95l-13.26,6.39a14.75,14.75,0,0,0-5.19,4.62c-2.51,3.65-4.45,12.19-5.87,18.43C494.28,201.1,494,202.49,493.68,203.63Z"/>
        </g>
      </g>
      <path class="cls-4" d="M530.41,105.24a49,49,0,1,1-49,49,49.05,49.05,0,0,1,49-49m0-1a50,50,0,1,0,50,50,50,50,0,0,0-50-50Z"/>
    </g>
    <path class="cls-11" d="M541.83,134.53c0,2.93-9.4.84-15.12.84s-12.81-1.65-12.81-4.58,7.08-6,12.81-6S541.83,131.6,541.83,134.53Z"/>
    <g>
      <path class="cls-11" d="M541.66,135.25c-8.23,3-23.76,3.94-27.76-4.46"/>
      <path class="cls-8" d="M528.87,137.91c-.92,0-1.83,0-2.72-.11-4.49-.37-10.34-1.84-12.7-6.8l.9-.43c3.7,7.77,18.4,7.42,27.14,4.21l.34.94A39.25,39.25,0,0,1,528.87,137.91Z"/>
    </g>
    <g>
      <g>
        <circle class="cls-10" cx="543.67" cy="606.37" r="49.5"/>
        <path class="cls-4" d="M543.67,557.37a49,49,0,1,1-49,49,49.05,49.05,0,0,1,49-49m0-1a50,50,0,1,0,50,50,50,50,0,0,0-50-50Z"/>
      </g>
      <g>
        <path class="cls-11" d="M544.34,567.46c-6.65.28-11.6.31-15.2,2.71-2.75,1.83-7.53,3.53-8.66,9s2.45,9.06,2.45,13.37-4.38,7.37-4.52,13.52,5.89,8.32,5.86,11.88.79,6.71,3.26,9.25l4.11,4.21a19.31,19.31,0,0,0,13.83,5.83H546a19.34,19.34,0,0,0,13.84-5.83l4.1-4.21a19.31,19.31,0,0,0,5-9.16s3.66-7.94,3.05-13.19-4.93-9.24-6.8-15.56c-1.31-4.41,1-10.68-5.09-16.44C557.28,570.18,551,567.18,544.34,567.46Z"/>
        <path class="cls-4" d="M546,637.72h-.48a19.94,19.94,0,0,1-14.19-6l-4.1-4.21c-2.37-2.43-3.45-5.48-3.41-9.6,0-1.35-1-2.54-2.23-3.92-1.66-1.9-3.72-4.27-3.63-8a17.16,17.16,0,0,1,2.63-8.16c1-1.87,1.89-3.49,1.89-5.35a14.6,14.6,0,0,0-1.23-5c-.94-2.52-1.9-5.13-1.21-8.45,1-4.68,4.44-6.7,7.23-8.31.59-.35,1.15-.67,1.64-1,3.46-2.3,8.13-2.49,14-2.73l1.42-.06c6.46-.26,13,2.56,16.07,5.5,4.35,4.15,4.54,8.48,4.71,12.3a18.31,18.31,0,0,0,.52,4.37,34.61,34.61,0,0,0,3.49,7.48c1.53,2.69,3,5.22,3.33,8.16.6,5.17-2.74,12.68-3.08,13.42a19.78,19.78,0,0,1-5.11,9.34l-4.1,4.21A20,20,0,0,1,546,637.72ZM544.36,568l-1.42.06c-6,.24-10.3.42-13.52,2.56-.51.34-1.09.68-1.7,1-2.62,1.52-5.87,3.41-6.75,7.65-.63,3,.28,5.51,1.16,7.9a15.21,15.21,0,0,1,1.3,5.37c0,2.11-1,3.91-2,5.83-1.2,2.21-2.44,4.51-2.51,7.7s1.76,5.43,3.38,7.29c1.28,1.47,2.49,2.86,2.48,4.59,0,3.84,1,6.66,3.12,8.89L532,631a18.92,18.92,0,0,0,13.47,5.68H546A18.93,18.93,0,0,0,559.43,631l4.1-4.21a18.75,18.75,0,0,0,4.87-8.92l0-.09c0-.08,3.6-7.89,3-12.94-.32-2.73-1.72-5.18-3.2-7.77a35.68,35.68,0,0,1-3.58-7.69,19.23,19.23,0,0,1-.56-4.62c-.16-3.63-.34-7.74-4.4-11.61-2.93-2.8-9.14-5.51-15.34-5.23Z"/>
      </g>
      <g>
        <polyline class="cls-12" points="556.88 607.83 557.38 629.48 532.22 628.36 533.88 613.67"/>
        <polygon class="cls-4" points="557.89 630 531.66 628.83 533.38 613.61 534.38 613.72 532.78 627.88 556.87 628.96 556.38 607.84 557.38 607.82 557.89 630"/>
      </g>
      <g>
        <path class="cls-12" d="M557.2,599.68c-.37-2.8-1.67-4.75-1.54-7a12.18,12.18,0,0,0-1.41-5.57c-1-2-2.27-2.16-3.48-1.82a43.65,43.65,0,0,1-5.06,1,15.75,15.75,0,0,1-8.94-1.82c-2-1.12-5.85-.53-7.74.1-1.64.54-2.35,2.86-2.8,4.52-.93,3.34-.48,5.28-.36,8.74,0,.17,0,.34,0,.52A25,25,0,0,0,530,611.58c1.32,2.12,7.86,7.94,11.54,7.94,3.11,0,14.05-7.54,15.23-11.46A25.25,25.25,0,0,0,557.2,599.68Z"/>
        <path class="cls-4" d="M541.56,620c-3.83,0-10.53-5.87-12-8.18a25.65,25.65,0,0,1-4.21-13.42l0-.52c0-.78-.07-1.48-.11-2.14a18.32,18.32,0,0,1,.48-6.76c.41-1.47,1.17-4.21,3.13-4.86s5.94-1.26,8.14-.06a15.17,15.17,0,0,0,8.64,1.76,42.58,42.58,0,0,0,5-1c1.79-.51,3.15.19,4.07,2.08a12.84,12.84,0,0,1,1.46,5.82,9.56,9.56,0,0,0,.68,3.49,18.86,18.86,0,0,1,.85,3.41h0a25.44,25.44,0,0,1-.42,8.58C556.08,612.14,545,620,541.56,620Zm-7.94-35.62a15.32,15.32,0,0,0-4.44.69c-1.45.48-2.12,2.89-2.47,4.18a17,17,0,0,0-.45,6.43c0,.66.08,1.37.11,2.16l0,.51a24.37,24.37,0,0,0,4.06,12.94c1.34,2.16,7.79,7.71,11.11,7.71,2.77,0,13.58-7.21,14.75-11.11a24.39,24.39,0,0,0,.39-8.16,17.33,17.33,0,0,0-.81-3.23,10.41,10.41,0,0,1-.73-3.86,11.77,11.77,0,0,0-1.36-5.32c-.9-1.86-2-1.81-2.89-1.56a43.27,43.27,0,0,1-5.14,1.05,16.23,16.23,0,0,1-9.24-1.87A6.28,6.28,0,0,0,533.62,584.4Z"/>
      </g>
      <path class="cls-4" d="M541.8,602.27a3.19,3.19,0,0,1-2.81-1.13,3.38,3.38,0,0,1,0-3.18l.93.36a2.52,2.52,0,0,0-.06,2.25,2.29,2.29,0,0,0,2,.7h.47c.25,0,.48,0,.67,0l-.05,1H541.8Z"/>
      <path class="cls-8" d="M540.53,609.15a5.61,5.61,0,0,1-3.73-1.41l.65-.76c2.93,2.49,6.36.35,7.82-.56.22-.14.4-.25.52-.31l.45.89c-.1,0-.25.15-.44.27A10.4,10.4,0,0,1,540.53,609.15Z"/>
      <g>
        <circle class="cls-4" cx="549.13" cy="594.07" r="1.18"/>
        <path class="cls-4" d="M549.13,595.75a1.68,1.68,0,1,1,1.68-1.68A1.68,1.68,0,0,1,549.13,595.75Zm0-2.36a.68.68,0,0,0,0,1.36.68.68,0,1,0,0-1.36Z"/>
      </g>
      <g>
        <circle class="cls-4" cx="534.03" cy="594.56" r="1.38"/>
        <path class="cls-4" d="M534,596.43a1.88,1.88,0,1,1,1.88-1.87A1.87,1.87,0,0,1,534,596.43Zm0-2.75a.88.88,0,1,0,.88.88A.87.87,0,0,0,534,593.68Z"/>
      </g>
      <path class="cls-4" d="M545.37,593.65l-.33-.94a18.13,18.13,0,0,1,4.31-1,8.34,8.34,0,0,1,3.34,1l-.49.87a7.45,7.45,0,0,0-2.85-.9A17.34,17.34,0,0,0,545.37,593.65Z"/>
      <path class="cls-4" d="M530.19,594.13l-.33-.94a18.51,18.51,0,0,1,4.31-1,8.19,8.19,0,0,1,3.34,1l-.49.87a7.4,7.4,0,0,0-2.85-.91A17.34,17.34,0,0,0,530.19,594.13Z"/>
      <g class="cls-15">
        <g>
          <path class="cls-14" d="M531.81,621.32s7.06,5.19,13.4,5.35c7.71.21,13-5.2,13-5.2L576,628.16a15.07,15.07,0,0,1,5.37,4.79c3.07,4.44,5.34,16.12,6.78,22.14.12.5-.77.18-.66.6h-.62l-41.65,5-38.89-4.47c1.42-5.45,3.73-18.43,7.05-23.24a15.07,15.07,0,0,1,5.37-4.79l13.43-6.47"/>
          <path class="cls-8" d="M545.21,661.16h-.06l-39.46-4.53.14-.56c.32-1.21.68-2.79,1.09-4.62,1.44-6.32,3.4-15,6-18.78a15.8,15.8,0,0,1,5.56-4.94l13.32-6.43.28-.37c.07.05,7,5.09,13.11,5.25,7.39.21,12.59-5,12.64-5l.23-.23,18.07,6.8a15.73,15.73,0,0,1,5.61,5c2.64,3.81,4.64,12.63,6.1,19.06.27,1.19.52,2.29.75,3.25a.75.75,0,0,1-.08.59.83.83,0,0,1-.49.32l.08.31h-1.27Zm-38.27-5.4,38.27,4.39,41.59-5h.33a.83.83,0,0,1,.46-.24c-.21-.9-.44-1.91-.69-3-1.45-6.35-3.43-15.06-5.95-18.71a14.64,14.64,0,0,0-5.2-4.63l-17.41-6.55a19.57,19.57,0,0,1-13.15,5.12c-5.31-.14-11-3.63-13-4.95L519,628.61a14.63,14.63,0,0,0-5.18,4.62c-2.52,3.65-4.46,12.2-5.88,18.44C507.54,653.23,507.23,654.62,506.94,655.76Z"/>
        </g>
      </g>
      <path class="cls-4" d="M543.67,557.37a49,49,0,1,1-49,49,49.05,49.05,0,0,1,49-49m0-1a50,50,0,1,0,50,50,50,50,0,0,0-50-50Z"/>
    </g>
    <path class="cls-11" d="M555.09,586.66c0,2.93-9.4.84-15.12.84s-12.81-1.65-12.81-4.58,7.09-6,12.81-6S555.09,583.73,555.09,586.66Z"/>
    <g>
      <path class="cls-11" d="M554.92,587.38c-8.22,3-23.76,3.94-27.76-4.46"/>
      <path class="cls-8" d="M542.14,590c-.93,0-1.84,0-2.72-.11-4.5-.37-10.35-1.84-12.71-6.8l.9-.42c3.7,7.76,18.4,7.41,27.14,4.2l.35.94A39.34,39.34,0,0,1,542.14,590Z"/>
    </g>
    <rect class="cls-8" x="294.07" y="494.29" width="50.82" height="1"/>
    <rect class="cls-8" x="283.34" y="511.23" width="61.55" height="1"/>
    <rect class="cls-8" x="283.34" y="528.17" width="61.55" height="1"/>
    <rect class="cls-8" x="283.34" y="545.11" width="61.55" height="1"/>
    <rect class="cls-8" x="283.34" y="562.05" width="50.26" height="1"/>
    <g>
      <path class="cls-14" d="M206.22,277.91h1.92v6.28c0,2.3-1.26,3.15-3.34,3.15-1.44,0-2.8-.56-3-2.25h1.77c.12.59.5.91,1.27.91a1.32,1.32,0,0,0,1.4-1.49v-.75a2,2,0,0,1-1.84,1c-1.65,0-2.92-1.25-2.92-3.51s1.27-3.53,2.92-3.53a2,2,0,0,1,1.84,1Zm-1.42,1.22c-.91,0-1.42.89-1.42,2.15s.51,2.14,1.42,2.14,1.49-.8,1.49-2.14S205.73,279.13,204.8,279.13Z"/>
      <path class="cls-14" d="M210.49,284.9v-1.4h2.09v-4.19h-2.09v-1.4h4v5.59h2.11v1.4Zm4-9.42v1.73h-1.93v-1.73Z"/>
      <path class="cls-14" d="M220.46,276h1.93v1.87h2.81v1.42h-2.81v3.38c0,.66.23.79.79.79h2v1.4h-2.7c-1.57,0-2-.5-2-1.89v-3.68h-2.09v-1.42h2.09Z"/>
      <path class="cls-14" d="M197.51,295.59c-.14-.61-.65-.87-1.48-.87-.59,0-1.05.23-1.05.61s.41.62.93.75l.79.19c1.42.32,2.55.7,2.55,2.09s-1.4,2.31-3,2.31a2.82,2.82,0,0,1-3.11-2.52h1.7c.08.72.6,1.15,1.49,1.15.72,0,1.16-.25,1.16-.72s-.51-.68-1.11-.82l-.86-.19c-1.31-.3-2.21-.87-2.21-2.11s1.26-2.11,2.83-2.11a2.82,2.82,0,0,1,3,2.24Z"/>
      <path class="cls-14" d="M203.16,291.64h1.93v1.87h2.81v1.42h-2.81v3.38c0,.66.22.79.79.79h2v1.4h-2.7c-1.57,0-2-.5-2-1.89v-3.68h-2.09v-1.42h2.09Z"/>
      <path class="cls-14" d="M212.54,300.67a2.23,2.23,0,0,1-2.43-2c0-1.78,2.1-2.14,4.53-2.44V296c0-1.08-.49-1.44-1.28-1.44a1.17,1.17,0,0,0-1.34,1.13h-1.73c.14-1.38,1.3-2.39,3.14-2.39s3,.7,3,3.07c0,.22,0,1.15,0,1.79a7.59,7.59,0,0,0,.14,2.31h-1.75v-.89A2.54,2.54,0,0,1,212.54,300.67Zm2.15-3.34c-1.86.18-2.68.39-2.68,1.22,0,.52.36.85,1.06.85,1.2,0,1.62-.75,1.62-1.89Z"/>
      <path class="cls-14" d="M223.46,295.59c-.13-.61-.64-.87-1.47-.87-.59,0-1.06.23-1.06.61s.41.62.94.75l.79.19c1.42.32,2.54.7,2.54,2.09s-1.39,2.31-3,2.31a2.83,2.83,0,0,1-3.11-2.52h1.7a1.31,1.31,0,0,0,1.49,1.15c.72,0,1.17-.25,1.17-.72s-.51-.68-1.12-.82l-.85-.19c-1.32-.3-2.21-.87-2.21-2.11s1.26-2.11,2.82-2.11a2.82,2.82,0,0,1,3,2.24Z"/>
      <path class="cls-14" d="M229.63,291.08v3.25a2.24,2.24,0,0,1,1.93-1c1.66,0,2.33,1.08,2.33,2.76v4.39H232v-4.08c0-.74-.06-1.62-1-1.62s-1.29.93-1.29,2v3.7H227.7v-9.42Z"/>
    </g>
    <g>
      <path class="cls-16" d="M404.66,277.35h1.92v6.27c0,2.31-1.26,3.15-3.34,3.15-1.45,0-2.8-.56-3-2.25H402c.12.6.51.91,1.27.91a1.32,1.32,0,0,0,1.41-1.48v-.75a2,2,0,0,1-1.85,1c-1.65,0-2.92-1.25-2.92-3.51s1.27-3.52,2.92-3.52a2,2,0,0,1,1.85,1Zm-1.42,1.22c-.91,0-1.42.88-1.42,2.14s.51,2.15,1.42,2.15,1.49-.81,1.49-2.15S404.16,278.57,403.24,278.57Z"/>
      <path class="cls-16" d="M408.93,284.34v-1.4H411v-4.19h-2.09v-1.4h4v5.59h2.1v1.4Zm4-9.43v1.73H411v-1.73Z"/>
      <path class="cls-16" d="M418.89,275.47h1.93v1.88h2.82v1.41h-2.82v3.38c0,.67.23.8.79.8h2v1.4H420.9c-1.56,0-2-.51-2-1.9v-3.68H416.8v-1.41h2.09Z"/>
      <path class="cls-16" d="M439.2,279.43c-.14-.62-.65-.88-1.48-.88-.59,0-1.06.24-1.06.62s.42.62.94.75l.79.18c1.42.33,2.55.7,2.55,2.09s-1.39,2.32-3,2.32a2.82,2.82,0,0,1-3.11-2.52h1.7c.08.71.6,1.14,1.49,1.14.72,0,1.16-.25,1.16-.71s-.51-.68-1.11-.82l-.86-.2c-1.31-.3-2.21-.87-2.21-2.1s1.26-2.11,2.83-2.11a2.82,2.82,0,0,1,3,2.24Z"/>
      <path class="cls-16" d="M444.85,275.47h1.93v1.88h2.81v1.41h-2.81v3.38c0,.67.22.8.79.8h2v1.4h-2.7c-1.57,0-2-.51-2-1.9v-3.68h-2.09v-1.41h2.09Z"/>
      <path class="cls-16" d="M454.23,284.51a2.23,2.23,0,0,1-2.43-2c0-1.78,2.1-2.15,4.52-2.45v-.15c0-1.08-.48-1.45-1.27-1.45a1.17,1.17,0,0,0-1.34,1.14H452c.14-1.38,1.3-2.4,3.14-2.4s3.05.71,3.05,3.07c0,.22,0,1.16,0,1.8a7.66,7.66,0,0,0,.14,2.31h-1.75v-.9A2.55,2.55,0,0,1,454.23,284.51Zm2.15-3.34c-1.86.18-2.68.39-2.68,1.22,0,.52.36.84,1.06.84,1.2,0,1.62-.75,1.62-1.88Z"/>
      <path class="cls-16" d="M465.15,279.43c-.13-.62-.64-.88-1.47-.88-.59,0-1.06.24-1.06.62s.41.62.94.75l.79.18c1.42.33,2.54.7,2.54,2.09s-1.39,2.32-3,2.32a2.83,2.83,0,0,1-3.11-2.52h1.7c.08.71.61,1.14,1.49,1.14.72,0,1.17-.25,1.17-.71s-.51-.68-1.12-.82l-.85-.2c-1.32-.3-2.21-.87-2.21-2.1s1.26-2.11,2.82-2.11a2.82,2.82,0,0,1,3,2.24Z"/>
      <path class="cls-16" d="M471.32,274.91v3.25a2.23,2.23,0,0,1,1.93-1c1.66,0,2.33,1.08,2.33,2.76v4.39h-1.93v-4.08c0-.74-.06-1.63-1-1.63s-1.29.94-1.29,2v3.71h-1.93v-9.43Z"/>
      <path class="cls-16" d="M427.92,293.83a2,2,0,0,1,1.85-1c1.65,0,2.92,1.27,2.92,3.67s-1.27,3.65-2.92,3.65a2,2,0,0,1-1.85-1v3.14H426V293h1.93Zm1.42,4.9c.9,0,1.42-.87,1.42-2.27s-.52-2.29-1.42-2.29-1.49.82-1.49,2.29S428.42,298.73,429.34,298.73Z"/>
      <path class="cls-16" d="M437.91,300.11c-1.77,0-3.44-1-3.44-3.67s1.67-3.65,3.44-3.65,3.44,1,3.44,3.65S439.67,300.11,437.91,300.11Zm0-5.94c-.92,0-1.51.66-1.51,2.27s.59,2.29,1.51,2.29,1.51-.68,1.51-2.29S438.84,294.17,437.91,294.17Z"/>
      <path class="cls-16" d="M445.22,293.83a2,2,0,0,1,1.85-1c1.65,0,2.92,1.27,2.92,3.67s-1.27,3.65-2.92,3.65a2,2,0,0,1-1.85-1v3.14h-1.93V293h1.93Zm1.42,4.9c.9,0,1.42-.87,1.42-2.27s-.52-2.29-1.42-2.29-1.49.82-1.49,2.29S445.72,298.73,446.64,298.73Z"/>
    </g>
    <path class="cls-14" d="M123.41,333a1.49,1.49,0,0,1-1.49-1.46c-.61-26.3,8.69-50.42,26.88-69.75a111.43,111.43,0,0,1,61.58-33c18.9-3.14,36.72-.72,51.53,7,16.31,8.5,28.19,23.25,34.34,42.66a1.5,1.5,0,1,1-2.86.91c-8.93-28.17-35.3-55.47-82.51-47.61A108.31,108.31,0,0,0,151,263.83c-12.3,13.07-26.81,35.42-26.07,67.63a1.5,1.5,0,0,1-1.47,1.53Z"/>
    <path class="cls-14" d="M130.89,333a1.5,1.5,0,0,1-1.5-1.47c-1.1-53,38-85.12,77.24-93.4,18.39-3.87,37.05-2.54,52.54,3.77A66,66,0,0,1,296,278.31a1.5,1.5,0,0,1-2.77,1.15,63.1,63.1,0,0,0-35.2-34.8c-14.94-6.08-33-7.36-50.79-3.6-38,8-75.93,39.08-74.86,90.4a1.5,1.5,0,0,1-1.47,1.53Z"/>
    <path class="cls-14" d="M295.76,283a1.49,1.49,0,0,1-.55-.1L279,276.54a1.5,1.5,0,1,1,1.1-2.79l14.79,5.8,5.8-14.79a1.5,1.5,0,0,1,2.8,1.09L297.16,282a1.51,1.51,0,0,1-.8.83A1.53,1.53,0,0,1,295.76,283Z"/>
    <path class="cls-16" d="M508,319h-.16a1.5,1.5,0,0,1-1.34-1.65c4.57-43-13.63-64.91-29.7-75.73-26.89-18.11-68.25-18.69-100.58-1.4-24.93,13.33-39.16,35-39.06,59.6a1.5,1.5,0,0,1-1.5,1.5h0a1.49,1.49,0,0,1-1.5-1.49c-.11-25.69,14.71-48.39,40.65-62.26,33.26-17.79,75.89-17.15,103.66,1.56,16.76,11.29,35.74,34.07,31,78.53A1.5,1.5,0,0,1,508,319Z"/>
    <path class="cls-16" d="M508.5,313.86a1.5,1.5,0,0,1-1.49-1.41c-3.71-58.94-47.6-78.54-84-77.36-20.23.63-40.2,7.5-54.79,18.84-11.18,8.68-24.5,24-24.5,47.59a1.5,1.5,0,0,1-3,0c0-19.36,9.11-37.1,25.66-50,15.08-11.72,35.69-18.82,56.54-19.47,37.79-1.2,83.25,19.09,87.09,80.17a1.5,1.5,0,0,1-1.4,1.59Z"/>
    <path class="cls-16" d="M508,321.14a1.52,1.52,0,0,1-1.06-.44l-12.29-12.3a1.5,1.5,0,0,1,2.12-2.12L508,317.52l11.24-11.24a1.5,1.5,0,0,1,2.12,2.12l-12.3,12.3A1.5,1.5,0,0,1,508,321.14Z"/>
    <rect class="cls-4" x="271.27" y="297.08" width="106.81" height="81.57"/>
    <g>
      <rect class="cls-2" x="276.29" y="292.2" width="105.81" height="80.57"/>
      <path class="cls-4" d="M381.6,292.7v79.57H276.79V292.7H381.6m1-1H275.79v81.57H382.6V291.7Z"/>
    </g>
    <g>
      <path class="cls-14" d="M309.8,341.16a3.92,3.92,0,0,1-1.35-1.14,4.08,4.08,0,0,1-.72-1.59l1.69-1.06a3.87,3.87,0,0,0,.81,1.65,1.82,1.82,0,0,0,1.42.63,1.6,1.6,0,0,0,1.06-.33,1.23,1.23,0,0,0,.41-1,1.16,1.16,0,0,0-.28-.74,2.72,2.72,0,0,0-.68-.56c-.27-.16-.66-.36-1.16-.61l-.47-.22A4.42,4.42,0,0,1,309,335a2.88,2.88,0,0,1-.58-1.87,3.07,3.07,0,0,1,.39-1.54,2.84,2.84,0,0,1,1.11-1.09,3.36,3.36,0,0,1,1.63-.39,3.16,3.16,0,0,1,3.18,2L313,333.19a1.53,1.53,0,0,0-1.5-1.19,1.15,1.15,0,0,0-.8.3.92.92,0,0,0-.34.73,1.09,1.09,0,0,0,.3.76,2.68,2.68,0,0,0,.72.56c.28.16.69.36,1.23.61a7.68,7.68,0,0,1,1.33.75,3.16,3.16,0,0,1,.88,1,3.09,3.09,0,0,1,.34,1.51,3.43,3.43,0,0,1-.45,1.77,3.11,3.11,0,0,1-1.28,1.18,4.18,4.18,0,0,1-1.87.41A3.85,3.85,0,0,1,309.8,341.16Z"/>
      <path class="cls-14" d="M318.63,332.13h-3.14V330.2h8.36v1.93h-3.13v9.32h-2.09Z"/>
      <path class="cls-14" d="M326.82,330.2h2.09l3.81,11.25h-2.25l-.82-2.65h-3.57l-.82,2.65H323Zm2.23,6.67L327.86,333l-1.18,3.91Z"/>
      <path class="cls-14" d="M335.46,341.16a3.92,3.92,0,0,1-1.35-1.14,4.08,4.08,0,0,1-.72-1.59l1.69-1.06a3.87,3.87,0,0,0,.81,1.65,1.8,1.8,0,0,0,1.42.63,1.62,1.62,0,0,0,1.06-.33,1.23,1.23,0,0,0,.4-1,1.15,1.15,0,0,0-.27-.74,2.72,2.72,0,0,0-.68-.56c-.28-.16-.66-.36-1.17-.61l-.46-.22a4.45,4.45,0,0,1-1.55-1.22,2.94,2.94,0,0,1-.57-1.87,3.07,3.07,0,0,1,.39-1.54,2.84,2.84,0,0,1,1.11-1.09,3.36,3.36,0,0,1,1.63-.39,3.16,3.16,0,0,1,3.18,2l-1.69,1.08A1.51,1.51,0,0,0,337.2,332a1.15,1.15,0,0,0-.8.3.92.92,0,0,0-.34.73,1.09,1.09,0,0,0,.3.76,2.53,2.53,0,0,0,.72.56c.28.16.69.36,1.23.61a8,8,0,0,1,1.32.75,2.88,2.88,0,0,1,1.23,2.51,3.34,3.34,0,0,1-.46,1.77,3.08,3.08,0,0,1-1.27,1.18,4.18,4.18,0,0,1-1.87.41A3.85,3.85,0,0,1,335.46,341.16Z"/>
      <path class="cls-14" d="M342.69,330.2h2.09v4.27h4.5V330.2h2.09v11.25h-2.09V336.4h-4.5v5.05h-2.09Z"/>
    </g>
    <g>
      <g>
        <circle class="cls-7" cx="405.7" cy="518.04" r="20.64"/>
        <path class="cls-8" d="M405.7,539.19A21.15,21.15,0,1,1,426.84,518,21.18,21.18,0,0,1,405.7,539.19Zm0-41.29A20.15,20.15,0,1,0,425.84,518,20.17,20.17,0,0,0,405.7,497.9Z"/>
      </g>
      <path class="cls-3" d="M405.7,528a1.51,1.51,0,0,1-.77-.21l-7.34-4.35a1.5,1.5,0,1,1,1.53-2.58l5.83,3.46,6.7-16.78a1.5,1.5,0,0,1,2.79,1.11l-7.35,18.41a1.46,1.46,0,0,1-.91.86A1.34,1.34,0,0,1,405.7,528Z"/>
    </g>
    <path class="cls-4" d="M289.42,492v1.34l-3.64,1.43,3.64,1.43v1.35l-5.15-2.21v-1.14Z"/>
    <path class="cls-4" d="M339.14,565.3V564l3.64-1.43-3.64-1.43v-1.35L344.3,562v1.14Z"/>
    <g>
      <rect class="cls-2" x="91.2" y="330.03" width="79" height="99"/>
      <path class="cls-4" d="M169.7,330.53v98h-78v-98h78m1-1h-80v100h80v-100Z"/>
    </g>
    <g>
      <rect class="cls-2" x="83.4" y="337.82" width="79" height="99"/>
      <path class="cls-4" d="M161.9,338.32v98h-78v-98h78m1-1h-80v100h80v-100Z"/>
    </g>
    <rect class="cls-8" x="102.07" y="354.24" width="50.82" height="1"/>
    <rect class="cls-8" x="91.34" y="371.18" width="61.55" height="1"/>
    <rect class="cls-8" x="91.34" y="388.12" width="61.55" height="1"/>
    <rect class="cls-8" x="91.34" y="405.06" width="61.55" height="1"/>
    <rect class="cls-8" x="91.34" y="422" width="50.26" height="1"/>
    <path class="cls-4" d="M97.42,351.94v1.34l-3.64,1.43,3.64,1.43v1.35l-5.15-2.21v-1.14Z"/>
    <path class="cls-4" d="M147.14,425.26v-1.34l3.64-1.43-3.64-1.43v-1.35l5.16,2.21v1.14Z"/>
    <g>
      <rect class="cls-2" x="472.37" y="330.03" width="79" height="99"/>
      <path class="cls-4" d="M550.87,330.53v98h-78v-98h78m1-1h-80v100h80v-100Z"/>
    </g>
    <g>
      <rect class="cls-2" x="464.58" y="337.82" width="79" height="99"/>
      <path class="cls-4" d="M543.08,338.32v98h-78v-98h78m1-1h-80v100h80v-100Z"/>
    </g>
    <rect class="cls-8" x="483.24" y="354.24" width="50.82" height="1"/>
    <rect class="cls-8" x="472.51" y="371.18" width="61.55" height="1"/>
    <rect class="cls-8" x="472.51" y="388.12" width="61.55" height="1"/>
    <rect class="cls-8" x="472.51" y="405.06" width="61.55" height="1"/>
    <rect class="cls-8" x="472.51" y="422" width="50.26" height="1"/>
    <path class="cls-4" d="M478.6,351.94v1.34L475,354.71l3.64,1.43v1.35l-5.16-2.21v-1.14Z"/>
    <path class="cls-4" d="M528.32,425.26v-1.34l3.64-1.43-3.64-1.43v-1.35l5.16,2.21v1.14Z"/>
  </g>
</svg>
