<svg xmlns="http://www.w3.org/2000/svg" viewBox="0 0 640 420">
  <defs>
    <style>
      .cls-1 {
        fill: #f3faff;
      }

      .cls-2 {
        fill: #3a10e4;
      }

      .cls-3 {
        fill: #008a27;
      }

      .cls-4 {
        fill: #10162f;
      }
    </style>
  </defs>
  <g id="Layer_1" data-name="Layer 1">
    <g>
      <rect class="cls-1" x="0.5" y="0.5" width="639" height="419"/>
      <path d="M639,1V419H1V1H639m1-1H0V420H640V0Z"/>
    </g>
  </g>
  <g id="Layer_2" data-name="Layer 2">
    <path class="cls-2" d="M196.68,254a1.5,1.5,0,0,1,0-3c62-1.37,71.28-25.9,80.3-49.62,7.92-20.83,15.37-40.49,58-40.24a1.5,1.5,0,0,1,0,3h-.86c-39.8,0-46.55,17.76-54.37,38.31-8.93,23.5-19.06,50.13-83,51.55Z"/>
    <path class="cls-3" d="M334.14,343.6c-41.89,0-49.32-19.55-57.19-40.24-9-23.72-18.34-48.24-80.3-49.62l.07-3c64,1.42,74.1,28.05,83,51.55,7.87,20.7,14.66,38.59,55.22,38.31l0,3Z"/>
    <path class="cls-2" d="M486.55,254c-58.63,0-69.6-26.31-79.29-49.52-8.76-21-17.07-40.86-59-40.34h0a1.5,1.5,0,0,1,0-3c44-.54,52.63,20.21,61.79,42.18,9.78,23.44,19.89,47.68,76.52,47.68a1.5,1.5,0,0,1,0,3Z"/>
    <rect class="cls-4" x="61.24" y="250.96" width="431.98" height="3"/>
    <rect class="cls-3" x="338.62" y="340.04" width="146.13" height="3"/>
    <g>
      <circle class="cls-4" cx="61.08" cy="252.46" r="18.5"/>
      <path class="cls-4" d="M61.08,234.46a18,18,0,1,1-18,18,18,18,0,0,1,18-18m0-1a19,19,0,1,0,19,19,19,19,0,0,0-19-19Z"/>
    </g>
    <g>
      <circle class="cls-4" cx="484.68" cy="252.46" r="18.5"/>
      <path class="cls-4" d="M484.68,234.46a18,18,0,1,1-18,18,18,18,0,0,1,18-18m0-1a19,19,0,1,0,19,19,19,19,0,0,0-19-19Z"/>
    </g>
    <g>
      <circle class="cls-3" cx="340.55" cy="339.86" r="18.5"/>
      <path class="cls-3" d="M340.55,321.86a18,18,0,1,1-18,18,18,18,0,0,1,18-18m0-1a19,19,0,1,0,19,19,19,19,0,0,0-19-19Z"/>
    </g>
    <g>
      <circle class="cls-3" cx="484.57" cy="339.86" r="18.5"/>
      <path class="cls-3" d="M484.57,321.86a18,18,0,1,1-18,18,18,18,0,0,1,18-18m0-1a19,19,0,1,0,19,19,19,19,0,0,0-19-19Z"/>
    </g>
    <g>
      <circle class="cls-4" cx="196.63" cy="252.46" r="18.5"/>
      <path class="cls-4" d="M196.63,234.46a18,18,0,1,1-18,18,18,18,0,0,1,18-18m0-1a19,19,0,1,0,19,19,19,19,0,0,0-19-19Z"/>
    </g>
    <g>
      <circle class="cls-2" cx="340.6" cy="162.6" r="17.5"/>
      <path class="cls-2" d="M340.6,146.6a16,16,0,1,1-16,16,16,16,0,0,1,16-16m0-3a19,19,0,1,0,19,19,19,19,0,0,0-19-19Z"/>
    </g>
    <g>
      <path class="cls-4" d="M51,279.82h2.16v7.25H51.71v-3.3l0-2.72h-.06l-.62,3.69H50l-.61-3.69h-.07l0,2.72v3.3H47.89v-7.25H50l.49,3.07Z"/>
      <path class="cls-4" d="M56.05,279.82h1.87l1.87,7.25H58.15l-.33-1.51h-1.7l-.33,1.51H54.2Zm.33,4.57h1.18L57,281.73Z"/>
      <path class="cls-4" d="M61,279.82h4.93v1.29H64.2v4.67h1.72v1.29H61v-1.29H62.7v-4.67H61Z"/>
      <path class="cls-4" d="M70.51,287.07l-1.59-5v5h-1.5v-7.25H69.3l1.6,5v-5h1.5v7.25Z"/>
    </g>
    <path class="cls-3" d="M339.93,365.05h1.87l1.87,7.25H342l-.33-1.51H340l-.33,1.51h-1.6Zm.33,4.57h1.18l-.58-2.66Z"/>
    <path class="cls-3" d="M482.62,365.05h2.25c1.4,0,2.46.37,2.46,1.87a1.79,1.79,0,0,1-.78,1.49,1.65,1.65,0,0,1,1,1.64c0,1.62-1.05,2.25-2.59,2.25h-2.37Zm2.23,3a.88.88,0,1,0,0-1.76h-.73V368Zm.08,1.1h-.81v1.93h.81c.74,0,1.06-.32,1.06-1S485.67,369.13,484.93,369.13Z"/>
    <g>
      <path class="cls-2" d="M315.6,129.36H317v7.13H315.6v-2.42a1.5,1.5,0,0,1-1.38.8c-1.23,0-2.18-1-2.18-2.81s.95-2.82,2.18-2.82a1.5,1.5,0,0,1,1.38.8Zm-1.06.94c-.68,0-1.06.68-1.06,1.76s.38,1.75,1.06,1.75,1.11-.62,1.11-1.75S315.23,130.3,314.54,130.3Z"/>
      <path class="cls-2" d="M321.94,134.15a1.54,1.54,0,0,1-1.37.72c-1.3,0-1.81-.83-1.81-2.12v-3.39h1.44v3.15c0,.57.06,1.25.79,1.25s.95-.72.95-1.54v-2.86h1.44v5.38h-1.44Z"/>
      <path class="cls-2" d="M325.25,134.74v-1.08h1.56v-3.22h-1.56v-1.08h3v4.3h1.57v1.08Zm3-7.25v1.33h-1.44v-1.33Z"/>
      <path class="cls-2" d="M336.34,131.3H335c-.08-.57-.35-1-1-1s-1,.55-1,1.76.4,1.75,1,1.75c.44,0,.89-.22,1-1h1.38a2.34,2.34,0,0,1-2.42,2.1c-1.57,0-2.46-1.18-2.46-2.81s.91-2.82,2.49-2.82A2.26,2.26,0,0,1,336.34,131.3Z"/>
      <path class="cls-2" d="M339.56,133.23v1.51h-1.43v-7.25h1.43v4l1.77-2.08h1.6l-1.83,2.09,1.94,3.29h-1.59l-1.28-2.21Z"/>
      <path class="cls-2" d="M344.65,136v-1.21h4.48V136Z"/>
      <path class="cls-2" d="M352.06,129.07c0-1.37.7-1.58,2-1.58h1.73v1.07h-1.55c-.6,0-.72.08-.72.5v.3h2.27v1.08H353.5v4.3h-1.44v-4.3H350.5v-1.08h1.56Z"/>
      <path class="cls-2" d="M357.55,134.74v-1.08h1.56v-3.22h-1.56v-1.08h3v4.3h1.57v1.08Zm3-7.25v1.33h-1.44v-1.33Z"/>
      <path class="cls-2" d="M365.53,132l-1.74-2.67h1.58l.95,1.52,1-1.52h1.46L367,131.93l1.85,2.81h-1.59l-1-1.66-1.07,1.66h-1.46Z"/>
    </g>
    <g>
      <path class="cls-4" d="M255.43,44.69a4.67,4.67,0,0,1,3.21,1.06,3.9,3.9,0,0,1,1.19,3.1,3.71,3.71,0,0,1-.39,1.71,2.62,2.62,0,0,1-1.13,1.13,3.66,3.66,0,0,1,2.31,3.76,4.36,4.36,0,0,1-1.35,3.43,5.37,5.37,0,0,1-3.73,1.21H249.8V44.69Zm1.2,5.6a2,2,0,0,0,0-2.57,2.16,2.16,0,0,0-1.41-.39h-2.55v3.35h2.62A2,2,0,0,0,256.63,50.29Zm.54,6.64a2,2,0,0,0,.59-1.54,1.93,1.93,0,0,0-.59-1.54,2.77,2.77,0,0,0-1.89-.53h-2.62v4.13h2.62A2.83,2.83,0,0,0,257.17,56.93Z"/>
      <path class="cls-4" d="M273.05,55.43H265.4a2.94,2.94,0,0,0,.87,1.87,2.49,2.49,0,0,0,1.77.64,2.74,2.74,0,0,0,1.55-.42,3.78,3.78,0,0,0,1.13-1.3l2.2.82a5,5,0,0,1-5,3.23,5,5,0,0,1-3-.85,5,5,0,0,1-1.76-2.15,6.89,6.89,0,0,1,0-5.44,5,5,0,0,1,1.76-2.15,5,5,0,0,1,3-.85,4.92,4.92,0,0,1,2.91.82,5,5,0,0,1,1.71,2.08,6.33,6.33,0,0,1,.55,2.58Zm-2.79-2.16a3,3,0,0,0-.78-1.51,2.13,2.13,0,0,0-1.6-.6,2.26,2.26,0,0,0-1.51.54,3,3,0,0,0-.91,1.57Z"/>
      <path class="cls-4" d="M274.17,51.34V49h1.41v-.58a3.5,3.5,0,0,1,3.83-3.91,4.23,4.23,0,0,1,2.07.44l-.6,2.2a3.31,3.31,0,0,0-1.32-.31c-.83,0-1.25.46-1.25,1.39V49h2.33v2.33h-2.33v8.75h-2.73V51.34Z"/>
      <path class="cls-4" d="M284.4,59.52a5,5,0,0,1-1.94-2,6.74,6.74,0,0,1,0-5.86,5,5,0,0,1,1.94-2,6.44,6.44,0,0,1,6,0,5,5,0,0,1,1.95,2,6.74,6.74,0,0,1,0,5.86,5,5,0,0,1-1.95,2,6.44,6.44,0,0,1-6,0Zm5-2.56a4.25,4.25,0,0,0,0-4.82,2.58,2.58,0,0,0-4.05,0,4.29,4.29,0,0,0,0,4.82,2.58,2.58,0,0,0,4.05,0Z"/>
      <path class="cls-4" d="M298.24,49v1.8a4.4,4.4,0,0,1,1.45-1.46,3.48,3.48,0,0,1,1.83-.52,4.51,4.51,0,0,1,1.34.22l-.5,2.53a2.22,2.22,0,0,0-1.15-.31,2.52,2.52,0,0,0-2.13,1.18,6.46,6.46,0,0,0-.84,3.71v3.93h-2.73V49Z"/>
      <path class="cls-4" d="M314.06,55.43H306.4a3,3,0,0,0,.87,1.87,2.52,2.52,0,0,0,1.77.64,2.75,2.75,0,0,0,1.56-.42,3.88,3.88,0,0,0,1.13-1.3l2.2.82a5,5,0,0,1-5,3.23,5,5,0,0,1-3-.85,5,5,0,0,1-1.76-2.15,6.89,6.89,0,0,1,0-5.44,5,5,0,0,1,1.76-2.15,5,5,0,0,1,3-.85,4.87,4.87,0,0,1,2.9.82,5.07,5.07,0,0,1,1.72,2.08,6.33,6.33,0,0,1,.55,2.58Zm-2.79-2.16a3.12,3.12,0,0,0-.78-1.51,2.13,2.13,0,0,0-1.6-.6,2.28,2.28,0,0,0-1.52.54,3,3,0,0,0-.9,1.57Z"/>
      <path class="cls-4" d="M327.81,44.69a4.71,4.71,0,0,1,3.46,1.2,4.24,4.24,0,0,1,1.23,3.18,4.5,4.5,0,0,1-.75,2.63,3.83,3.83,0,0,1-2.14,1.51l4.27,6.88h-3.19l-4.13-6.64h-1.5v6.64H322.2V44.69Zm1.34,5.7a2,2,0,0,0,0-2.64,1.94,1.94,0,0,0-1.32-.42h-2.77v3.48h2.77A1.94,1.94,0,0,0,329.15,50.39Z"/>
      <path class="cls-4" d="M345.12,55.43h-7.65a3,3,0,0,0,.87,1.87,2.49,2.49,0,0,0,1.77.64,2.74,2.74,0,0,0,1.55-.42,3.78,3.78,0,0,0,1.13-1.3L345,57a5,5,0,0,1-5,3.23,4.92,4.92,0,0,1-4.76-3,6.89,6.89,0,0,1,0-5.44,4.92,4.92,0,0,1,4.76-3,4.77,4.77,0,0,1,4.62,2.9,6.33,6.33,0,0,1,.55,2.58Zm-2.79-2.16a3,3,0,0,0-.78-1.51,2.13,2.13,0,0,0-1.6-.6,2.26,2.26,0,0,0-1.51.54,3,3,0,0,0-.91,1.57Z"/>
      <path class="cls-4" d="M351.32,59.85a2.49,2.49,0,0,1-1-.9v1.14h-2.73V44.52h2.73V50a3.07,3.07,0,0,1,1.12-.84,3.7,3.7,0,0,1,1.56-.35,4.64,4.64,0,0,1,3.75,1.55,6.29,6.29,0,0,1,1.31,4.17,6.26,6.26,0,0,1-1.31,4.17A4.64,4.64,0,0,1,353,60.27,3.33,3.33,0,0,1,351.32,59.85ZM354.47,57a4.63,4.63,0,0,0,0-5,2.35,2.35,0,0,0-3.68,0,4.7,4.7,0,0,0,0,5,2.34,2.34,0,0,0,3.68,0Z"/>
      <path class="cls-4" d="M360.77,59.39a3.56,3.56,0,0,1,.3-5.13,5.34,5.34,0,0,1,3.39-1h1.94v-.48a1.44,1.44,0,0,0-.55-1.22,2.29,2.29,0,0,0-1.39-.41,1.87,1.87,0,0,0-1.91,1.28l-2.31-.53a3.46,3.46,0,0,1,1.42-2.23,4.56,4.56,0,0,1,2.8-.85A4.73,4.73,0,0,1,367.9,50a4.57,4.57,0,0,1,1.23,3.46v6.62h-2.25l-.28-1.4a4.23,4.23,0,0,1-3.41,1.58A3.38,3.38,0,0,1,360.77,59.39Zm4.88-2.08a2.06,2.06,0,0,0,.75-1.66v-.22h-1.83a2.43,2.43,0,0,0-1.4.35,1.25,1.25,0,0,0-.49,1.08,1,1,0,0,0,.34.78,1.3,1.3,0,0,0,.89.3A2.62,2.62,0,0,0,365.65,57.31Z"/>
      <path class="cls-4" d="M372.5,59.39A4.17,4.17,0,0,1,371,57.28l2.18-1.17a3.19,3.19,0,0,0,.87,1.34,1.94,1.94,0,0,0,1.33.49,1.44,1.44,0,0,0,.9-.28.93.93,0,0,0,.38-.8,1,1,0,0,0-.57-.87,10.64,10.64,0,0,0-1.72-.8,5.09,5.09,0,0,1-1.95-1.28,3.07,3.07,0,0,1-.24-3.54,3.28,3.28,0,0,1,1.24-1.12,3.81,3.81,0,0,1,1.81-.42,4.44,4.44,0,0,1,2,.47,3.41,3.41,0,0,1,1.43,1.33l-1.62,1.5a2.06,2.06,0,0,0-1.79-1,1.31,1.31,0,0,0-.76.23.73.73,0,0,0-.31.61.92.92,0,0,0,.46.73,7.79,7.79,0,0,0,1.8.83,5,5,0,0,1,2,1.21,2.69,2.69,0,0,1,.71,1.91,3.36,3.36,0,0,1-1.06,2.61,3.86,3.86,0,0,1-2.73,1A4.58,4.58,0,0,1,372.5,59.39Z"/>
      <path class="cls-4" d="M391,55.43h-7.66a3,3,0,0,0,.87,1.87,2.49,2.49,0,0,0,1.77.64,2.72,2.72,0,0,0,1.55-.42,3.79,3.79,0,0,0,1.14-1.3l2.2.82a5.05,5.05,0,0,1-5,3.23,4.92,4.92,0,0,1-4.77-3,6.89,6.89,0,0,1,0-5.44,4.92,4.92,0,0,1,4.77-3,4.89,4.89,0,0,1,2.9.82,5.07,5.07,0,0,1,1.72,2.08,6.5,6.5,0,0,1,.55,2.58Zm-2.8-2.16a3,3,0,0,0-.78-1.51,2.12,2.12,0,0,0-1.59-.6,2.26,2.26,0,0,0-1.52.54,2.9,2.9,0,0,0-.9,1.57Z"/>
    </g>
    <g>
      <path class="cls-3" d="M515.53,338.53v.63a1.62,1.62,0,0,1,1.43-.75c1.24,0,1.75.83,1.75,2.12v3.37h-1.44v-3.13c0-.57-.06-1.25-.79-1.25s-1,.72-1,1.54v2.84h-1.44v-5.37Z"/>
      <path class="cls-3" d="M521.72,341.59c0,1,.59,1.42,1.19,1.42a1,1,0,0,0,1-.78h1.37a2.27,2.27,0,0,1-2.41,1.8,2.44,2.44,0,0,1-2.55-2.76c0-1.72.93-2.86,2.53-2.86s2.57,1.2,2.52,3.18Zm0-.91H524c0-1-.6-1.24-1.17-1.24A1.19,1.19,0,0,0,521.72,340.68Z"/>
      <path class="cls-3" d="M529.92,339.56l.49,2.37.38-3.4h1.4l-.67,5.37H530l-.62-3.3-.63,3.3h-1.56l-.66-5.37h1.39l.38,3.4.5-2.37Z"/>
      <path class="cls-3" d="M533.56,345.11V343.9H538v1.21Z"/>
      <path class="cls-3" d="M541,338.24c0-1.37.7-1.58,2-1.58h1.73v1.07h-1.55c-.6,0-.72.08-.72.5v.3h2.27v1.08h-2.27v4.29H541v-4.29h-1.56v-1.08H541Z"/>
      <path class="cls-3" d="M547.56,341.59c.05,1,.59,1.42,1.19,1.42a1,1,0,0,0,1-.78h1.37a2.27,2.27,0,0,1-2.41,1.8,2.44,2.44,0,0,1-2.55-2.76c0-1.72.93-2.86,2.53-2.86s2.57,1.2,2.52,3.18Zm0-.91h2.3c0-1-.6-1.24-1.17-1.24A1.19,1.19,0,0,0,547.56,340.68Z"/>
      <path class="cls-3" d="M554.45,344a1.69,1.69,0,0,1-1.82-1.57c0-1.36,1.57-1.64,3.38-1.87v-.12c0-.83-.36-1.11-1-1.11a.88.88,0,0,0-1,.87h-1.29a2.12,2.12,0,0,1,2.34-1.84c1.33,0,2.28.54,2.28,2.36,0,.17,0,.89,0,1.37a5.65,5.65,0,0,0,.11,1.78h-1.31v-.69A1.87,1.87,0,0,1,554.45,344Zm1.6-2.56c-1.39.14-2,.3-2,.94,0,.39.27.64.79.64.9,0,1.21-.58,1.21-1.44Z"/>
      <path class="cls-3" d="M560.36,337.09h1.44v1.44h2.1v1.09h-2.1v2.59c0,.51.17.62.59.62h1.49v1.07h-2c-1.17,0-1.5-.39-1.5-1.45v-2.83H558.8v-1.09h1.56Z"/>
      <path class="cls-3" d="M569,343.31a1.54,1.54,0,0,1-1.37.72c-1.3,0-1.81-.82-1.81-2.11v-3.39h1.44v3.15c0,.57.06,1.24.79,1.24s1-.71,1-1.53v-2.86h1.44v5.37H569Z"/>
      <path class="cls-3" d="M574.84,338.53v.91a1.53,1.53,0,0,1,1.49-.91h.82v1.15h-1c-.91,0-1.26.43-1.26,1.48v1.67h1.95v1.07h-4.73v-1.07h1.34v-3.21h-1.34v-1.09Z"/>
      <path class="cls-3" d="M579.86,341.59c0,1,.59,1.42,1.19,1.42a1,1,0,0,0,1-.78h1.37A2.27,2.27,0,0,1,581,344a2.44,2.44,0,0,1-2.55-2.76c0-1.72.93-2.86,2.53-2.86s2.57,1.2,2.52,3.18Zm0-.91h2.3c0-1-.6-1.24-1.17-1.24A1.19,1.19,0,0,0,579.86,340.68Z"/>
    </g>
    <g>
      <path class="cls-2" d="M456.23,176.46h1.43v7.12h-1.43v-2.41a1.49,1.49,0,0,1-1.38.79c-1.23,0-2.18-1-2.18-2.8s.95-2.82,2.18-2.82a1.5,1.5,0,0,1,1.38.8Zm-1.06.94c-.68,0-1.06.68-1.06,1.76s.38,1.75,1.06,1.75,1.11-.62,1.11-1.75S455.86,177.4,455.17,177.4Z"/>
      <path class="cls-2" d="M462.57,181.25a1.53,1.53,0,0,1-1.37.71c-1.3,0-1.81-.82-1.81-2.11v-3.39h1.44v3.15c0,.57.06,1.25.79,1.25s.95-.72.95-1.54v-2.86H464v5.37h-1.44Z"/>
      <path class="cls-2" d="M465.88,181.83v-1.07h1.56v-3.22h-1.56v-1.08h3v4.3h1.57v1.07Zm3-7.24v1.33h-1.44v-1.33Z"/>
      <path class="cls-2" d="M477,178.4h-1.36c-.08-.57-.35-1-1-1s-1,.55-1,1.76.4,1.75,1,1.75c.44,0,.89-.22,1-1H477A2.33,2.33,0,0,1,474.6,182c-1.57,0-2.46-1.17-2.46-2.8s.91-2.82,2.49-2.82A2.26,2.26,0,0,1,477,178.4Z"/>
      <path class="cls-2" d="M480.19,180.33v1.5h-1.44v-7.24h1.44v3.95l1.77-2.08h1.6l-1.83,2.09,1.94,3.28h-1.59l-1.28-2.2Z"/>
      <path class="cls-2" d="M485.28,183v-1.21h4.48V183Z"/>
      <path class="cls-2" d="M492.69,176.17c0-1.37.7-1.58,2-1.58h1.73v1.07h-1.55c-.6,0-.72.08-.72.5v.3h2.27v1.08h-2.27v4.29h-1.44v-4.29h-1.56v-1.08h1.56Z"/>
      <path class="cls-2" d="M498.18,181.83v-1.07h1.56v-3.22h-1.56v-1.08h3v4.3h1.57v1.07Zm3-7.24v1.33h-1.44v-1.33Z"/>
      <path class="cls-2" d="M506.16,179.13l-1.74-2.67H506L507,178l1-1.52h1.46L507.63,179l1.85,2.8h-1.59l-1-1.65-1.07,1.65h-1.46Z"/>
      <path class="cls-2" d="M519.13,181.83v-3.59c0-.63,0-.81-.29-.81s-.36.28-.36,1.13v3.27h-1.4v-5.37h1.4v.41a1.09,1.09,0,0,1,.93-.53.93.93,0,0,1,.9.6,1.17,1.17,0,0,1,1-.6c.71,0,1.21.4,1.21,1.69v3.8h-1.4v-3.59c0-.63,0-.81-.29-.81s-.36.28-.36,1.13v3.27Z"/>
      <path class="cls-2" d="M525.12,179.52c0,1,.59,1.43,1.19,1.43a1,1,0,0,0,1-.79h1.37a2.26,2.26,0,0,1-2.41,1.8,2.44,2.44,0,0,1-2.55-2.76c0-1.72.93-2.86,2.53-2.86s2.57,1.2,2.52,3.18Zm0-.91h2.3c0-1-.6-1.24-1.17-1.24A1.19,1.19,0,0,0,525.12,178.61Z"/>
      <path class="cls-2" d="M533,176.46v.91a1.53,1.53,0,0,1,1.49-.91h.82v1.15h-1c-.91,0-1.26.43-1.26,1.48v1.67h2v1.07h-4.73v-1.07h1.34v-3.21h-1.34v-1.09Z"/>
      <path class="cls-2" d="M540.21,176.46h1.43v4.83c0,1.76-.94,2.41-2.49,2.41a2,2,0,0,1-2.26-1.73h1.32a.83.83,0,0,0,.95.7,1,1,0,0,0,1.05-1.13V181a1.51,1.51,0,0,1-1.38.79c-1.23,0-2.18-1-2.18-2.7s1-2.71,2.18-2.71a1.5,1.5,0,0,1,1.38.8Zm-1.06.94c-.68,0-1.06.68-1.06,1.65s.38,1.65,1.06,1.65,1.11-.62,1.11-1.65S539.84,177.4,539.15,177.4Z"/>
      <path class="cls-2" d="M544.5,179.52c0,1,.59,1.43,1.19,1.43a1,1,0,0,0,1-.79h1.37a2.26,2.26,0,0,1-2.41,1.8,2.44,2.44,0,0,1-2.55-2.76c0-1.72.93-2.86,2.53-2.86s2.57,1.2,2.52,3.18Zm0-.91h2.3c0-1-.6-1.24-1.17-1.24A1.19,1.19,0,0,0,544.5,178.61Z"/>
      <path class="cls-2" d="M553.13,174.59h1.43v7.24h-1.42v-.66a1.49,1.49,0,0,1-1.38.79c-1.23,0-2.18-1-2.18-2.8s.95-2.82,2.18-2.82a1.5,1.5,0,0,1,1.38.8Zm-1.06,2.81c-.68,0-1.06.68-1.06,1.76s.38,1.75,1.06,1.75,1.11-.62,1.11-1.75S552.76,177.4,552.07,177.4Z"/>
      <path class="cls-2" d="M476.55,187H478v1.44h2.1v1.09H478v2.6c0,.51.17.61.59.61h1.49v1.07h-2c-1.17,0-1.5-.38-1.5-1.45v-2.83H475v-1.09h1.56Z"/>
      <path class="cls-2" d="M484.29,194a2.82,2.82,0,1,1,2.57-2.81A2.47,2.47,0,0,1,484.29,194Zm0-4.56c-.69,0-1.13.51-1.13,1.75s.44,1.76,1.13,1.76,1.13-.52,1.13-1.76S485,189.4,484.29,189.4Z"/>
      <path class="cls-2" d="M496.52,193.83v-3.59c0-.63,0-.81-.29-.81s-.36.28-.36,1.13v3.27h-1.4v-5.37h1.4v.41a1.09,1.09,0,0,1,.93-.53.93.93,0,0,1,.9.6,1.17,1.17,0,0,1,1-.6c.71,0,1.21.4,1.21,1.69v3.8h-1.4v-3.59c0-.63,0-.81-.29-.81s-.36.28-.36,1.13v3.27Z"/>
      <path class="cls-2" d="M502.94,194a1.68,1.68,0,0,1-1.82-1.56c0-1.37,1.57-1.65,3.38-1.88v-.12c0-.83-.36-1.11-.95-1.11a.88.88,0,0,0-1,.87h-1.29a2.12,2.12,0,0,1,2.34-1.84c1.33,0,2.28.54,2.28,2.36,0,.17,0,.89,0,1.38a5.54,5.54,0,0,0,.11,1.77h-1.31v-.68A1.89,1.89,0,0,1,502.94,194Zm1.6-2.56c-1.39.14-2,.3-2,.94,0,.4.27.65.79.65.9,0,1.21-.58,1.21-1.45Z"/>
      <path class="cls-2" d="M511.09,190.06c-.1-.47-.48-.67-1.1-.67-.44,0-.79.18-.79.47s.31.48.7.58l.59.14c1.06.25,1.9.54,1.9,1.61s-1,1.77-2.24,1.77a2.13,2.13,0,0,1-2.32-1.93h1.27a1,1,0,0,0,1.11.88c.54,0,.87-.19.87-.55s-.38-.52-.83-.63l-.64-.15c-1-.23-1.65-.67-1.65-1.62s.94-1.62,2.11-1.62a2.11,2.11,0,0,1,2.26,1.72Z"/>
      <path class="cls-2" d="M515.31,187h1.44v1.44h2.1v1.09h-2.1v2.6c0,.51.17.61.59.61h1.49v1.07h-2c-1.17,0-1.5-.38-1.5-1.45v-2.83h-1.56v-1.09h1.56Z"/>
      <path class="cls-2" d="M521.89,191.52c.05,1,.59,1.43,1.19,1.43a1,1,0,0,0,1-.79h1.37a2.26,2.26,0,0,1-2.41,1.8,2.44,2.44,0,0,1-2.55-2.76c0-1.72.93-2.86,2.53-2.86s2.57,1.2,2.52,3.18Zm0-.91h2.3c0-1-.6-1.24-1.17-1.24A1.19,1.19,0,0,0,521.89,190.61Z"/>
      <path class="cls-2" d="M529.79,188.46v.91a1.53,1.53,0,0,1,1.49-.91h.82v1.15h-1c-.91,0-1.26.43-1.26,1.48v1.67h2v1.07H527v-1.07h1.34v-3.21H527v-1.09Z"/>
    </g>
    <path class="cls-2" d="M492.34,225.9a1.37,1.37,0,0,1-.52-.1,1.49,1.49,0,0,1-.89-1.92l7-19a1.5,1.5,0,0,1,1.93-.89,1.52,1.52,0,0,1,.89,1.93l-7,19A1.52,1.52,0,0,1,492.34,225.9Z"/>
    <path class="cls-2" d="M492.12,226.35a1.49,1.49,0,0,1-1.36-.86l-4.24-9.08a1.5,1.5,0,0,1,2.72-1.27l3.6,7.72,7.72-3.6a1.5,1.5,0,1,1,1.26,2.72l-9.07,4.23A1.44,1.44,0,0,1,492.12,226.35Z"/>
  </g>
</svg>
