<svg xmlns="http://www.w3.org/2000/svg" viewBox="0 0 640 640">
  <defs>
    <style>
      .cls-1 {
        fill: #f3faff;
      }

      .cls-2 {
        fill: #10162f;
      }

      .cls-3 {
        fill: #3a10e5;
      }

      .cls-4 {
        fill: #f966ff;
      }

      .cls-5 {
        fill: #008a27;
      }
    </style>
  </defs>
  <g id="Layer_2" data-name="Layer 2">
    <g>
      <rect class="cls-1" x="0.5" y="0.5" width="639" height="639"/>
      <path d="M639,1V639H1V1H639m1-1H0V640H640V0Z"/>
    </g>
  </g>
  <g id="Layer_1" data-name="Layer 1">
    <rect class="cls-2" x="462.87" y="312.96" width="3" height="246.74"/>
    <g>
      <circle class="cls-1" cx="464.36" cy="394.31" r="10"/>
      <path class="cls-2" d="M464.36,385.81a8.5,8.5,0,1,1-8.5,8.5,8.51,8.51,0,0,1,8.5-8.5m0-3a11.5,11.5,0,1,0,11.5,11.5,11.5,11.5,0,0,0-11.5-11.5Z"/>
    </g>
    <g>
      <circle class="cls-1" cx="464.36" cy="478.48" r="10"/>
      <path class="cls-2" d="M464.36,470a8.5,8.5,0,1,1-8.5,8.5,8.51,8.51,0,0,1,8.5-8.5m0-3a11.5,11.5,0,1,0,11.5,11.5,11.5,11.5,0,0,0-11.5-11.5Z"/>
    </g>
    <g>
      <circle class="cls-1" cx="464.36" cy="559.49" r="10"/>
      <path class="cls-2" d="M464.36,551a8.5,8.5,0,1,1-8.5,8.5,8.51,8.51,0,0,1,8.5-8.5m0-3a11.5,11.5,0,1,0,11.5,11.5,11.5,11.5,0,0,0-11.5-11.5Z"/>
    </g>
    <g>
      <path class="cls-2" d="M415.65,69.38a6.56,6.56,0,0,1-2.6-2.67,8.9,8.9,0,0,1-1-4.32,8.6,8.6,0,0,1,1-4.3,6.77,6.77,0,0,1,2.69-2.67,7.51,7.51,0,0,1,3.63-.9,6.36,6.36,0,0,1,4.13,1.33,6.73,6.73,0,0,1,2.27,3.53l-2.62.68q-1.19-2.89-3.78-2.9a4.13,4.13,0,0,0-3.19,1.33,5.56,5.56,0,0,0-1.23,3.9,5.58,5.58,0,0,0,1.21,3.94,4.07,4.07,0,0,0,3.14,1.3,3.28,3.28,0,0,0,2.43-.87,3.51,3.51,0,0,0,1-2.06h-2.86V62.33h5.63v7.76h-2.4l-.24-1.65a3.9,3.9,0,0,1-1.44,1.31,4.66,4.66,0,0,1-2.3.52A7.2,7.2,0,0,1,415.65,69.38Z"/>
      <path class="cls-2" d="M428.73,57.07a1.76,1.76,0,1,1,2.5,0,1.79,1.79,0,0,1-2.5,0ZM428.62,59h2.72V70.09h-2.72Z"/>
      <path class="cls-2" d="M435.88,69.24a4,4,0,0,1-1.08-3.06V61.34h-1.72V59h1.72V56.23l2.73-1.71V59h2.92v2.33h-2.92v4.79a2.12,2.12,0,0,0,.36,1.4,1.38,1.38,0,0,0,1.09.41,2.19,2.19,0,0,0,1-.27l.64,2.2a4.62,4.62,0,0,1-4.79-.63Z"/>
      <path class="cls-2" d="M453.85,54.69a4.71,4.71,0,0,1,3.46,1.2,4.24,4.24,0,0,1,1.23,3.18,4.5,4.5,0,0,1-.75,2.63,3.83,3.83,0,0,1-2.14,1.51l4.27,6.88h-3.19l-4.13-6.64h-1.5v6.64h-2.86V54.69Zm1.34,5.7a2,2,0,0,0,0-2.64,1.94,1.94,0,0,0-1.32-.42H451.1v3.48h2.77A1.94,1.94,0,0,0,455.19,60.39Z"/>
      <path class="cls-2" d="M471.16,65.43h-7.65a2.94,2.94,0,0,0,.87,1.87,2.49,2.49,0,0,0,1.77.64,2.74,2.74,0,0,0,1.55-.42,3.78,3.78,0,0,0,1.13-1.3L471,67a5,5,0,0,1-5,3.23,5,5,0,0,1-3-.85,5,5,0,0,1-1.76-2.15,6.89,6.89,0,0,1,0-5.44A5,5,0,0,1,463,59.68a5,5,0,0,1,3-.85,4.92,4.92,0,0,1,2.91.82,5,5,0,0,1,1.71,2.08,6.33,6.33,0,0,1,.55,2.58Zm-2.79-2.16a3,3,0,0,0-.78-1.51,2.13,2.13,0,0,0-1.6-.6,2.3,2.3,0,0,0-1.52.54,3,3,0,0,0-.9,1.57Z"/>
      <path class="cls-2" d="M477.36,69.85a2.52,2.52,0,0,1-1-.9v1.14h-2.72V54.52h2.72V60a3.12,3.12,0,0,1,1.13-.84,3.66,3.66,0,0,1,1.56-.35,4.64,4.64,0,0,1,3.75,1.55,7.29,7.29,0,0,1,0,8.34A4.64,4.64,0,0,1,479,70.27,3.33,3.33,0,0,1,477.36,69.85ZM480.51,67a4.63,4.63,0,0,0,0-5,2.29,2.29,0,0,0-1.85-.89,2.25,2.25,0,0,0-1.83.89,4.7,4.7,0,0,0,0,5,2.34,2.34,0,0,0,3.68,0Z"/>
      <path class="cls-2" d="M486.8,69.39a3.57,3.57,0,0,1,.31-5.13,5.34,5.34,0,0,1,3.39-1h1.94v-.48a1.44,1.44,0,0,0-.55-1.22,2.29,2.29,0,0,0-1.39-.41,1.87,1.87,0,0,0-1.91,1.28l-2.31-.53a3.46,3.46,0,0,1,1.42-2.23,4.54,4.54,0,0,1,2.8-.85A4.73,4.73,0,0,1,493.94,60a4.56,4.56,0,0,1,1.22,3.46v6.62h-2.24l-.29-1.4a4.2,4.2,0,0,1-3.41,1.58A3.42,3.42,0,0,1,486.8,69.39Zm4.89-2.08a2.06,2.06,0,0,0,.75-1.66v-.22h-1.83a2.43,2.43,0,0,0-1.4.35,1.25,1.25,0,0,0-.49,1.08,1,1,0,0,0,.34.78,1.3,1.3,0,0,0,.89.3A2.62,2.62,0,0,0,491.69,67.31Z"/>
      <path class="cls-2" d="M498.54,69.39A4.17,4.17,0,0,1,497,67.28l2.18-1.17a3.1,3.1,0,0,0,.87,1.34,1.94,1.94,0,0,0,1.33.49,1.44,1.44,0,0,0,.9-.28.93.93,0,0,0,.38-.8,1,1,0,0,0-.58-.87,10.07,10.07,0,0,0-1.71-.8,5.09,5.09,0,0,1-1.95-1.28,3.07,3.07,0,0,1-.24-3.54,3.21,3.21,0,0,1,1.24-1.12,3.81,3.81,0,0,1,1.81-.42,4.47,4.47,0,0,1,2,.47,3.41,3.41,0,0,1,1.43,1.33l-1.63,1.5a2,2,0,0,0-1.78-1,1.31,1.31,0,0,0-.76.23.74.74,0,0,0-.32.61.93.93,0,0,0,.47.73,7.58,7.58,0,0,0,1.8.83,5,5,0,0,1,2,1.21,2.69,2.69,0,0,1,.71,1.91,3.4,3.4,0,0,1-1.06,2.61,3.86,3.86,0,0,1-2.73,1A4.58,4.58,0,0,1,498.54,69.39Z"/>
      <path class="cls-2" d="M517.08,65.43h-7.66a3,3,0,0,0,.87,1.87,2.49,2.49,0,0,0,1.77.64,2.72,2.72,0,0,0,1.55-.42,3.68,3.68,0,0,0,1.13-1.3l2.2.82a5.33,5.33,0,0,1-1.9,2.39,5.4,5.4,0,0,1-3.13.84,4.92,4.92,0,0,1-4.77-3,6.89,6.89,0,0,1,0-5.44,4.92,4.92,0,0,1,4.77-3,4.91,4.91,0,0,1,2.9.82,5.07,5.07,0,0,1,1.72,2.08,6.5,6.5,0,0,1,.55,2.58Zm-2.8-2.16a3,3,0,0,0-.78-1.51,2.12,2.12,0,0,0-1.59-.6,2.26,2.26,0,0,0-1.52.54,2.9,2.9,0,0,0-.9,1.57Z"/>
    </g>
    <g>
      <path class="cls-2" d="M151.06,69.38a6.56,6.56,0,0,1-2.6-2.67,8.9,8.9,0,0,1-1-4.32,8.6,8.6,0,0,1,1-4.3,6.77,6.77,0,0,1,2.69-2.67,7.51,7.51,0,0,1,3.63-.9,6.36,6.36,0,0,1,4.13,1.33,6.73,6.73,0,0,1,2.27,3.53l-2.62.68q-1.18-2.89-3.78-2.9a4.13,4.13,0,0,0-3.19,1.33,5.52,5.52,0,0,0-1.24,3.9,5.63,5.63,0,0,0,1.21,3.94,4.1,4.1,0,0,0,3.15,1.3,3.28,3.28,0,0,0,2.43-.87,3.44,3.44,0,0,0,1-2.06h-2.86V62.33H161v7.76h-2.4l-.24-1.65a3.9,3.9,0,0,1-1.44,1.31,4.66,4.66,0,0,1-2.3.52A7.2,7.2,0,0,1,151.06,69.38Z"/>
      <path class="cls-2" d="M164.13,57.07a1.78,1.78,0,0,1,2.51-2.51,1.8,1.8,0,0,1,0,2.51,1.69,1.69,0,0,1-1.25.51A1.71,1.71,0,0,1,164.13,57.07ZM164,59h2.73V70.09H164Z"/>
      <path class="cls-2" d="M171.28,69.24a4.08,4.08,0,0,1-1.07-3.06V61.34h-1.72V59h1.72V56.23l2.72-1.71V59h2.93v2.33h-2.93v4.79a2.06,2.06,0,0,0,.37,1.4,1.38,1.38,0,0,0,1.09.41,2.22,2.22,0,0,0,1.05-.27l.64,2.2a4.64,4.64,0,0,1-4.8-.63Z"/>
      <path class="cls-2" d="M183.65,54.69h3.21l3.63,9.62,3.63-9.62h3.21v15.4h-2.86v-9.5l-2.95,8.1h-2.06l-3-8.1v9.5h-2.86Z"/>
      <path class="cls-2" d="M210.51,65.43h-7.66a3,3,0,0,0,.87,1.87,2.5,2.5,0,0,0,1.77.64,2.7,2.7,0,0,0,1.55-.42,3.79,3.79,0,0,0,1.14-1.3l2.2.82a5.05,5.05,0,0,1-5,3.23,5,5,0,0,1-3-.85,5,5,0,0,1-1.76-2.15,6.89,6.89,0,0,1,0-5.44,5,5,0,0,1,1.76-2.15,5,5,0,0,1,3-.85,4.87,4.87,0,0,1,2.9.82A5.07,5.07,0,0,1,210,61.73a6.33,6.33,0,0,1,.55,2.58Zm-2.79-2.16a3,3,0,0,0-.79-1.51,2.1,2.1,0,0,0-1.59-.6,2.28,2.28,0,0,0-1.52.54,3,3,0,0,0-.9,1.57Z"/>
      <path class="cls-2" d="M215.7,59v1.8a4.4,4.4,0,0,1,1.45-1.46,3.46,3.46,0,0,1,1.83-.52,4.51,4.51,0,0,1,1.34.22l-.5,2.53a2.22,2.22,0,0,0-1.15-.31,2.5,2.5,0,0,0-2.13,1.18,6.46,6.46,0,0,0-.84,3.71v3.93H213V59Z"/>
      <path class="cls-2" d="M222.25,73.81a3.07,3.07,0,0,1-1.4-2.7,2.85,2.85,0,0,1,.9-2.2,2.6,2.6,0,0,1-.57-1.72,2.56,2.56,0,0,1,.36-1.36,2.9,2.9,0,0,1,1-1,3.52,3.52,0,0,1-.77-2.29,3.52,3.52,0,0,1,2-3.28,4.71,4.71,0,0,1,4.1,0l2.09-1.1L231.06,60l-1.59.79a3.41,3.41,0,0,1,.44,1.76,3.65,3.65,0,0,1-.53,2,3.57,3.57,0,0,1-1.48,1.29,4.82,4.82,0,0,1-2.06.44,5.05,5.05,0,0,1-1.6-.25,1,1,0,0,0-.53.84.76.76,0,0,0,.26.61,1.31,1.31,0,0,0,.77.2H227a4.45,4.45,0,0,1,2.84.85,2.93,2.93,0,0,1,1.05,2.41,3.25,3.25,0,0,1-.71,2.16,4.22,4.22,0,0,1-1.86,1.26,7.3,7.3,0,0,1-2.46.41A6.32,6.32,0,0,1,222.25,73.81Zm5.3-1.67a1.09,1.09,0,0,0,.63-1,.92.92,0,0,0-.47-.89,2.72,2.72,0,0,0-1.32-.26H224.9a7.76,7.76,0,0,1-1.28-.09,1.88,1.88,0,0,0-.24,1,1.29,1.29,0,0,0,.68,1.17,3.54,3.54,0,0,0,1.81.41A3.64,3.64,0,0,0,227.55,72.14Zm-.62-8.49a1.43,1.43,0,0,0,.43-1.08,1.5,1.5,0,0,0-.43-1.11,1.45,1.45,0,0,0-1.09-.43,1.47,1.47,0,0,0-1.09.43,1.53,1.53,0,0,0-.42,1.11,1.46,1.46,0,0,0,.42,1.08,1.5,1.5,0,0,0,1.09.42A1.49,1.49,0,0,0,226.93,63.65Z"/>
      <path class="cls-2" d="M242.61,65.43H235a3,3,0,0,0,.87,1.87,2.49,2.49,0,0,0,1.77.64,2.72,2.72,0,0,0,1.55-.42,3.79,3.79,0,0,0,1.14-1.3l2.2.82a5.05,5.05,0,0,1-5,3.23,4.92,4.92,0,0,1-4.77-3,6.89,6.89,0,0,1,0-5.44,4.92,4.92,0,0,1,4.77-3,4.89,4.89,0,0,1,2.9.82,5.07,5.07,0,0,1,1.72,2.08,6.5,6.5,0,0,1,.55,2.58Zm-2.8-2.16a3,3,0,0,0-.78-1.51,2.12,2.12,0,0,0-1.59-.6,2.26,2.26,0,0,0-1.52.54,2.9,2.9,0,0,0-.9,1.57Z"/>
    </g>
    <g>
      <path class="cls-3" d="M510.06,217.26v-1.38h.84v-.34a2,2,0,0,1,2.26-2.31,2.48,2.48,0,0,1,1.22.26l-.35,1.3a1.92,1.92,0,0,0-.78-.19c-.5,0-.74.28-.74.82v.46h1.38v1.38h-1.38v5.17H510.9v-5.17Z"/>
      <path class="cls-3" d="M520.76,219.67h-4.52a1.81,1.81,0,0,0,.51,1.11,1.5,1.5,0,0,0,1,.38,1.68,1.68,0,0,0,.92-.25,2.23,2.23,0,0,0,.66-.77l1.3.48a3.16,3.16,0,0,1-1.12,1.42,3.2,3.2,0,0,1-1.85.49,3,3,0,0,1-1.78-.5,2.92,2.92,0,0,1-1-1.27,4.07,4.07,0,0,1-.33-1.61,4,4,0,0,1,.33-1.6,3,3,0,0,1,1-1.28,3.06,3.06,0,0,1,1.78-.5,2.93,2.93,0,0,1,1.71.49,3,3,0,0,1,1,1.23,3.84,3.84,0,0,1,.32,1.52Zm-1.65-1.27a1.84,1.84,0,0,0-.46-.9,1.27,1.27,0,0,0-.94-.35,1.36,1.36,0,0,0-.9.32,1.7,1.7,0,0,0-.53.93Z"/>
      <path class="cls-3" d="M522.39,222a2.1,2.1,0,0,1,.18-3,3.13,3.13,0,0,1,2-.58h1.15v-.29a.83.83,0,0,0-.33-.72,1.35,1.35,0,0,0-.82-.24,1.1,1.1,0,0,0-1.13.76l-1.36-.32a2.06,2.06,0,0,1,.84-1.32,2.72,2.72,0,0,1,1.65-.5,2.83,2.83,0,0,1,2,.7,2.72,2.72,0,0,1,.72,2.05v3.91H526l-.17-.83a2.48,2.48,0,0,1-2,.93A2,2,0,0,1,522.39,222Zm2.88-1.22a1.23,1.23,0,0,0,.45-1v-.13h-1.08a1.41,1.41,0,0,0-.83.21.74.74,0,0,0-.29.64.6.6,0,0,0,.2.46.76.76,0,0,0,.53.18A1.56,1.56,0,0,0,525.27,220.79Z"/>
      <path class="cls-3" d="M529.88,221.92a2.35,2.35,0,0,1-.64-1.8v-2.86h-1v-1.38h1v-1.64l1.61-1v2.65h1.73v1.38h-1.73v2.83a1.23,1.23,0,0,0,.22.83.8.8,0,0,0,.64.24,1.36,1.36,0,0,0,.62-.16l.38,1.3a2.45,2.45,0,0,1-1.07.23A2.42,2.42,0,0,1,529.88,221.92Z"/>
      <path class="cls-3" d="M534.12,222a1.89,1.89,0,0,1-.55-1.47v-4.68h1.61v4.2a1.15,1.15,0,0,0,.25.82.94.94,0,0,0,.69.26,1.09,1.09,0,0,0,.74-.32,2.2,2.2,0,0,0,.54-.91,4.42,4.42,0,0,0,.21-1.44v-2.61h1.61v6.55h-1.61v-1.05a3,3,0,0,1-.9.84,2.31,2.31,0,0,1-2.59-.19Z"/>
      <path class="cls-3" d="M542.66,215.88v1.06a2.59,2.59,0,0,1,.85-.86,2.11,2.11,0,0,1,1.08-.31,3.09,3.09,0,0,1,.8.13l-.3,1.5a1.3,1.3,0,0,0-.68-.18,1.49,1.49,0,0,0-1.26.69,3.86,3.86,0,0,0-.49,2.19v2.33H541v-6.55Z"/>
      <path class="cls-3" d="M552,219.67h-4.52a1.81,1.81,0,0,0,.51,1.11,1.49,1.49,0,0,0,1,.38,1.68,1.68,0,0,0,.92-.25,2.34,2.34,0,0,0,.66-.77l1.3.48A3.16,3.16,0,0,1,550.8,222a3.2,3.2,0,0,1-1.85.49,3,3,0,0,1-1.78-.5,2.92,2.92,0,0,1-1-1.27,4.07,4.07,0,0,1-.33-1.61,4,4,0,0,1,.33-1.6,3,3,0,0,1,1-1.28,3,3,0,0,1,1.78-.5,2.93,2.93,0,0,1,1.71.49,3,3,0,0,1,1,1.23A3.84,3.84,0,0,1,552,219Zm-1.65-1.27a1.84,1.84,0,0,0-.46-.9,1.27,1.27,0,0,0-.94-.35,1.36,1.36,0,0,0-.9.32,1.7,1.7,0,0,0-.53.93Z"/>
      <path class="cls-3" d="M513.06,237.89a1.5,1.5,0,0,1-.59-.54V238h-1.61v-9.2h1.61v3.25a1.74,1.74,0,0,1,.66-.5,2.13,2.13,0,0,1,.92-.21,2.73,2.73,0,0,1,2.22.92,4.33,4.33,0,0,1,0,4.93,2.73,2.73,0,0,1-2.22.91A2,2,0,0,1,513.06,237.89Zm1.87-1.67a2.73,2.73,0,0,0,0-2.94,1.36,1.36,0,0,0-1.1-.53,1.33,1.33,0,0,0-1.08.53,2.8,2.8,0,0,0,0,2.95,1.32,1.32,0,0,0,1.08.52A1.34,1.34,0,0,0,514.93,236.22Z"/>
      <path class="cls-3" d="M520.11,231.48v1.06a2.62,2.62,0,0,1,.86-.86,2.11,2.11,0,0,1,1.08-.31,3,3,0,0,1,.79.13l-.3,1.5a1.27,1.27,0,0,0-.67-.18,1.49,1.49,0,0,0-1.26.69,3.85,3.85,0,0,0-.5,2.19V238H518.5v-6.55Z"/>
      <path class="cls-3" d="M523.79,237.61a2.1,2.1,0,0,1,.18-3,3.16,3.16,0,0,1,2-.58h1.14v-.29a.83.83,0,0,0-.33-.72,1.32,1.32,0,0,0-.81-.24,1.12,1.12,0,0,0-1.14.75l-1.36-.31a2.06,2.06,0,0,1,.84-1.32,2.75,2.75,0,0,1,1.66-.5,2.83,2.83,0,0,1,2,.7,2.71,2.71,0,0,1,.72,2.05V238h-1.32l-.17-.83a2.5,2.5,0,0,1-2,.93A2,2,0,0,1,523.79,237.61Zm2.89-1.23a1.21,1.21,0,0,0,.44-1v-.13H526a1.38,1.38,0,0,0-.82.21.72.72,0,0,0-.3.64.6.6,0,0,0,.2.46.77.77,0,0,0,.53.17A1.55,1.55,0,0,0,526.68,236.38Z"/>
      <path class="cls-3" d="M532,231.48v1.05a2.76,2.76,0,0,1,.9-.84,2.15,2.15,0,0,1,1.13-.32,2.06,2.06,0,0,1,1.46.51,1.9,1.9,0,0,1,.56,1.47V238h-1.62v-4.2a1.13,1.13,0,0,0-.25-.82.93.93,0,0,0-.68-.26,1.09,1.09,0,0,0-.74.31,2.21,2.21,0,0,0-.55.92,4.38,4.38,0,0,0-.21,1.44V238h-1.61v-6.55Z"/>
      <path class="cls-3" d="M538.93,237.68a2.75,2.75,0,0,1-1.08-1.21,4.16,4.16,0,0,1,0-3.43,2.83,2.83,0,0,1,1.08-1.22,3.23,3.23,0,0,1,1.75-.45,3.4,3.4,0,0,1,1.85.48,2.79,2.79,0,0,1,1.13,1.4l-1.45.58a2.12,2.12,0,0,0-.63-.81,1.48,1.48,0,0,0-.9-.27,1.32,1.32,0,0,0-1.13.55,3,3,0,0,0,0,2.9,1.3,1.3,0,0,0,1.13.55,1.48,1.48,0,0,0,.9-.27,2.08,2.08,0,0,0,.63-.8l1.45.58a2.83,2.83,0,0,1-1.13,1.4,3.39,3.39,0,0,1-1.85.47A3.23,3.23,0,0,1,538.93,237.68Z"/>
      <path class="cls-3" d="M546.57,228.83v3.7a2.47,2.47,0,0,1,.86-.84,2.39,2.39,0,0,1,1.22-.32,2.13,2.13,0,0,1,1.49.5,1.9,1.9,0,0,1,.55,1.48V238h-1.61v-4.11a1.34,1.34,0,0,0-.24-.88.92.92,0,0,0-.74-.29,1.19,1.19,0,0,0-.74.27,2,2,0,0,0-.57.84,3.77,3.77,0,0,0-.22,1.4V238H545v-9.2Z"/>
    </g>
    <g>
      <path class="cls-2" d="M454.37,586.56h2.8V596h-1.91v-4.29l0-3.53h-.08l-.8,4.79H453l-.79-4.79h-.09l0,3.53V596h-1.91v-9.42h2.8l.64,4Z"/>
      <path class="cls-2" d="M460.91,586.56h2.43l2.43,9.42h-2.13l-.43-2H461l-.43,2h-2.08Zm.42,5.94h1.54l-.75-3.46Z"/>
      <path class="cls-2" d="M467.31,586.56h6.43v1.67H471.5v6.07h2.24V596h-6.43V594.3h2.24v-6.07h-2.24Z"/>
      <path class="cls-2" d="M479.7,596l-2.06-6.51V596h-1.95v-9.42h2.44l2.08,6.5v-6.5h2V596Z"/>
    </g>
    <g>
      <path class="cls-2" d="M107.35,586.56h2.81V596h-1.91v-4.29l0-3.53h-.07L107.4,593H106l-.79-4.79h-.09l0,3.53V596h-1.91v-9.42h2.8l.64,4Z"/>
      <path class="cls-2" d="M113.89,586.56h2.43l2.43,9.42h-2.13l-.43-2H114l-.43,2h-2.08Zm.43,5.94h1.53L115.1,589Z"/>
      <path class="cls-2" d="M120.3,586.56h6.42v1.67h-2.24v6.07h2.24V596H120.3V594.3h2.23v-6.07H120.3Z"/>
      <path class="cls-2" d="M132.69,596l-2.07-6.51V596h-2v-9.42h2.44l2.08,6.5v-6.5h1.95V596Z"/>
    </g>
    <path class="cls-3" d="M494.31,336.5h-12v-3h12Zm-24,0h-12v-3h12Zm-24,0h-12v-3h12Zm49.5-11.5h-3V313h3Zm-60-2h-3V311h3Zm60-22h-3V289h3Zm-60-2h-3V287h3Zm60-22h-3V265h3Zm-60-2h-3V263h3Zm60-22h-3V241h3Zm-60-2h-3V239h3Zm60-22h-3V217h3Zm-60-2h-3V215h3Zm60-22h-3V193h3Zm-60-2h-3V191h3Zm60-22h-3V169h3Zm-60-2h-3V167h3Zm60-22h-3V145h3Zm-60-2h-3V143h3Zm60-22h-3V121h3Zm-60-2h-3V120a1.5,1.5,0,0,1,1.5-1.5h1V120h.5Zm47.5-9.5h-12v-3h12Zm-24,0h-12v-3h12Z"/>
    <rect class="cls-3" x="462.87" y="141.67" width="3" height="167.91"/>
    <g>
      <circle class="cls-1" cx="464.36" cy="310.14" r="10"/>
      <path class="cls-3" d="M464.36,301.64a8.5,8.5,0,1,1-8.5,8.5,8.51,8.51,0,0,1,8.5-8.5m0-3a11.5,11.5,0,1,0,11.5,11.5,11.5,11.5,0,0,0-11.5-11.5Z"/>
    </g>
    <g>
      <circle class="cls-1" cx="464.36" cy="141.8" r="10"/>
      <path class="cls-3" d="M464.36,133.3a8.5,8.5,0,1,1-8.5,8.5,8.51,8.51,0,0,1,8.5-8.5m0-3a11.5,11.5,0,1,0,11.5,11.5,11.5,11.5,0,0,0-11.5-11.5Z"/>
    </g>
    <g>
      <circle class="cls-1" cx="464.36" cy="225.97" r="10"/>
      <path class="cls-3" d="M464.36,217.47a8.5,8.5,0,1,1-8.5,8.5,8.51,8.51,0,0,1,8.5-8.5m0-3a11.5,11.5,0,1,0,11.5,11.5,11.5,11.5,0,0,0-11.5-11.5Z"/>
    </g>
    <g>
      <path class="cls-4" d="M221.51,519.12v-3l37.83-.1a13.17,13.17,0,0,0,13.1-13.14V157a13.17,13.17,0,0,0-13.1-13.14l-141.74-.1v-3l141.73.1A16.17,16.17,0,0,1,275.43,157V502.88A16.18,16.18,0,0,1,259.33,519Z"/>
      <rect class="cls-2" x="116.34" y="140.27" width="3" height="419.43"/>
      <g>
        <circle class="cls-2" cx="117.83" cy="141.8" r="11"/>
        <path class="cls-2" d="M117.83,131.3a10.5,10.5,0,1,1-10.5,10.5,10.51,10.51,0,0,1,10.5-10.5m0-1a11.5,11.5,0,1,0,11.5,11.5,11.5,11.5,0,0,0-11.5-11.5Z"/>
      </g>
      <g>
        <circle class="cls-1" cx="117.83" cy="394.31" r="10"/>
        <path class="cls-2" d="M117.83,385.81a8.5,8.5,0,1,1-8.5,8.5,8.51,8.51,0,0,1,8.5-8.5m0-3a11.5,11.5,0,1,0,11.5,11.5,11.5,11.5,0,0,0-11.5-11.5Z"/>
      </g>
      <g>
        <circle class="cls-1" cx="117.83" cy="478.48" r="10"/>
        <path class="cls-2" d="M117.83,470a8.5,8.5,0,1,1-8.5,8.5,8.51,8.51,0,0,1,8.5-8.5m0-3a11.5,11.5,0,1,0,11.5,11.5,11.5,11.5,0,0,0-11.5-11.5Z"/>
      </g>
      <rect class="cls-3" x="185.34" y="341.2" width="3" height="180.52"/>
      <path class="cls-3" d="M118.51,562.21v-3l55-.2a12.1,12.1,0,0,0,12-12.07V516.21h3v30.73a15.1,15.1,0,0,1-15,15.07Z"/>
      <path class="cls-3" d="M188.51,354.78h-3V324.06a12.1,12.1,0,0,0-12-12.08l-55-.2v-3l55,.2a15.11,15.11,0,0,1,15,15.08Z"/>
      <path class="cls-5" d="M187.45,519.21v-3l33.73-.1A13.15,13.15,0,0,0,234.26,503V240.09a12.11,12.11,0,0,0-12-12.08l-105.09-.2v-3l105.09.2a15.11,15.11,0,0,1,15,15.08V503a16.16,16.16,0,0,1-16.08,16.14Z"/>
      <g>
        <circle class="cls-1" cx="117.83" cy="559.49" r="10"/>
        <path class="cls-2" d="M117.83,551a8.5,8.5,0,1,1-8.5,8.5,8.51,8.51,0,0,1,8.5-8.5m0-3a11.5,11.5,0,1,0,11.5,11.5,11.5,11.5,0,0,0-11.5-11.5Z"/>
      </g>
      <g>
        <circle class="cls-1" cx="187.01" cy="517.71" r="10"/>
        <path class="cls-3" d="M187,509.21a8.5,8.5,0,1,1-8.5,8.5,8.51,8.51,0,0,1,8.5-8.5m0-3a11.5,11.5,0,1,0,11.5,11.5,11.5,11.5,0,0,0-11.5-11.5Z"/>
      </g>
      <g>
        <circle class="cls-1" cx="187.01" cy="351.37" r="10"/>
        <path class="cls-3" d="M187,342.87a8.5,8.5,0,1,1-8.5,8.5,8.51,8.51,0,0,1,8.5-8.5m0-3a11.5,11.5,0,1,0,11.5,11.5,11.5,11.5,0,0,0-11.5-11.5Z"/>
      </g>
      <g>
        <circle class="cls-1" cx="187.01" cy="431.33" r="10"/>
        <path class="cls-3" d="M187,422.84a8.5,8.5,0,1,1-8.5,8.5,8.51,8.51,0,0,1,8.5-8.5m0-3a11.5,11.5,0,1,0,11.5,11.5,11.49,11.49,0,0,0-11.5-11.5Z"/>
      </g>
      <g>
        <circle class="cls-1" cx="236.01" cy="459.95" r="10"/>
        <path class="cls-5" d="M236,451.45a8.5,8.5,0,1,1-8.5,8.5,8.51,8.51,0,0,1,8.5-8.5m0-3a11.5,11.5,0,1,0,11.5,11.5,11.5,11.5,0,0,0-11.5-11.5Z"/>
      </g>
      <g>
        <circle class="cls-1" cx="235.01" cy="285.95" r="10"/>
        <path class="cls-5" d="M235,277.45a8.5,8.5,0,1,1-8.5,8.5,8.51,8.51,0,0,1,8.5-8.5m0-3a11.5,11.5,0,1,0,11.5,11.5,11.5,11.5,0,0,0-11.5-11.5Z"/>
      </g>
      <g>
        <circle class="cls-1" cx="236.01" cy="370.95" r="10"/>
        <path class="cls-5" d="M236,362.45a8.5,8.5,0,1,1-8.5,8.5,8.51,8.51,0,0,1,8.5-8.5m0-3a11.5,11.5,0,1,0,11.5,11.5,11.5,11.5,0,0,0-11.5-11.5Z"/>
      </g>
      <g>
        <circle class="cls-1" cx="274.01" cy="412.44" r="10"/>
        <path class="cls-4" d="M274,403.94a8.5,8.5,0,1,1-8.5,8.5,8.52,8.52,0,0,1,8.5-8.5m0-3a11.5,11.5,0,1,0,11.5,11.5,11.5,11.5,0,0,0-11.5-11.5Z"/>
      </g>
      <g>
        <circle class="cls-1" cx="274.01" cy="222.8" r="10"/>
        <path class="cls-4" d="M274,214.3a8.5,8.5,0,1,1-8.5,8.5,8.51,8.51,0,0,1,8.5-8.5m0-3a11.5,11.5,0,1,0,11.5,11.5A11.49,11.49,0,0,0,274,211.3Z"/>
      </g>
      <g>
        <circle class="cls-2" cx="117.83" cy="225.97" r="11"/>
        <path class="cls-2" d="M117.83,215.47a10.5,10.5,0,1,1-10.5,10.5,10.51,10.51,0,0,1,10.5-10.5m0-1a11.5,11.5,0,1,0,11.5,11.5,11.5,11.5,0,0,0-11.5-11.5Z"/>
      </g>
      <g>
        <circle class="cls-2" cx="117.83" cy="310.14" r="11"/>
        <path class="cls-2" d="M117.83,299.64a10.5,10.5,0,1,1-10.5,10.5,10.51,10.51,0,0,1,10.5-10.5m0-1a11.5,11.5,0,1,0,11.5,11.5,11.5,11.5,0,0,0-11.5-11.5Z"/>
      </g>
    </g>
  </g>
</svg>
